<svg xmlns="http://www.w3.org/2000/svg" xmlns:xlink="http://www.w3.org/1999/xlink" width="530" zoomAndPan="magnify" viewBox="0 0 397.5 397.500002" height="530" preserveAspectRatio="xMidYMid meet" version="1.0"><defs><clipPath id="db0ef5faec"><path d="M 0 0 L 397 0 L 397 397 L 0 397 Z M 0 0 " clip-rule="nonzero"/></clipPath></defs><path fill="#ff0044" d="M 338.546875 136.777344 C 338.546875 136.460938 338.546875 136.152344 338.449219 135.835938 C 338.386719 134.484375 338.253906 133.140625 338.0625 131.804688 C 337.867188 130.464844 337.609375 129.140625 337.289062 127.828125 C 336.96875 126.515625 336.589844 125.21875 336.144531 123.941406 C 335.703125 122.664062 335.199219 121.414062 334.636719 120.183594 C 334.074219 118.953125 333.457031 117.753906 332.78125 116.582031 C 332.105469 115.414062 331.375 114.277344 330.589844 113.175781 C 329.808594 112.074219 328.972656 111.011719 328.085938 109.992188 C 327.203125 108.96875 326.269531 107.992188 325.292969 107.058594 C 324.316406 106.125 323.296875 105.242188 322.234375 104.402344 C 321.171875 103.566406 320.074219 102.785156 318.9375 102.050781 C 317.800781 101.320312 316.632812 100.640625 315.433594 100.019531 C 314.230469 99.398438 313.003906 98.835938 311.75 98.332031 C 310.496094 97.828125 309.222656 97.382812 307.925781 97 C 306.628906 96.617188 305.316406 96.296875 303.992188 96.039062 C 302.664062 95.78125 301.328125 95.585938 299.984375 95.453125 C 298.636719 95.320312 297.289062 95.253906 295.9375 95.25 L 106.222656 95.25 C 104.871094 95.253906 103.523438 95.320312 102.179688 95.453125 C 100.832031 95.585938 99.496094 95.78125 98.171875 96.039062 C 96.84375 96.296875 95.53125 96.617188 94.238281 97 C 92.941406 97.382812 91.664062 97.828125 90.410156 98.332031 C 89.15625 98.835938 87.929688 99.398438 86.730469 100.019531 C 85.527344 100.640625 84.359375 101.320312 83.222656 102.050781 C 82.089844 102.785156 80.988281 103.566406 79.925781 104.402344 C 78.867188 105.242188 77.847656 106.125 76.867188 107.058594 C 75.890625 107.992188 74.960938 108.96875 74.074219 109.992188 C 73.191406 111.011719 72.355469 112.074219 71.570312 113.175781 C 70.789062 114.277344 70.058594 115.414062 69.382812 116.582031 C 68.707031 117.753906 68.085938 118.953125 67.523438 120.183594 C 66.960938 121.414062 66.460938 122.664062 66.015625 123.941406 C 65.574219 125.21875 65.191406 126.515625 64.871094 127.828125 C 64.550781 129.140625 64.296875 130.464844 64.101562 131.804688 C 63.90625 133.140625 63.777344 134.484375 63.710938 135.835938 C 63.710938 136.164062 63.648438 136.460938 63.617188 136.789062 C 63.582031 137.117188 63.5 137.582031 63.5 137.972656 L 63.5 264.1875 C 63.5 265.585938 63.570312 266.984375 63.710938 268.375 C 63.847656 269.765625 64.054688 271.148438 64.328125 272.519531 C 64.601562 273.890625 64.945312 275.246094 65.351562 276.585938 C 65.757812 277.921875 66.230469 279.238281 66.765625 280.53125 C 67.300781 281.824219 67.898438 283.085938 68.558594 284.320312 C 69.21875 285.550781 69.9375 286.75 70.714844 287.914062 C 71.492188 289.074219 72.324219 290.199219 73.214844 291.277344 C 74.101562 292.359375 75.039062 293.394531 76.027344 294.382812 C 77.015625 295.375 78.050781 296.3125 79.132812 297.199219 C 80.214844 298.085938 81.335938 298.917969 82.5 299.695312 C 83.664062 300.472656 84.859375 301.191406 86.09375 301.851562 C 87.328125 302.511719 88.589844 303.109375 89.882812 303.648438 C 91.175781 304.183594 92.488281 304.65625 93.828125 305.0625 C 95.164062 305.46875 96.519531 305.808594 97.890625 306.082031 C 99.265625 306.359375 100.644531 306.5625 102.039062 306.703125 C 103.429688 306.839844 104.824219 306.910156 106.222656 306.914062 L 295.9375 306.914062 C 297.335938 306.910156 298.730469 306.839844 300.125 306.703125 C 301.515625 306.5625 302.898438 306.355469 304.269531 306.082031 C 305.640625 305.808594 306.996094 305.464844 308.332031 305.058594 C 309.671875 304.652344 310.988281 304.179688 312.277344 303.644531 C 313.570312 303.109375 314.832031 302.507812 316.066406 301.851562 C 317.300781 301.191406 318.496094 300.472656 319.660156 299.691406 C 320.824219 298.914062 321.945312 298.082031 323.027344 297.195312 C 324.105469 296.308594 325.140625 295.371094 326.128906 294.382812 C 327.121094 293.390625 328.058594 292.355469 328.945312 291.277344 C 329.832031 290.195312 330.664062 289.074219 331.441406 287.910156 C 332.21875 286.746094 332.9375 285.550781 333.597656 284.316406 C 334.257812 283.082031 334.859375 281.820312 335.394531 280.527344 C 335.929688 279.238281 336.402344 277.921875 336.808594 276.582031 C 337.214844 275.246094 337.558594 273.890625 337.832031 272.519531 C 338.105469 271.148438 338.3125 269.765625 338.453125 268.375 C 338.589844 266.984375 338.660156 265.585938 338.664062 264.1875 L 338.664062 137.972656 C 338.664062 137.582031 338.558594 137.191406 338.546875 136.777344 Z M 106.222656 116.414062 L 295.9375 116.414062 C 297.097656 116.417969 298.25 116.515625 299.394531 116.707031 C 300.535156 116.898438 301.65625 117.179688 302.757812 117.550781 C 303.855469 117.921875 304.914062 118.378906 305.941406 118.921875 C 306.964844 119.464844 307.9375 120.085938 308.863281 120.785156 C 309.789062 121.484375 310.648438 122.253906 311.449219 123.09375 C 312.25 123.933594 312.976562 124.832031 313.628906 125.789062 C 314.285156 126.746094 314.859375 127.75 315.351562 128.800781 C 315.84375 129.847656 316.246094 130.933594 316.566406 132.046875 L 201.082031 199.410156 L 85.597656 132.046875 C 85.914062 130.933594 86.320312 129.847656 86.8125 128.800781 C 87.304688 127.75 87.878906 126.746094 88.53125 125.789062 C 89.1875 124.832031 89.914062 123.933594 90.714844 123.09375 C 91.511719 122.253906 92.375 121.484375 93.300781 120.785156 C 94.222656 120.085938 95.195312 119.464844 96.222656 118.921875 C 97.246094 118.378906 98.308594 117.921875 99.40625 117.550781 C 100.503906 117.179688 101.625 116.898438 102.769531 116.707031 C 103.914062 116.515625 105.0625 116.417969 106.222656 116.414062 Z M 295.9375 285.746094 L 106.222656 285.746094 C 105.519531 285.746094 104.8125 285.710938 104.113281 285.640625 C 103.410156 285.570312 102.710938 285.464844 102.019531 285.328125 C 101.328125 285.1875 100.644531 285.015625 99.96875 284.8125 C 99.292969 284.605469 98.628906 284.367188 97.980469 284.097656 C 97.328125 283.828125 96.691406 283.523438 96.066406 283.191406 C 95.445312 282.859375 94.839844 282.496094 94.253906 282.105469 C 93.667969 281.710938 93.101562 281.292969 92.554688 280.84375 C 92.011719 280.394531 91.488281 279.921875 90.988281 279.421875 C 90.488281 278.925781 90.015625 278.402344 89.570312 277.855469 C 89.121094 277.3125 88.699219 276.746094 88.308594 276.15625 C 87.917969 275.570312 87.554688 274.96875 87.21875 274.34375 C 86.886719 273.722656 86.585938 273.085938 86.316406 272.433594 C 86.042969 271.78125 85.804688 271.117188 85.601562 270.441406 C 85.394531 269.769531 85.222656 269.085938 85.085938 268.390625 C 84.945312 267.699219 84.84375 267.003906 84.773438 266.300781 C 84.703125 265.597656 84.667969 264.894531 84.664062 264.1875 L 84.664062 156.007812 L 195.789062 220.808594 C 196.597656 221.28125 197.457031 221.640625 198.359375 221.882812 C 199.265625 222.128906 200.1875 222.25 201.125 222.25 C 202.058594 222.25 202.980469 222.128906 203.886719 221.882812 C 204.789062 221.640625 205.648438 221.28125 206.457031 220.808594 L 317.496094 156.007812 L 317.496094 264.1875 C 317.496094 264.894531 317.460938 265.597656 317.390625 266.300781 C 317.320312 267.003906 317.214844 267.699219 317.078125 268.390625 C 316.9375 269.085938 316.765625 269.769531 316.5625 270.441406 C 316.355469 271.117188 316.117188 271.78125 315.847656 272.433594 C 315.578125 273.085938 315.273438 273.722656 314.941406 274.34375 C 314.609375 274.96875 314.246094 275.570312 313.851562 276.15625 C 313.460938 276.746094 313.039062 277.3125 312.59375 277.855469 C 312.144531 278.402344 311.671875 278.925781 311.171875 279.421875 C 310.671875 279.921875 310.152344 280.394531 309.605469 280.84375 C 309.0625 281.292969 308.496094 281.710938 307.90625 282.105469 C 307.320312 282.496094 306.714844 282.859375 306.09375 283.191406 C 305.472656 283.523438 304.835938 283.828125 304.183594 284.097656 C 303.53125 284.367188 302.867188 284.605469 302.191406 284.8125 C 301.515625 285.015625 300.832031 285.1875 300.140625 285.328125 C 299.449219 285.464844 298.753906 285.570312 298.050781 285.640625 C 297.347656 285.710938 296.644531 285.746094 295.9375 285.746094 Z M 295.9375 285.746094 " fill-opacity="1" fill-rule="nonzero"/><g clip-path="url(#db0ef5faec)"><path fill="#ff0044" d="M 201.082031 0 C 197.789062 0 194.5 0.0820312 191.214844 0.242188 C 187.925781 0.402344 184.648438 0.644531 181.371094 0.96875 C 178.097656 1.289062 174.832031 1.695312 171.578125 2.175781 C 168.320312 2.660156 165.078125 3.222656 161.851562 3.863281 C 158.625 4.503906 155.414062 5.226562 152.222656 6.027344 C 149.03125 6.824219 145.859375 7.703125 142.710938 8.660156 C 139.5625 9.613281 136.4375 10.644531 133.339844 11.753906 C 130.242188 12.863281 127.171875 14.046875 124.128906 15.304688 C 121.089844 16.566406 118.082031 17.898438 115.109375 19.304688 C 112.132812 20.714844 109.195312 22.191406 106.292969 23.742188 C 103.390625 25.292969 100.527344 26.917969 97.703125 28.609375 C 94.882812 30.300781 92.101562 32.058594 89.367188 33.886719 C 86.628906 35.714844 83.941406 37.609375 81.296875 39.570312 C 78.652344 41.53125 76.058594 43.554688 73.515625 45.644531 C 70.972656 47.730469 68.480469 49.878906 66.042969 52.089844 C 63.605469 54.300781 61.222656 56.566406 58.894531 58.894531 C 56.566406 61.222656 54.300781 63.605469 52.089844 66.042969 C 49.878906 68.480469 47.730469 70.972656 45.644531 73.515625 C 43.554688 76.058594 41.53125 78.652344 39.570312 81.296875 C 37.609375 83.941406 35.714844 86.628906 33.886719 89.367188 C 32.058594 92.101562 30.300781 94.882812 28.609375 97.703125 C 26.917969 100.527344 25.292969 103.390625 23.742188 106.292969 C 22.191406 109.195312 20.714844 112.132812 19.304688 115.109375 C 17.898438 118.082031 16.566406 121.089844 15.304688 124.128906 C 14.046875 127.171875 12.863281 130.242188 11.753906 133.339844 C 10.644531 136.4375 9.613281 139.5625 8.660156 142.710938 C 7.703125 145.859375 6.824219 149.03125 6.027344 152.222656 C 5.226562 155.414062 4.503906 158.625 3.863281 161.851562 C 3.222656 165.078125 2.660156 168.320312 2.175781 171.578125 C 1.695312 174.832031 1.289062 178.097656 0.96875 181.371094 C 0.644531 184.648438 0.402344 187.925781 0.242188 191.214844 C 0.0820312 194.5 0 197.789062 0 201.082031 C 0 204.371094 0.0820312 207.660156 0.242188 210.949219 C 0.402344 214.234375 0.644531 217.515625 0.96875 220.789062 C 1.289062 224.066406 1.695312 227.332031 2.175781 230.585938 C 2.660156 233.839844 3.222656 237.082031 3.863281 240.308594 C 4.503906 243.539062 5.226562 246.746094 6.027344 249.941406 C 6.824219 253.132812 7.703125 256.300781 8.660156 259.453125 C 9.613281 262.601562 10.644531 265.726562 11.753906 268.824219 C 12.863281 271.921875 14.046875 274.992188 15.304688 278.03125 C 16.566406 281.070312 17.898438 284.078125 19.304688 287.054688 C 20.714844 290.027344 22.191406 292.96875 23.742188 295.871094 C 25.292969 298.773438 26.917969 301.632812 28.609375 304.457031 C 30.300781 307.28125 32.058594 310.058594 33.886719 312.796875 C 35.714844 315.53125 37.609375 318.222656 39.570312 320.863281 C 41.53125 323.507812 43.554688 326.101562 45.644531 328.644531 C 47.730469 331.1875 49.878906 333.679688 52.089844 336.117188 C 54.300781 338.558594 56.566406 340.941406 58.894531 343.265625 C 61.222656 345.59375 63.605469 347.863281 66.042969 350.074219 C 68.480469 352.28125 70.972656 354.429688 73.515625 356.519531 C 76.058594 358.605469 78.652344 360.628906 81.296875 362.589844 C 83.941406 364.550781 86.628906 366.445312 89.367188 368.273438 C 92.101562 370.101562 94.882812 371.863281 97.703125 373.554688 C 100.527344 375.246094 103.390625 376.867188 106.292969 378.417969 C 109.195312 379.96875 112.132812 381.449219 115.109375 382.855469 C 118.082031 384.261719 121.089844 385.597656 124.128906 386.855469 C 127.171875 388.113281 130.242188 389.300781 133.339844 390.40625 C 136.4375 391.515625 139.5625 392.546875 142.710938 393.503906 C 145.859375 394.457031 149.03125 395.335938 152.222656 396.136719 C 155.414062 396.933594 158.625 397.65625 161.851562 398.296875 C 165.078125 398.941406 168.320312 399.503906 171.578125 399.984375 C 174.832031 400.46875 178.097656 400.871094 181.371094 401.195312 C 184.648438 401.515625 187.925781 401.757812 191.214844 401.917969 C 194.5 402.082031 197.789062 402.160156 201.082031 402.160156 C 204.371094 402.160156 207.660156 402.082031 210.949219 401.917969 C 214.234375 401.757812 217.515625 401.515625 220.789062 401.195312 C 224.066406 400.871094 227.332031 400.46875 230.585938 399.984375 C 233.839844 399.503906 237.082031 398.941406 240.308594 398.296875 C 243.539062 397.65625 246.746094 396.933594 249.941406 396.136719 C 253.132812 395.335938 256.300781 394.457031 259.453125 393.503906 C 262.601562 392.546875 265.726562 391.515625 268.824219 390.40625 C 271.921875 389.300781 274.992188 388.113281 278.03125 386.855469 C 281.070312 385.597656 284.078125 384.261719 287.054688 382.855469 C 290.027344 381.449219 292.96875 379.96875 295.871094 378.417969 C 298.773438 376.867188 301.632812 375.246094 304.457031 373.554688 C 307.28125 371.863281 310.058594 370.101562 312.796875 368.273438 C 315.53125 366.445312 318.222656 364.550781 320.863281 362.589844 C 323.507812 360.628906 326.101562 358.605469 328.644531 356.519531 C 331.1875 354.429688 333.679688 352.28125 336.117188 350.074219 C 338.558594 347.863281 340.941406 345.59375 343.265625 343.265625 C 345.59375 340.941406 347.863281 338.558594 350.070312 336.117188 C 352.28125 333.679688 354.429688 331.1875 356.519531 328.644531 C 358.605469 326.101562 360.628906 323.507812 362.589844 320.863281 C 364.550781 318.222656 366.445312 315.53125 368.273438 312.796875 C 370.101562 310.058594 371.863281 307.28125 373.554688 304.457031 C 375.246094 301.632812 376.867188 298.773438 378.417969 295.871094 C 379.96875 292.96875 381.449219 290.027344 382.855469 287.054688 C 384.261719 284.078125 385.597656 281.070312 386.855469 278.03125 C 388.113281 274.992188 389.300781 271.921875 390.40625 268.824219 C 391.515625 265.726562 392.546875 262.601562 393.503906 259.453125 C 394.457031 256.300781 395.335938 253.132812 396.136719 249.941406 C 396.933594 246.746094 397.65625 243.539062 398.296875 240.308594 C 398.941406 237.082031 399.503906 233.839844 399.984375 230.585938 C 400.46875 227.332031 400.871094 224.066406 401.195312 220.789062 C 401.515625 217.515625 401.757812 214.234375 401.917969 210.949219 C 402.082031 207.660156 402.160156 204.371094 402.160156 201.082031 C 402.160156 197.792969 402.074219 194.503906 401.910156 191.21875 C 401.746094 187.933594 401.5 184.652344 401.171875 181.378906 C 400.847656 178.105469 400.441406 174.839844 399.957031 171.585938 C 399.472656 168.332031 398.90625 165.09375 398.261719 161.867188 C 397.617188 158.640625 396.894531 155.433594 396.09375 152.242188 C 395.289062 149.050781 394.410156 145.882812 393.453125 142.734375 C 392.496094 139.585938 391.460938 136.464844 390.351562 133.367188 C 389.242188 130.273438 388.058594 127.203125 386.796875 124.164062 C 385.535156 121.125 384.203125 118.121094 382.792969 115.148438 C 381.386719 112.171875 379.90625 109.238281 378.351562 106.335938 C 376.800781 103.433594 375.179688 100.574219 373.488281 97.753906 C 371.792969 94.933594 370.035156 92.152344 368.207031 89.417969 C 366.378906 86.683594 364.484375 83.996094 362.523438 81.351562 C 360.5625 78.710938 358.539062 76.117188 356.449219 73.578125 C 354.363281 71.035156 352.214844 68.542969 350.003906 66.105469 C 347.796875 63.667969 345.527344 61.285156 343.203125 58.960938 C 340.875 56.632812 338.492188 54.367188 336.054688 52.15625 C 333.617188 49.945312 331.128906 47.796875 328.585938 45.710938 C 326.042969 43.625 323.449219 41.601562 320.808594 39.640625 C 318.167969 37.679688 315.476562 35.785156 312.742188 33.957031 C 310.007812 32.128906 307.230469 30.367188 304.410156 28.675781 C 301.585938 26.984375 298.726562 25.359375 295.824219 23.808594 C 292.925781 22.257812 289.988281 20.777344 287.015625 19.367188 C 284.042969 17.960938 281.035156 16.625 277.996094 15.367188 C 274.957031 14.105469 271.890625 12.917969 268.792969 11.808594 C 265.695312 10.699219 262.574219 9.664062 259.425781 8.707031 C 256.28125 7.75 253.109375 6.871094 249.917969 6.070312 C 246.730469 5.269531 243.519531 4.546875 240.292969 3.902344 C 237.070312 3.257812 233.828125 2.691406 230.574219 2.207031 C 227.320312 1.71875 224.058594 1.3125 220.785156 0.988281 C 217.511719 0.664062 214.230469 0.417969 210.945312 0.253906 C 207.660156 0.0859375 204.371094 0.00390625 201.082031 0 Z M 201.082031 380.996094 C 198.136719 380.996094 195.195312 380.921875 192.253906 380.777344 C 189.3125 380.632812 186.375 380.417969 183.445312 380.128906 C 180.515625 379.839844 177.59375 379.480469 174.683594 379.046875 C 171.769531 378.617188 168.871094 378.113281 165.980469 377.539062 C 163.09375 376.964844 160.222656 376.320312 157.367188 375.605469 C 154.507812 374.886719 151.671875 374.101562 148.855469 373.25 C 146.035156 372.394531 143.242188 371.46875 140.46875 370.480469 C 137.699219 369.488281 134.949219 368.425781 132.230469 367.300781 C 129.511719 366.171875 126.820312 364.980469 124.15625 363.722656 C 121.496094 362.464844 118.867188 361.140625 116.269531 359.75 C 113.671875 358.363281 111.113281 356.914062 108.585938 355.398438 C 106.0625 353.886719 103.574219 352.308594 101.125 350.675781 C 98.675781 349.039062 96.269531 347.34375 93.90625 345.589844 C 91.542969 343.835938 89.21875 342.023438 86.945312 340.15625 C 84.667969 338.289062 82.441406 336.367188 80.257812 334.390625 C 78.074219 332.410156 75.945312 330.382812 73.863281 328.300781 C 71.78125 326.21875 69.75 324.085938 67.773438 321.90625 C 65.796875 319.722656 63.875 317.492188 62.003906 315.21875 C 60.136719 312.941406 58.328125 310.621094 56.574219 308.257812 C 54.816406 305.890625 53.125 303.484375 51.488281 301.035156 C 49.851562 298.589844 48.277344 296.101562 46.761719 293.574219 C 45.25 291.050781 43.796875 288.488281 42.410156 285.890625 C 41.023438 283.296875 39.699219 280.667969 38.441406 278.003906 C 37.179688 275.34375 35.988281 272.652344 34.863281 269.929688 C 33.734375 267.210938 32.675781 264.464844 31.683594 261.691406 C 30.691406 258.921875 29.769531 256.125 28.914062 253.308594 C 28.058594 250.488281 27.273438 247.652344 26.558594 244.796875 C 25.84375 241.941406 25.199219 239.070312 24.625 236.179688 C 24.050781 233.292969 23.546875 230.390625 23.113281 227.480469 C 22.683594 224.566406 22.320312 221.644531 22.03125 218.714844 C 21.746094 215.785156 21.527344 212.851562 21.382812 209.910156 C 21.238281 206.96875 21.167969 204.027344 21.167969 201.082031 C 21.167969 198.136719 21.238281 195.195312 21.382812 192.253906 C 21.527344 189.3125 21.746094 186.375 22.03125 183.445312 C 22.320312 180.515625 22.683594 177.59375 23.113281 174.683594 C 23.546875 171.769531 24.050781 168.871094 24.625 165.980469 C 25.199219 163.09375 25.84375 160.222656 26.558594 157.367188 C 27.273438 154.507812 28.058594 151.671875 28.914062 148.855469 C 29.769531 146.035156 30.691406 143.242188 31.683594 140.46875 C 32.675781 137.699219 33.734375 134.949219 34.863281 132.230469 C 35.988281 129.511719 37.179688 126.820312 38.441406 124.15625 C 39.699219 121.496094 41.023438 118.867188 42.410156 116.269531 C 43.796875 113.671875 45.25 111.113281 46.761719 108.585938 C 48.277344 106.0625 49.851562 103.574219 51.488281 101.125 C 53.125 98.675781 54.816406 96.269531 56.574219 93.90625 C 58.328125 91.542969 60.136719 89.21875 62.003906 86.945312 C 63.875 84.667969 65.796875 82.441406 67.773438 80.257812 C 69.75 78.074219 71.78125 75.945312 73.863281 73.863281 C 75.945312 71.78125 78.074219 69.75 80.257812 67.773438 C 82.441406 65.796875 84.667969 63.875 86.945312 62.003906 C 89.21875 60.136719 91.542969 58.328125 93.90625 56.574219 C 96.269531 54.816406 98.675781 53.125 101.125 51.488281 C 103.574219 49.851562 106.0625 48.277344 108.585938 46.761719 C 111.113281 45.25 113.671875 43.796875 116.269531 42.410156 C 118.867188 41.023438 121.496094 39.699219 124.15625 38.441406 C 126.820312 37.179688 129.511719 35.988281 132.230469 34.863281 C 134.949219 33.734375 137.699219 32.675781 140.46875 31.683594 C 143.242188 30.691406 146.035156 29.769531 148.855469 28.914062 C 151.671875 28.058594 154.507812 27.273438 157.367188 26.558594 C 160.222656 25.84375 163.09375 25.199219 165.980469 24.625 C 168.871094 24.050781 171.769531 23.546875 174.683594 23.113281 C 177.59375 22.683594 180.515625 22.320312 183.445312 22.03125 C 186.375 21.746094 189.3125 21.527344 192.253906 21.382812 C 195.195312 21.238281 198.136719 21.167969 201.082031 21.167969 C 204.027344 21.167969 206.96875 21.238281 209.910156 21.382812 C 212.851562 21.527344 215.785156 21.746094 218.714844 22.03125 C 221.644531 22.320312 224.566406 22.683594 227.480469 23.113281 C 230.390625 23.546875 233.292969 24.050781 236.179688 24.625 C 239.070312 25.199219 241.941406 25.84375 244.796875 26.558594 C 247.652344 27.273438 250.488281 28.058594 253.308594 28.914062 C 256.125 29.769531 258.921875 30.691406 261.691406 31.683594 C 264.464844 32.675781 267.210938 33.734375 269.929688 34.863281 C 272.652344 35.988281 275.34375 37.179688 278.003906 38.441406 C 280.667969 39.699219 283.296875 41.023438 285.890625 42.410156 C 288.488281 43.796875 291.050781 45.25 293.574219 46.761719 C 296.101562 48.277344 298.589844 49.851562 301.035156 51.488281 C 303.484375 53.125 305.890625 54.816406 308.257812 56.574219 C 310.621094 58.328125 312.941406 60.136719 315.21875 62.003906 C 317.492188 63.875 319.722656 65.796875 321.90625 67.773438 C 324.085938 69.75 326.21875 71.78125 328.300781 73.863281 C 330.382812 75.945312 332.410156 78.074219 334.390625 80.257812 C 336.367188 82.441406 338.289062 84.667969 340.15625 86.945312 C 342.023438 89.21875 343.835938 91.542969 345.589844 93.90625 C 347.34375 96.269531 349.039062 98.675781 350.675781 101.125 C 352.308594 103.574219 353.886719 106.0625 355.398438 108.585938 C 356.914062 111.113281 358.363281 113.671875 359.75 116.269531 C 361.140625 118.867188 362.464844 121.496094 363.722656 124.15625 C 364.980469 126.820312 366.171875 129.511719 367.300781 132.230469 C 368.425781 134.949219 369.488281 137.699219 370.480469 140.46875 C 371.46875 143.242188 372.394531 146.035156 373.25 148.855469 C 374.101562 151.671875 374.886719 154.507812 375.605469 157.367188 C 376.320312 160.222656 376.964844 163.09375 377.539062 165.980469 C 378.113281 168.871094 378.617188 171.769531 379.046875 174.683594 C 379.480469 177.59375 379.839844 180.515625 380.128906 183.445312 C 380.417969 186.375 380.632812 189.3125 380.777344 192.253906 C 380.921875 195.195312 380.996094 198.136719 380.996094 201.082031 C 380.992188 204.023438 380.917969 206.964844 380.769531 209.90625 C 380.621094 212.847656 380.402344 215.78125 380.109375 218.710938 C 379.820312 221.636719 379.457031 224.558594 379.023438 227.46875 C 378.585938 230.382812 378.082031 233.28125 377.503906 236.167969 C 376.929688 239.054688 376.28125 241.921875 375.5625 244.777344 C 374.847656 247.632812 374.058594 250.46875 373.203125 253.285156 C 372.347656 256.101562 371.421875 258.894531 370.429688 261.664062 C 369.433594 264.4375 368.375 267.179688 367.246094 269.898438 C 366.117188 272.617188 364.925781 275.308594 363.664062 277.96875 C 362.40625 280.628906 361.082031 283.257812 359.691406 285.851562 C 358.304688 288.449219 356.851562 291.007812 355.339844 293.53125 C 353.824219 296.054688 352.25 298.542969 350.613281 300.988281 C 348.976562 303.4375 347.28125 305.839844 345.527344 308.207031 C 343.773438 310.570312 341.964844 312.886719 340.09375 315.164062 C 338.226562 317.4375 336.304688 319.667969 334.328125 321.847656 C 332.351562 324.027344 330.324219 326.160156 328.242188 328.242188 C 326.160156 330.324219 324.027344 332.351562 321.847656 334.328125 C 319.667969 336.304688 317.4375 338.226562 315.164062 340.09375 C 312.886719 341.964844 310.570312 343.773438 308.203125 345.527344 C 305.839844 347.28125 303.4375 348.976562 300.988281 350.613281 C 298.542969 352.25 296.054688 353.824219 293.53125 355.339844 C 291.007812 356.851562 288.449219 358.304688 285.851562 359.691406 C 283.257812 361.082031 280.628906 362.40625 277.96875 363.664062 C 275.308594 364.925781 272.617188 366.117188 269.898438 367.246094 C 267.179688 368.375 264.4375 369.433594 261.664062 370.429688 C 258.894531 371.421875 256.101562 372.347656 253.285156 373.203125 C 250.46875 374.058594 247.632812 374.847656 244.777344 375.5625 C 241.921875 376.28125 239.054688 376.929688 236.167969 377.503906 C 233.28125 378.082031 230.382812 378.585938 227.46875 379.023438 C 224.558594 379.457031 221.636719 379.820312 218.710938 380.109375 C 215.78125 380.402344 212.847656 380.621094 209.90625 380.769531 C 206.964844 380.917969 204.023438 380.992188 201.082031 380.996094 Z M 201.082031 380.996094 " fill-opacity="1" fill-rule="nonzero"/></g></svg>