<svg xmlns="http://www.w3.org/2000/svg" xmlns:xlink="http://www.w3.org/1999/xlink" width="530" zoomAndPan="magnify" viewBox="0 0 397.5 397.500002" height="530" preserveAspectRatio="xMidYMid meet" version="1.0"><defs><clipPath id="b30cd3d32f"><path d="M 0 0 L 397 0 L 397 397 L 0 397 Z M 0 0 " clip-rule="nonzero"/></clipPath><clipPath id="b7093669d7"><path d="M 400.636719 198.5 C 400.636719 201.75 400.554688 204.996094 400.394531 208.242188 C 400.234375 211.484375 399.992188 214.722656 399.671875 217.957031 C 399.347656 221.191406 398.949219 224.414062 398.46875 227.625 C 397.988281 230.839844 397.425781 234.039062 396.785156 237.226562 C 396.148438 240.410156 395.429688 243.582031 394.632812 246.730469 C 393.835938 249.882812 392.964844 253.011719 392.011719 256.121094 C 391.058594 259.230469 390.03125 262.3125 388.929688 265.371094 C 387.824219 268.433594 386.644531 271.460938 385.390625 274.464844 C 384.136719 277.464844 382.808594 280.433594 381.40625 283.371094 C 380.007812 286.308594 378.535156 289.207031 376.988281 292.074219 C 375.441406 294.9375 373.828125 297.761719 372.144531 300.550781 C 370.457031 303.335938 368.707031 306.078125 366.882812 308.78125 C 365.0625 311.480469 363.175781 314.136719 361.226562 316.746094 C 359.273438 319.355469 357.257812 321.917969 355.175781 324.425781 C 353.097656 326.9375 350.957031 329.398438 348.757812 331.804688 C 346.554688 334.210938 344.296875 336.5625 341.980469 338.859375 C 339.660156 341.160156 337.289062 343.398438 334.859375 345.578125 C 332.433594 347.761719 329.953125 349.882812 327.417969 351.941406 C 324.882812 354.003906 322.300781 356.003906 319.667969 357.9375 C 317.035156 359.871094 314.359375 361.742188 311.632812 363.546875 C 308.90625 365.351562 306.140625 367.089844 303.328125 368.757812 C 300.515625 370.429688 297.667969 372.03125 294.777344 373.5625 C 291.886719 375.09375 288.957031 376.554688 285.996094 377.941406 C 283.035156 379.332031 280.039062 380.648438 277.011719 381.890625 C 273.980469 383.132812 270.925781 384.300781 267.839844 385.398438 C 264.753906 386.492188 261.640625 387.511719 258.507812 388.453125 C 255.371094 389.394531 252.210938 390.261719 249.03125 391.050781 C 245.851562 391.839844 242.65625 392.550781 239.441406 393.1875 C 236.226562 393.820312 233 394.375 229.757812 394.851562 C 226.515625 395.328125 223.265625 395.726562 220.003906 396.042969 C 216.742188 396.363281 213.472656 396.601562 210.199219 396.761719 C 206.925781 396.921875 203.648438 397 200.371094 397 C 197.09375 397 193.820312 396.921875 190.546875 396.761719 C 187.273438 396.601562 184.003906 396.363281 180.742188 396.042969 C 177.480469 395.726562 174.230469 395.328125 170.988281 394.851562 C 167.746094 394.375 164.519531 393.820312 161.304688 393.1875 C 158.089844 392.550781 154.890625 391.839844 151.714844 391.050781 C 148.535156 390.261719 145.375 389.394531 142.238281 388.453125 C 139.105469 387.511719 135.992188 386.492188 132.90625 385.398438 C 129.820312 384.300781 126.765625 383.132812 123.734375 381.890625 C 120.707031 380.648438 117.710938 379.332031 114.75 377.941406 C 111.785156 376.554688 108.859375 375.09375 105.96875 373.5625 C 103.078125 372.03125 100.230469 370.429688 97.417969 368.757812 C 94.605469 367.089844 91.839844 365.351562 89.113281 363.546875 C 86.386719 361.742188 83.710938 359.871094 81.078125 357.9375 C 78.445312 356.003906 75.863281 354.003906 73.328125 351.941406 C 70.792969 349.882812 68.3125 347.761719 65.886719 345.578125 C 63.457031 343.398438 61.082031 341.160156 58.765625 338.859375 C 56.449219 336.5625 54.191406 334.210938 51.988281 331.804688 C 49.789062 329.398438 47.648438 326.9375 45.566406 324.425781 C 43.488281 321.917969 41.472656 319.355469 39.519531 316.746094 C 37.570312 314.136719 35.683594 311.480469 33.859375 308.78125 C 32.039062 306.078125 30.289062 303.335938 28.601562 300.550781 C 26.917969 297.761719 25.300781 294.9375 23.757812 292.074219 C 22.210938 289.207031 20.738281 286.308594 19.339844 283.371094 C 17.9375 280.433594 16.609375 277.464844 15.355469 274.464844 C 14.101562 271.460938 12.921875 268.433594 11.816406 265.371094 C 10.714844 262.3125 9.683594 259.230469 8.734375 256.121094 C 7.78125 253.011719 6.910156 249.882812 6.113281 246.730469 C 5.316406 243.582031 4.597656 240.410156 3.957031 237.226562 C 3.320312 234.039062 2.757812 230.839844 2.277344 227.625 C 1.796875 224.414062 1.394531 221.191406 1.074219 217.957031 C 0.753906 214.722656 0.511719 211.484375 0.351562 208.242188 C 0.191406 204.996094 0.109375 201.75 0.109375 198.5 C 0.109375 195.25 0.191406 192.003906 0.351562 188.761719 C 0.511719 185.515625 0.753906 182.277344 1.074219 179.042969 C 1.394531 175.8125 1.796875 172.585938 2.277344 169.375 C 2.757812 166.160156 3.320312 162.960938 3.957031 159.773438 C 4.597656 156.589844 5.316406 153.417969 6.113281 150.269531 C 6.910156 147.117188 7.78125 143.988281 8.734375 140.878906 C 9.683594 137.769531 10.714844 134.6875 11.816406 131.628906 C 12.921875 128.570312 14.101562 125.539062 15.355469 122.539062 C 16.609375 119.535156 17.9375 116.566406 19.339844 113.628906 C 20.738281 110.695312 22.210938 107.792969 23.757812 104.929688 C 25.300781 102.0625 26.917969 99.238281 28.601562 96.449219 C 30.289062 93.664062 32.039062 90.921875 33.859375 88.21875 C 35.683594 85.519531 37.570312 82.863281 39.519531 80.253906 C 41.472656 77.644531 43.488281 75.085938 45.566406 72.574219 C 47.648438 70.0625 49.789062 67.601562 51.988281 65.195312 C 54.191406 62.789062 56.449219 60.4375 58.765625 58.140625 C 61.082031 55.84375 63.457031 53.601562 65.886719 51.421875 C 68.3125 49.238281 70.792969 47.117188 73.328125 45.058594 C 75.863281 42.996094 78.445312 41 81.078125 39.0625 C 83.710938 37.128906 86.386719 35.257812 89.113281 33.453125 C 91.839844 31.648438 94.605469 29.910156 97.417969 28.242188 C 100.230469 26.570312 103.078125 24.96875 105.96875 23.4375 C 108.859375 21.90625 111.785156 20.445312 114.75 19.058594 C 117.710938 17.667969 120.707031 16.351562 123.734375 15.109375 C 126.765625 13.867188 129.820312 12.699219 132.90625 11.605469 C 135.992188 10.507812 139.105469 9.492188 142.238281 8.546875 C 145.375 7.605469 148.535156 6.738281 151.714844 5.949219 C 154.890625 5.160156 158.089844 4.449219 161.304688 3.8125 C 164.519531 3.179688 167.746094 2.625 170.988281 2.148438 C 174.230469 1.671875 177.480469 1.273438 180.742188 0.957031 C 184.003906 0.636719 187.273438 0.398438 190.546875 0.238281 C 193.820312 0.078125 197.09375 0 200.371094 0 C 203.648438 0 206.925781 0.078125 210.199219 0.238281 C 213.472656 0.398438 216.742188 0.636719 220.003906 0.957031 C 223.265625 1.273438 226.515625 1.671875 229.757812 2.148438 C 233 2.625 236.226562 3.179688 239.441406 3.8125 C 242.65625 4.449219 245.851562 5.160156 249.03125 5.949219 C 252.210938 6.738281 255.371094 7.605469 258.507812 8.546875 C 261.640625 9.492188 264.753906 10.507812 267.839844 11.605469 C 270.925781 12.699219 273.980469 13.867188 277.011719 15.109375 C 280.039062 16.351562 283.035156 17.667969 285.996094 19.058594 C 288.957031 20.445312 291.886719 21.90625 294.777344 23.4375 C 297.667969 24.96875 300.515625 26.570312 303.328125 28.242188 C 306.140625 29.910156 308.90625 31.648438 311.632812 33.453125 C 314.359375 35.257812 317.035156 37.128906 319.667969 39.0625 C 322.300781 41 324.882812 42.996094 327.417969 45.058594 C 329.953125 47.117188 332.433594 49.238281 334.859375 51.421875 C 337.289062 53.601562 339.660156 55.84375 341.980469 58.140625 C 344.296875 60.4375 346.554688 62.789062 348.757812 65.195312 C 350.957031 67.601562 353.097656 70.0625 355.175781 72.574219 C 357.257812 75.085938 359.273438 77.644531 361.226562 80.253906 C 363.175781 82.863281 365.0625 85.519531 366.882812 88.21875 C 368.707031 90.921875 370.457031 93.664062 372.144531 96.449219 C 373.828125 99.238281 375.441406 102.0625 376.988281 104.929688 C 378.535156 107.792969 380.007812 110.695312 381.40625 113.628906 C 382.808594 116.566406 384.136719 119.535156 385.390625 122.539062 C 386.644531 125.539062 387.824219 128.570312 388.929688 131.628906 C 390.03125 134.6875 391.058594 137.769531 392.011719 140.878906 C 392.964844 143.988281 393.835938 147.117188 394.632812 150.269531 C 395.429688 153.417969 396.148438 156.589844 396.785156 159.773438 C 397.425781 162.960938 397.988281 166.160156 398.46875 169.375 C 398.949219 172.585938 399.347656 175.8125 399.671875 179.042969 C 399.992188 182.277344 400.234375 185.515625 400.394531 188.761719 C 400.554688 192.003906 400.636719 195.25 400.636719 198.5 Z M 400.636719 198.5 " clip-rule="nonzero"/></clipPath><linearGradient x1="53" gradientTransform="matrix(3.77853, 0, 0, 3.780958, 0.110838, 0.0000109874)" y1="105" x2="53" gradientUnits="userSpaceOnUse" y2="0" id="41ec4cf4b6"><stop stop-opacity="1" stop-color="rgb(0%, 38.398743%, 87.799072%)" offset="0"/><stop stop-opacity="1" stop-color="rgb(0.038147%, 38.516235%, 87.846375%)" offset="0.0078125"/><stop stop-opacity="1" stop-color="rgb(0.114441%, 38.752747%, 87.942505%)" offset="0.015625"/><stop stop-opacity="1" stop-color="rgb(0.190735%, 38.989258%, 88.037109%)" offset="0.0234375"/><stop stop-opacity="1" stop-color="rgb(0.267029%, 39.224243%, 88.13324%)" offset="0.03125"/><stop stop-opacity="1" stop-color="rgb(0.343323%, 39.460754%, 88.227844%)" offset="0.0390625"/><stop stop-opacity="1" stop-color="rgb(0.419617%, 39.69574%, 88.322449%)" offset="0.046875"/><stop stop-opacity="1" stop-color="rgb(0.497437%, 39.932251%, 88.418579%)" offset="0.0546875"/><stop stop-opacity="1" stop-color="rgb(0.57373%, 40.168762%, 88.513184%)" offset="0.0625"/><stop stop-opacity="1" stop-color="rgb(0.650024%, 40.403748%, 88.609314%)" offset="0.0703125"/><stop stop-opacity="1" stop-color="rgb(0.726318%, 40.640259%, 88.703918%)" offset="0.078125"/><stop stop-opacity="1" stop-color="rgb(0.802612%, 40.87677%, 88.800049%)" offset="0.0859375"/><stop stop-opacity="1" stop-color="rgb(0.878906%, 41.111755%, 88.894653%)" offset="0.09375"/><stop stop-opacity="1" stop-color="rgb(0.956726%, 41.348267%, 88.990784%)" offset="0.101562"/><stop stop-opacity="1" stop-color="rgb(1.03302%, 41.583252%, 89.085388%)" offset="0.109375"/><stop stop-opacity="1" stop-color="rgb(1.109314%, 41.819763%, 89.181519%)" offset="0.117187"/><stop stop-opacity="1" stop-color="rgb(1.185608%, 42.056274%, 89.276123%)" offset="0.125"/><stop stop-opacity="1" stop-color="rgb(1.261902%, 42.29126%, 89.372253%)" offset="0.132813"/><stop stop-opacity="1" stop-color="rgb(1.338196%, 42.527771%, 89.466858%)" offset="0.140625"/><stop stop-opacity="1" stop-color="rgb(1.416016%, 42.764282%, 89.561462%)" offset="0.148438"/><stop stop-opacity="1" stop-color="rgb(1.49231%, 42.999268%, 89.657593%)" offset="0.15625"/><stop stop-opacity="1" stop-color="rgb(1.568604%, 43.235779%, 89.752197%)" offset="0.164062"/><stop stop-opacity="1" stop-color="rgb(1.644897%, 43.470764%, 89.848328%)" offset="0.171875"/><stop stop-opacity="1" stop-color="rgb(1.721191%, 43.707275%, 89.942932%)" offset="0.179688"/><stop stop-opacity="1" stop-color="rgb(1.799011%, 43.943787%, 90.039062%)" offset="0.1875"/><stop stop-opacity="1" stop-color="rgb(1.875305%, 44.178772%, 90.133667%)" offset="0.195312"/><stop stop-opacity="1" stop-color="rgb(1.951599%, 44.415283%, 90.229797%)" offset="0.203125"/><stop stop-opacity="1" stop-color="rgb(2.027893%, 44.651794%, 90.324402%)" offset="0.210938"/><stop stop-opacity="1" stop-color="rgb(2.104187%, 44.88678%, 90.420532%)" offset="0.21875"/><stop stop-opacity="1" stop-color="rgb(2.180481%, 45.123291%, 90.515137%)" offset="0.226562"/><stop stop-opacity="1" stop-color="rgb(2.258301%, 45.358276%, 90.611267%)" offset="0.234375"/><stop stop-opacity="1" stop-color="rgb(2.334595%, 45.594788%, 90.705872%)" offset="0.242187"/><stop stop-opacity="1" stop-color="rgb(2.410889%, 45.831299%, 90.800476%)" offset="0.25"/><stop stop-opacity="1" stop-color="rgb(2.487183%, 46.066284%, 90.896606%)" offset="0.257812"/><stop stop-opacity="1" stop-color="rgb(2.563477%, 46.302795%, 90.991211%)" offset="0.265625"/><stop stop-opacity="1" stop-color="rgb(2.639771%, 46.539307%, 91.087341%)" offset="0.273438"/><stop stop-opacity="1" stop-color="rgb(2.71759%, 46.774292%, 91.181946%)" offset="0.28125"/><stop stop-opacity="1" stop-color="rgb(2.793884%, 47.010803%, 91.278076%)" offset="0.289063"/><stop stop-opacity="1" stop-color="rgb(2.870178%, 47.245789%, 91.372681%)" offset="0.296875"/><stop stop-opacity="1" stop-color="rgb(2.946472%, 47.4823%, 91.468811%)" offset="0.304688"/><stop stop-opacity="1" stop-color="rgb(3.022766%, 47.718811%, 91.563416%)" offset="0.3125"/><stop stop-opacity="1" stop-color="rgb(3.100586%, 47.953796%, 91.659546%)" offset="0.320312"/><stop stop-opacity="1" stop-color="rgb(3.17688%, 48.190308%, 91.75415%)" offset="0.328125"/><stop stop-opacity="1" stop-color="rgb(3.253174%, 48.426819%, 91.850281%)" offset="0.335938"/><stop stop-opacity="1" stop-color="rgb(3.329468%, 48.661804%, 91.944885%)" offset="0.34375"/><stop stop-opacity="1" stop-color="rgb(3.405762%, 48.898315%, 92.041016%)" offset="0.351562"/><stop stop-opacity="1" stop-color="rgb(3.482056%, 49.133301%, 92.13562%)" offset="0.359375"/><stop stop-opacity="1" stop-color="rgb(3.559875%, 49.369812%, 92.230225%)" offset="0.367188"/><stop stop-opacity="1" stop-color="rgb(3.636169%, 49.606323%, 92.326355%)" offset="0.375"/><stop stop-opacity="1" stop-color="rgb(3.712463%, 49.841309%, 92.420959%)" offset="0.382812"/><stop stop-opacity="1" stop-color="rgb(3.788757%, 50.07782%, 92.51709%)" offset="0.390625"/><stop stop-opacity="1" stop-color="rgb(3.865051%, 50.314331%, 92.611694%)" offset="0.398438"/><stop stop-opacity="1" stop-color="rgb(3.941345%, 50.549316%, 92.707825%)" offset="0.40625"/><stop stop-opacity="1" stop-color="rgb(4.019165%, 50.785828%, 92.802429%)" offset="0.414062"/><stop stop-opacity="1" stop-color="rgb(4.095459%, 51.020813%, 92.89856%)" offset="0.421875"/><stop stop-opacity="1" stop-color="rgb(4.171753%, 51.257324%, 92.993164%)" offset="0.429688"/><stop stop-opacity="1" stop-color="rgb(4.248047%, 51.493835%, 93.089294%)" offset="0.4375"/><stop stop-opacity="1" stop-color="rgb(4.324341%, 51.728821%, 93.183899%)" offset="0.445312"/><stop stop-opacity="1" stop-color="rgb(4.402161%, 51.965332%, 93.280029%)" offset="0.453125"/><stop stop-opacity="1" stop-color="rgb(4.478455%, 52.201843%, 93.374634%)" offset="0.460937"/><stop stop-opacity="1" stop-color="rgb(4.554749%, 52.436829%, 93.469238%)" offset="0.46875"/><stop stop-opacity="1" stop-color="rgb(4.631042%, 52.67334%, 93.565369%)" offset="0.476562"/><stop stop-opacity="1" stop-color="rgb(4.707336%, 52.908325%, 93.659973%)" offset="0.484375"/><stop stop-opacity="1" stop-color="rgb(4.78363%, 53.144836%, 93.756104%)" offset="0.492188"/><stop stop-opacity="1" stop-color="rgb(4.86145%, 53.381348%, 93.850708%)" offset="0.5"/><stop stop-opacity="1" stop-color="rgb(4.937744%, 53.616333%, 93.946838%)" offset="0.507812"/><stop stop-opacity="1" stop-color="rgb(5.014038%, 53.852844%, 94.041443%)" offset="0.515625"/><stop stop-opacity="1" stop-color="rgb(5.090332%, 54.089355%, 94.137573%)" offset="0.523438"/><stop stop-opacity="1" stop-color="rgb(5.166626%, 54.324341%, 94.232178%)" offset="0.53125"/><stop stop-opacity="1" stop-color="rgb(5.24292%, 54.560852%, 94.328308%)" offset="0.539062"/><stop stop-opacity="1" stop-color="rgb(5.32074%, 54.795837%, 94.422913%)" offset="0.546875"/><stop stop-opacity="1" stop-color="rgb(5.397034%, 55.032349%, 94.519043%)" offset="0.554688"/><stop stop-opacity="1" stop-color="rgb(5.473328%, 55.26886%, 94.613647%)" offset="0.5625"/><stop stop-opacity="1" stop-color="rgb(5.549622%, 55.503845%, 94.709778%)" offset="0.570313"/><stop stop-opacity="1" stop-color="rgb(5.625916%, 55.740356%, 94.804382%)" offset="0.578125"/><stop stop-opacity="1" stop-color="rgb(5.703735%, 55.976868%, 94.898987%)" offset="0.585938"/><stop stop-opacity="1" stop-color="rgb(5.780029%, 56.211853%, 94.995117%)" offset="0.59375"/><stop stop-opacity="1" stop-color="rgb(5.856323%, 56.448364%, 95.089722%)" offset="0.601562"/><stop stop-opacity="1" stop-color="rgb(5.932617%, 56.68335%, 95.185852%)" offset="0.609375"/><stop stop-opacity="1" stop-color="rgb(6.008911%, 56.919861%, 95.280457%)" offset="0.617188"/><stop stop-opacity="1" stop-color="rgb(6.085205%, 57.156372%, 95.376587%)" offset="0.625"/><stop stop-opacity="1" stop-color="rgb(6.163025%, 57.391357%, 95.471191%)" offset="0.632812"/><stop stop-opacity="1" stop-color="rgb(6.239319%, 57.627869%, 95.567322%)" offset="0.640625"/><stop stop-opacity="1" stop-color="rgb(6.315613%, 57.862854%, 95.661926%)" offset="0.648437"/><stop stop-opacity="1" stop-color="rgb(6.391907%, 58.099365%, 95.758057%)" offset="0.65625"/><stop stop-opacity="1" stop-color="rgb(6.468201%, 58.335876%, 95.852661%)" offset="0.664063"/><stop stop-opacity="1" stop-color="rgb(6.544495%, 58.570862%, 95.948792%)" offset="0.671875"/><stop stop-opacity="1" stop-color="rgb(6.622314%, 58.807373%, 96.043396%)" offset="0.679688"/><stop stop-opacity="1" stop-color="rgb(6.698608%, 59.043884%, 96.138%)" offset="0.6875"/><stop stop-opacity="1" stop-color="rgb(6.774902%, 59.27887%, 96.234131%)" offset="0.695312"/><stop stop-opacity="1" stop-color="rgb(6.851196%, 59.515381%, 96.328735%)" offset="0.703125"/><stop stop-opacity="1" stop-color="rgb(6.92749%, 59.750366%, 96.424866%)" offset="0.710938"/><stop stop-opacity="1" stop-color="rgb(7.00531%, 59.986877%, 96.51947%)" offset="0.71875"/><stop stop-opacity="1" stop-color="rgb(7.081604%, 60.223389%, 96.615601%)" offset="0.726562"/><stop stop-opacity="1" stop-color="rgb(7.157898%, 60.458374%, 96.710205%)" offset="0.734375"/><stop stop-opacity="1" stop-color="rgb(7.234192%, 60.694885%, 96.806335%)" offset="0.742187"/><stop stop-opacity="1" stop-color="rgb(7.310486%, 60.931396%, 96.90094%)" offset="0.75"/><stop stop-opacity="1" stop-color="rgb(7.38678%, 61.166382%, 96.99707%)" offset="0.757813"/><stop stop-opacity="1" stop-color="rgb(7.4646%, 61.402893%, 97.091675%)" offset="0.765625"/><stop stop-opacity="1" stop-color="rgb(7.540894%, 61.637878%, 97.187805%)" offset="0.773438"/><stop stop-opacity="1" stop-color="rgb(7.617188%, 61.87439%, 97.28241%)" offset="0.78125"/><stop stop-opacity="1" stop-color="rgb(7.693481%, 62.110901%, 97.37854%)" offset="0.789062"/><stop stop-opacity="1" stop-color="rgb(7.769775%, 62.345886%, 97.473145%)" offset="0.796875"/><stop stop-opacity="1" stop-color="rgb(7.846069%, 62.582397%, 97.567749%)" offset="0.804688"/><stop stop-opacity="1" stop-color="rgb(7.923889%, 62.818909%, 97.663879%)" offset="0.8125"/><stop stop-opacity="1" stop-color="rgb(8.000183%, 63.053894%, 97.758484%)" offset="0.820312"/><stop stop-opacity="1" stop-color="rgb(8.076477%, 63.290405%, 97.854614%)" offset="0.828125"/><stop stop-opacity="1" stop-color="rgb(8.152771%, 63.525391%, 97.949219%)" offset="0.835937"/><stop stop-opacity="1" stop-color="rgb(8.229065%, 63.761902%, 98.045349%)" offset="0.84375"/><stop stop-opacity="1" stop-color="rgb(8.306885%, 63.998413%, 98.139954%)" offset="0.851563"/><stop stop-opacity="1" stop-color="rgb(8.383179%, 64.233398%, 98.236084%)" offset="0.859375"/><stop stop-opacity="1" stop-color="rgb(8.459473%, 64.46991%, 98.330688%)" offset="0.867188"/><stop stop-opacity="1" stop-color="rgb(8.535767%, 64.706421%, 98.426819%)" offset="0.875"/><stop stop-opacity="1" stop-color="rgb(8.612061%, 64.941406%, 98.521423%)" offset="0.882812"/><stop stop-opacity="1" stop-color="rgb(8.688354%, 65.177917%, 98.617554%)" offset="0.890625"/><stop stop-opacity="1" stop-color="rgb(8.766174%, 65.412903%, 98.712158%)" offset="0.898438"/><stop stop-opacity="1" stop-color="rgb(8.842468%, 65.649414%, 98.806763%)" offset="0.90625"/><stop stop-opacity="1" stop-color="rgb(8.918762%, 65.885925%, 98.902893%)" offset="0.914062"/><stop stop-opacity="1" stop-color="rgb(8.995056%, 66.120911%, 98.997498%)" offset="0.921875"/><stop stop-opacity="1" stop-color="rgb(9.07135%, 66.357422%, 99.093628%)" offset="0.929687"/><stop stop-opacity="1" stop-color="rgb(9.147644%, 66.593933%, 99.188232%)" offset="0.9375"/><stop stop-opacity="1" stop-color="rgb(9.225464%, 66.828918%, 99.284363%)" offset="0.945312"/><stop stop-opacity="1" stop-color="rgb(9.301758%, 67.06543%, 99.378967%)" offset="0.953125"/><stop stop-opacity="1" stop-color="rgb(9.378052%, 67.300415%, 99.475098%)" offset="0.960938"/><stop stop-opacity="1" stop-color="rgb(9.454346%, 67.536926%, 99.569702%)" offset="0.96875"/><stop stop-opacity="1" stop-color="rgb(9.53064%, 67.773438%, 99.665833%)" offset="0.976562"/><stop stop-opacity="1" stop-color="rgb(9.608459%, 68.008423%, 99.760437%)" offset="0.984375"/><stop stop-opacity="1" stop-color="rgb(9.684753%, 68.244934%, 99.856567%)" offset="0.992188"/><stop stop-opacity="1" stop-color="rgb(9.761047%, 68.481445%, 99.951172%)" offset="1"/></linearGradient><clipPath id="8dcfec82cd"><path d="M 111.320312 28.441406 L 272.367188 28.441406 L 272.367188 368 L 111.320312 368 Z M 111.320312 28.441406 " clip-rule="nonzero"/></clipPath></defs><g clip-path="url(#b30cd3d32f)"><g clip-path="url(#b7093669d7)"><path fill="url(#41ec4cf4b6)" d="M 0.109375 0 L 0.109375 397 L 397 397 L 397 0 Z M 0.109375 0 " fill-rule="nonzero"/></g></g><g clip-path="url(#8dcfec82cd)"><path fill="#ffffff" d="M 235.214844 84.847656 L 272.367188 84.847656 L 272.367188 28.960938 L 224.925781 28.960938 L 224.925781 29.175781 C 162.550781 31.453125 149.6875 66.3125 148.617188 103.167969 L 148.472656 103.167969 L 148.472656 141.949219 L 111.320312 141.949219 L 111.320312 197.910156 L 148.472656 197.910156 L 148.472656 368 L 215.136719 368 L 215.136719 197.910156 L 262.9375 197.910156 L 272.367188 141.949219 L 215.136719 141.949219 L 215.136719 107.234375 C 215.136719 94.898438 223.425781 84.847656 235.214844 84.847656 Z M 235.214844 84.847656 " fill-opacity="1" fill-rule="nonzero"/></g></svg>