<svg xmlns="http://www.w3.org/2000/svg" xmlns:xlink="http://www.w3.org/1999/xlink" width="530" zoomAndPan="magnify" viewBox="0 0 397.5 397.500002" height="530" preserveAspectRatio="xMidYMid meet" version="1.0"><defs><clipPath id="a8345c5561"><path d="M 0 0 L 397 0 L 397 397 L 0 397 Z M 0 0 " clip-rule="nonzero"/></clipPath><clipPath id="9e5747fad2"><path d="M 198.5 0 C 201.75 0 204.996094 0.078125 208.242188 0.238281 C 211.484375 0.398438 214.722656 0.636719 217.957031 0.957031 C 221.191406 1.273438 224.414062 1.671875 227.625 2.148438 C 230.839844 2.625 234.039062 3.179688 237.226562 3.8125 C 240.410156 4.449219 243.582031 5.160156 246.730469 5.949219 C 249.882812 6.738281 253.011719 7.605469 256.121094 8.546875 C 259.230469 9.492188 262.3125 10.507812 265.371094 11.605469 C 268.433594 12.699219 271.460938 13.867188 274.464844 15.109375 C 277.464844 16.351562 280.433594 17.667969 283.371094 19.058594 C 286.308594 20.445312 289.207031 21.90625 292.074219 23.4375 C 294.9375 24.96875 297.761719 26.570312 300.550781 28.242188 C 303.335938 29.910156 306.078125 31.648438 308.78125 33.453125 C 311.480469 35.257812 314.136719 37.128906 316.746094 39.0625 C 319.355469 41 321.917969 42.996094 324.425781 45.058594 C 326.9375 47.117188 329.398438 49.238281 331.804688 51.421875 C 334.210938 53.601562 336.5625 55.84375 338.859375 58.140625 C 341.160156 60.4375 343.398438 62.789062 345.578125 65.195312 C 347.761719 67.601562 349.882812 70.0625 351.941406 72.574219 C 354.003906 75.085938 356.003906 77.644531 357.9375 80.253906 C 359.871094 82.863281 361.742188 85.519531 363.546875 88.21875 C 365.351562 90.921875 367.089844 93.664062 368.757812 96.449219 C 370.429688 99.238281 372.03125 102.0625 373.5625 104.929688 C 375.09375 107.792969 376.554688 110.695312 377.941406 113.628906 C 379.332031 116.566406 380.648438 119.535156 381.890625 122.539062 C 383.132812 125.539062 384.300781 128.570312 385.398438 131.628906 C 386.492188 134.6875 387.511719 137.769531 388.453125 140.878906 C 389.394531 143.988281 390.261719 147.117188 391.050781 150.269531 C 391.839844 153.417969 392.550781 156.589844 393.1875 159.773438 C 393.820312 162.960938 394.375 166.160156 394.851562 169.375 C 395.328125 172.585938 395.726562 175.8125 396.042969 179.042969 C 396.363281 182.277344 396.601562 185.515625 396.761719 188.761719 C 396.921875 192.003906 397 195.25 397 198.5 C 397 201.75 396.921875 204.996094 396.761719 208.242188 C 396.601562 211.484375 396.363281 214.722656 396.042969 217.957031 C 395.726562 221.191406 395.328125 224.414062 394.851562 227.625 C 394.375 230.839844 393.820312 234.039062 393.1875 237.226562 C 392.550781 240.410156 391.839844 243.582031 391.050781 246.730469 C 390.261719 249.882812 389.394531 253.011719 388.453125 256.121094 C 387.511719 259.230469 386.492188 262.3125 385.398438 265.371094 C 384.300781 268.433594 383.132812 271.460938 381.890625 274.464844 C 380.648438 277.464844 379.332031 280.433594 377.941406 283.371094 C 376.554688 286.308594 375.09375 289.207031 373.5625 292.074219 C 372.03125 294.9375 370.429688 297.761719 368.757812 300.550781 C 367.089844 303.335938 365.351562 306.078125 363.546875 308.78125 C 361.742188 311.480469 359.871094 314.136719 357.9375 316.746094 C 356.003906 319.355469 354.003906 321.917969 351.941406 324.425781 C 349.882812 326.9375 347.761719 329.398438 345.578125 331.804688 C 343.398438 334.210938 341.160156 336.5625 338.859375 338.859375 C 336.5625 341.160156 334.210938 343.398438 331.804688 345.578125 C 329.398438 347.761719 326.9375 349.882812 324.425781 351.941406 C 321.917969 354.003906 319.355469 356.003906 316.746094 357.9375 C 314.136719 359.871094 311.480469 361.742188 308.78125 363.546875 C 306.078125 365.351562 303.335938 367.089844 300.550781 368.757812 C 297.761719 370.429688 294.9375 372.03125 292.074219 373.5625 C 289.207031 375.09375 286.308594 376.554688 283.371094 377.941406 C 280.433594 379.332031 277.464844 380.648438 274.464844 381.890625 C 271.460938 383.132812 268.433594 384.300781 265.371094 385.398438 C 262.3125 386.492188 259.230469 387.511719 256.121094 388.453125 C 253.011719 389.394531 249.882812 390.261719 246.730469 391.050781 C 243.582031 391.839844 240.410156 392.550781 237.226562 393.1875 C 234.039062 393.820312 230.839844 394.375 227.625 394.851562 C 224.414062 395.328125 221.191406 395.726562 217.957031 396.042969 C 214.722656 396.363281 211.484375 396.601562 208.242188 396.761719 C 204.996094 396.921875 201.75 397 198.5 397 C 195.25 397 192.003906 396.921875 188.761719 396.761719 C 185.515625 396.601562 182.277344 396.363281 179.042969 396.042969 C 175.8125 395.726562 172.585938 395.328125 169.375 394.851562 C 166.160156 394.375 162.960938 393.820312 159.773438 393.1875 C 156.589844 392.550781 153.417969 391.839844 150.269531 391.050781 C 147.117188 390.261719 143.988281 389.394531 140.878906 388.453125 C 137.769531 387.511719 134.6875 386.492188 131.628906 385.398438 C 128.570312 384.300781 125.539062 383.132812 122.539062 381.890625 C 119.535156 380.648438 116.566406 379.332031 113.628906 377.941406 C 110.695312 376.554688 107.792969 375.09375 104.929688 373.5625 C 102.0625 372.03125 99.238281 370.429688 96.449219 368.757812 C 93.664062 367.089844 90.921875 365.351562 88.21875 363.546875 C 85.519531 361.742188 82.863281 359.871094 80.253906 357.9375 C 77.644531 356.003906 75.085938 354.003906 72.574219 351.941406 C 70.0625 349.882812 67.601562 347.761719 65.195312 345.578125 C 62.789062 343.398438 60.4375 341.160156 58.140625 338.859375 C 55.84375 336.5625 53.601562 334.210938 51.421875 331.804688 C 49.238281 329.398438 47.117188 326.9375 45.058594 324.425781 C 42.996094 321.917969 41 319.355469 39.0625 316.746094 C 37.128906 314.136719 35.257812 311.480469 33.453125 308.78125 C 31.648438 306.078125 29.910156 303.335938 28.242188 300.550781 C 26.570312 297.761719 24.96875 294.9375 23.4375 292.074219 C 21.90625 289.207031 20.445312 286.308594 19.058594 283.371094 C 17.667969 280.433594 16.351562 277.464844 15.109375 274.464844 C 13.867188 271.460938 12.699219 268.433594 11.605469 265.371094 C 10.507812 262.3125 9.492188 259.230469 8.546875 256.121094 C 7.605469 253.011719 6.738281 249.882812 5.949219 246.730469 C 5.160156 243.582031 4.449219 240.410156 3.8125 237.226562 C 3.179688 234.039062 2.625 230.839844 2.148438 227.625 C 1.671875 224.414062 1.273438 221.191406 0.957031 217.957031 C 0.636719 214.722656 0.398438 211.484375 0.238281 208.242188 C 0.078125 204.996094 0 201.75 0 198.5 C 0 195.25 0.078125 192.003906 0.238281 188.761719 C 0.398438 185.515625 0.636719 182.277344 0.957031 179.042969 C 1.273438 175.8125 1.671875 172.585938 2.148438 169.375 C 2.625 166.160156 3.179688 162.960938 3.8125 159.773438 C 4.449219 156.589844 5.160156 153.417969 5.949219 150.269531 C 6.738281 147.117188 7.605469 143.988281 8.546875 140.878906 C 9.492188 137.769531 10.507812 134.6875 11.605469 131.628906 C 12.699219 128.570312 13.867188 125.539062 15.109375 122.539062 C 16.351562 119.535156 17.667969 116.566406 19.058594 113.628906 C 20.445312 110.695312 21.90625 107.792969 23.4375 104.929688 C 24.96875 102.0625 26.570312 99.238281 28.242188 96.449219 C 29.910156 93.664062 31.648438 90.921875 33.453125 88.21875 C 35.257812 85.519531 37.128906 82.863281 39.0625 80.253906 C 41 77.644531 42.996094 75.085938 45.058594 72.574219 C 47.117188 70.0625 49.238281 67.601562 51.421875 65.195312 C 53.601562 62.789062 55.84375 60.4375 58.140625 58.140625 C 60.4375 55.84375 62.789062 53.601562 65.195312 51.421875 C 67.601562 49.238281 70.0625 47.117188 72.574219 45.058594 C 75.085938 42.996094 77.644531 41 80.253906 39.0625 C 82.863281 37.128906 85.519531 35.257812 88.21875 33.453125 C 90.921875 31.648438 93.664062 29.910156 96.449219 28.242188 C 99.238281 26.570312 102.0625 24.96875 104.929688 23.4375 C 107.792969 21.90625 110.695312 20.445312 113.628906 19.058594 C 116.566406 17.667969 119.535156 16.351562 122.539062 15.109375 C 125.539062 13.867188 128.570312 12.699219 131.628906 11.605469 C 134.6875 10.507812 137.769531 9.492188 140.878906 8.546875 C 143.988281 7.605469 147.117188 6.738281 150.269531 5.949219 C 153.417969 5.160156 156.589844 4.449219 159.773438 3.8125 C 162.960938 3.179688 166.160156 2.625 169.375 2.148438 C 172.585938 1.671875 175.8125 1.273438 179.042969 0.957031 C 182.277344 0.636719 185.515625 0.398438 188.761719 0.238281 C 192.003906 0.078125 195.25 0 198.5 0 Z M 198.5 0 " clip-rule="nonzero"/></clipPath><linearGradient x1="5.374784" gradientTransform="matrix(11.676488, 0, 0, 11.676488, 0, 0.0000109874)" y1="-1.927213" x2="20.050525" gradientUnits="userSpaceOnUse" y2="39.001804" id="36e8e9f5e1"><stop stop-opacity="1" stop-color="rgb(56.098938%, 0%, 100%)" offset="0"/><stop stop-opacity="1" stop-color="rgb(56.098938%, 0%, 100%)" offset="0.125"/><stop stop-opacity="1" stop-color="rgb(56.098938%, 0%, 100%)" offset="0.140625"/><stop stop-opacity="1" stop-color="rgb(56.359863%, 0%, 100%)" offset="0.144531"/><stop stop-opacity="1" stop-color="rgb(56.620789%, 0%, 100%)" offset="0.148438"/><stop stop-opacity="1" stop-color="rgb(57.028198%, 0%, 100%)" offset="0.152344"/><stop stop-opacity="1" stop-color="rgb(57.437134%, 0%, 100%)" offset="0.15625"/><stop stop-opacity="1" stop-color="rgb(57.844543%, 0%, 100%)" offset="0.160156"/><stop stop-opacity="1" stop-color="rgb(58.253479%, 0%, 100%)" offset="0.164063"/><stop stop-opacity="1" stop-color="rgb(58.660889%, 0%, 100%)" offset="0.167969"/><stop stop-opacity="1" stop-color="rgb(59.068298%, 0%, 100%)" offset="0.171875"/><stop stop-opacity="1" stop-color="rgb(59.475708%, 0%, 100%)" offset="0.175781"/><stop stop-opacity="1" stop-color="rgb(59.884644%, 0%, 100%)" offset="0.179688"/><stop stop-opacity="1" stop-color="rgb(60.292053%, 0%, 100%)" offset="0.183594"/><stop stop-opacity="1" stop-color="rgb(60.700989%, 0%, 100%)" offset="0.1875"/><stop stop-opacity="1" stop-color="rgb(61.108398%, 0%, 100%)" offset="0.191406"/><stop stop-opacity="1" stop-color="rgb(61.517334%, 0%, 100%)" offset="0.195312"/><stop stop-opacity="1" stop-color="rgb(61.924744%, 0%, 100%)" offset="0.199219"/><stop stop-opacity="1" stop-color="rgb(62.333679%, 0%, 100%)" offset="0.203125"/><stop stop-opacity="1" stop-color="rgb(62.741089%, 0%, 100%)" offset="0.207031"/><stop stop-opacity="1" stop-color="rgb(63.150024%, 0%, 100%)" offset="0.210938"/><stop stop-opacity="1" stop-color="rgb(63.557434%, 0%, 100%)" offset="0.214844"/><stop stop-opacity="1" stop-color="rgb(63.96637%, 0%, 100%)" offset="0.21875"/><stop stop-opacity="1" stop-color="rgb(64.373779%, 0%, 100%)" offset="0.222656"/><stop stop-opacity="1" stop-color="rgb(64.782715%, 0%, 100%)" offset="0.226563"/><stop stop-opacity="1" stop-color="rgb(65.190125%, 0%, 100%)" offset="0.230469"/><stop stop-opacity="1" stop-color="rgb(65.59906%, 0%, 100%)" offset="0.234375"/><stop stop-opacity="1" stop-color="rgb(66.00647%, 0%, 100%)" offset="0.238281"/><stop stop-opacity="1" stop-color="rgb(66.415405%, 0%, 100%)" offset="0.242188"/><stop stop-opacity="1" stop-color="rgb(66.822815%, 0%, 100%)" offset="0.246094"/><stop stop-opacity="1" stop-color="rgb(67.23175%, 0%, 100%)" offset="0.25"/><stop stop-opacity="1" stop-color="rgb(67.63916%, 0%, 100%)" offset="0.253906"/><stop stop-opacity="1" stop-color="rgb(68.04657%, 0%, 100%)" offset="0.257813"/><stop stop-opacity="1" stop-color="rgb(68.453979%, 0%, 100%)" offset="0.261719"/><stop stop-opacity="1" stop-color="rgb(68.862915%, 0%, 100%)" offset="0.265625"/><stop stop-opacity="1" stop-color="rgb(69.270325%, 0%, 100%)" offset="0.269531"/><stop stop-opacity="1" stop-color="rgb(69.67926%, 0%, 100%)" offset="0.273438"/><stop stop-opacity="1" stop-color="rgb(70.08667%, 0%, 100%)" offset="0.277344"/><stop stop-opacity="1" stop-color="rgb(70.495605%, 0%, 100%)" offset="0.28125"/><stop stop-opacity="1" stop-color="rgb(70.903015%, 0%, 100%)" offset="0.285156"/><stop stop-opacity="1" stop-color="rgb(71.311951%, 0%, 100%)" offset="0.289063"/><stop stop-opacity="1" stop-color="rgb(71.71936%, 0%, 100%)" offset="0.292969"/><stop stop-opacity="1" stop-color="rgb(72.128296%, 0%, 100%)" offset="0.296875"/><stop stop-opacity="1" stop-color="rgb(72.535706%, 0%, 100%)" offset="0.300781"/><stop stop-opacity="1" stop-color="rgb(72.944641%, 0%, 100%)" offset="0.304688"/><stop stop-opacity="1" stop-color="rgb(73.352051%, 0%, 100%)" offset="0.308594"/><stop stop-opacity="1" stop-color="rgb(73.760986%, 0%, 100%)" offset="0.3125"/><stop stop-opacity="1" stop-color="rgb(74.168396%, 0%, 100%)" offset="0.316406"/><stop stop-opacity="1" stop-color="rgb(74.577332%, 0%, 100%)" offset="0.320313"/><stop stop-opacity="1" stop-color="rgb(74.984741%, 0%, 100%)" offset="0.324219"/><stop stop-opacity="1" stop-color="rgb(75.393677%, 0%, 100%)" offset="0.328125"/><stop stop-opacity="1" stop-color="rgb(75.801086%, 0%, 100%)" offset="0.332031"/><stop stop-opacity="1" stop-color="rgb(76.210022%, 0%, 100%)" offset="0.335938"/><stop stop-opacity="1" stop-color="rgb(76.617432%, 0%, 100%)" offset="0.339844"/><stop stop-opacity="1" stop-color="rgb(77.024841%, 0%, 100%)" offset="0.34375"/><stop stop-opacity="1" stop-color="rgb(77.432251%, 0%, 100%)" offset="0.347656"/><stop stop-opacity="1" stop-color="rgb(77.841187%, 0%, 100%)" offset="0.351562"/><stop stop-opacity="1" stop-color="rgb(78.248596%, 0%, 100%)" offset="0.355469"/><stop stop-opacity="1" stop-color="rgb(78.657532%, 0%, 100%)" offset="0.359375"/><stop stop-opacity="1" stop-color="rgb(79.064941%, 0%, 100%)" offset="0.363281"/><stop stop-opacity="1" stop-color="rgb(79.473877%, 0%, 100%)" offset="0.367188"/><stop stop-opacity="1" stop-color="rgb(79.881287%, 0%, 100%)" offset="0.371094"/><stop stop-opacity="1" stop-color="rgb(80.290222%, 0%, 100%)" offset="0.375"/><stop stop-opacity="1" stop-color="rgb(80.697632%, 0%, 100%)" offset="0.378906"/><stop stop-opacity="1" stop-color="rgb(81.106567%, 0%, 100%)" offset="0.382813"/><stop stop-opacity="1" stop-color="rgb(81.513977%, 0%, 100%)" offset="0.386719"/><stop stop-opacity="1" stop-color="rgb(81.922913%, 0%, 100%)" offset="0.390625"/><stop stop-opacity="1" stop-color="rgb(82.330322%, 0%, 100%)" offset="0.394531"/><stop stop-opacity="1" stop-color="rgb(82.739258%, 0%, 100%)" offset="0.398438"/><stop stop-opacity="1" stop-color="rgb(83.146667%, 0%, 100%)" offset="0.402344"/><stop stop-opacity="1" stop-color="rgb(83.555603%, 0%, 100%)" offset="0.40625"/><stop stop-opacity="1" stop-color="rgb(83.963013%, 0%, 100%)" offset="0.410156"/><stop stop-opacity="1" stop-color="rgb(84.371948%, 0%, 100%)" offset="0.414063"/><stop stop-opacity="1" stop-color="rgb(84.779358%, 0%, 100%)" offset="0.417969"/><stop stop-opacity="1" stop-color="rgb(85.188293%, 0%, 100%)" offset="0.421875"/><stop stop-opacity="1" stop-color="rgb(85.559082%, 0.0869751%, 99.887085%)" offset="0.425781"/><stop stop-opacity="1" stop-color="rgb(85.931396%, 0.17395%, 99.77417%)" offset="0.429688"/><stop stop-opacity="1" stop-color="rgb(86.054993%, 0.857544%, 98.89679%)" offset="0.433594"/><stop stop-opacity="1" stop-color="rgb(86.178589%, 1.542664%, 98.020935%)" offset="0.4375"/><stop stop-opacity="1" stop-color="rgb(86.302185%, 2.226257%, 97.143555%)" offset="0.441406"/><stop stop-opacity="1" stop-color="rgb(86.425781%, 2.911377%, 96.266174%)" offset="0.445312"/><stop stop-opacity="1" stop-color="rgb(86.549377%, 3.594971%, 95.388794%)" offset="0.449219"/><stop stop-opacity="1" stop-color="rgb(86.672974%, 4.278564%, 94.511414%)" offset="0.453125"/><stop stop-opacity="1" stop-color="rgb(86.79657%, 4.962158%, 93.634033%)" offset="0.457031"/><stop stop-opacity="1" stop-color="rgb(86.920166%, 5.647278%, 92.758179%)" offset="0.460938"/><stop stop-opacity="1" stop-color="rgb(87.043762%, 6.330872%, 91.880798%)" offset="0.464844"/><stop stop-opacity="1" stop-color="rgb(87.167358%, 7.015991%, 91.003418%)" offset="0.46875"/><stop stop-opacity="1" stop-color="rgb(87.290955%, 7.699585%, 90.126038%)" offset="0.472656"/><stop stop-opacity="1" stop-color="rgb(87.414551%, 8.384705%, 89.250183%)" offset="0.476562"/><stop stop-opacity="1" stop-color="rgb(87.538147%, 9.068298%, 88.372803%)" offset="0.480469"/><stop stop-opacity="1" stop-color="rgb(87.661743%, 9.751892%, 87.495422%)" offset="0.484375"/><stop stop-opacity="1" stop-color="rgb(87.785339%, 10.435486%, 86.618042%)" offset="0.488281"/><stop stop-opacity="1" stop-color="rgb(87.908936%, 11.120605%, 85.740662%)" offset="0.492188"/><stop stop-opacity="1" stop-color="rgb(88.032532%, 11.804199%, 84.863281%)" offset="0.496094"/><stop stop-opacity="1" stop-color="rgb(88.157654%, 12.489319%, 83.987427%)" offset="0.5"/><stop stop-opacity="1" stop-color="rgb(88.28125%, 13.172913%, 83.110046%)" offset="0.503906"/><stop stop-opacity="1" stop-color="rgb(88.404846%, 13.856506%, 82.232666%)" offset="0.507812"/><stop stop-opacity="1" stop-color="rgb(88.528442%, 14.5401%, 81.355286%)" offset="0.511719"/><stop stop-opacity="1" stop-color="rgb(88.652039%, 15.22522%, 80.479431%)" offset="0.515625"/><stop stop-opacity="1" stop-color="rgb(88.775635%, 15.908813%, 79.602051%)" offset="0.519531"/><stop stop-opacity="1" stop-color="rgb(88.899231%, 16.593933%, 78.72467%)" offset="0.523438"/><stop stop-opacity="1" stop-color="rgb(89.022827%, 17.277527%, 77.84729%)" offset="0.527344"/><stop stop-opacity="1" stop-color="rgb(89.146423%, 17.961121%, 76.96991%)" offset="0.53125"/><stop stop-opacity="1" stop-color="rgb(89.27002%, 18.644714%, 76.092529%)" offset="0.535156"/><stop stop-opacity="1" stop-color="rgb(89.393616%, 19.329834%, 75.216675%)" offset="0.539063"/><stop stop-opacity="1" stop-color="rgb(89.517212%, 20.013428%, 74.339294%)" offset="0.542969"/><stop stop-opacity="1" stop-color="rgb(89.640808%, 20.698547%, 73.461914%)" offset="0.546875"/><stop stop-opacity="1" stop-color="rgb(89.764404%, 21.382141%, 72.584534%)" offset="0.550781"/><stop stop-opacity="1" stop-color="rgb(89.888%, 22.065735%, 71.708679%)" offset="0.554688"/><stop stop-opacity="1" stop-color="rgb(90.011597%, 22.749329%, 70.831299%)" offset="0.558594"/><stop stop-opacity="1" stop-color="rgb(90.135193%, 23.434448%, 69.953918%)" offset="0.5625"/><stop stop-opacity="1" stop-color="rgb(90.258789%, 24.118042%, 69.076538%)" offset="0.566406"/><stop stop-opacity="1" stop-color="rgb(90.382385%, 24.803162%, 68.199158%)" offset="0.570313"/><stop stop-opacity="1" stop-color="rgb(90.505981%, 25.486755%, 67.321777%)" offset="0.574219"/><stop stop-opacity="1" stop-color="rgb(90.629578%, 26.170349%, 66.445923%)" offset="0.578125"/><stop stop-opacity="1" stop-color="rgb(90.753174%, 26.853943%, 65.568542%)" offset="0.582031"/><stop stop-opacity="1" stop-color="rgb(90.878296%, 27.539062%, 64.691162%)" offset="0.585938"/><stop stop-opacity="1" stop-color="rgb(91.001892%, 28.222656%, 63.813782%)" offset="0.589844"/><stop stop-opacity="1" stop-color="rgb(91.125488%, 28.907776%, 62.937927%)" offset="0.59375"/><stop stop-opacity="1" stop-color="rgb(91.249084%, 29.59137%, 62.060547%)" offset="0.597656"/><stop stop-opacity="1" stop-color="rgb(91.372681%, 30.276489%, 61.183167%)" offset="0.601563"/><stop stop-opacity="1" stop-color="rgb(91.496277%, 30.960083%, 60.305786%)" offset="0.605469"/><stop stop-opacity="1" stop-color="rgb(91.619873%, 31.643677%, 59.428406%)" offset="0.609375"/><stop stop-opacity="1" stop-color="rgb(91.743469%, 32.327271%, 58.551025%)" offset="0.613281"/><stop stop-opacity="1" stop-color="rgb(91.867065%, 33.01239%, 57.675171%)" offset="0.617188"/><stop stop-opacity="1" stop-color="rgb(91.990662%, 33.695984%, 56.797791%)" offset="0.621094"/><stop stop-opacity="1" stop-color="rgb(92.114258%, 34.381104%, 55.92041%)" offset="0.625"/><stop stop-opacity="1" stop-color="rgb(92.237854%, 35.064697%, 55.04303%)" offset="0.628906"/><stop stop-opacity="1" stop-color="rgb(92.36145%, 35.748291%, 54.167175%)" offset="0.632813"/><stop stop-opacity="1" stop-color="rgb(92.485046%, 36.431885%, 53.289795%)" offset="0.636719"/><stop stop-opacity="1" stop-color="rgb(92.608643%, 37.117004%, 52.412415%)" offset="0.640625"/><stop stop-opacity="1" stop-color="rgb(92.732239%, 37.800598%, 51.535034%)" offset="0.644531"/><stop stop-opacity="1" stop-color="rgb(92.855835%, 38.485718%, 50.657654%)" offset="0.648438"/><stop stop-opacity="1" stop-color="rgb(92.979431%, 39.169312%, 49.780273%)" offset="0.652344"/><stop stop-opacity="1" stop-color="rgb(93.103027%, 39.852905%, 48.904419%)" offset="0.65625"/><stop stop-opacity="1" stop-color="rgb(93.226624%, 40.536499%, 48.027039%)" offset="0.660156"/><stop stop-opacity="1" stop-color="rgb(93.351746%, 41.221619%, 47.149658%)" offset="0.664063"/><stop stop-opacity="1" stop-color="rgb(93.475342%, 41.905212%, 46.272278%)" offset="0.667969"/><stop stop-opacity="1" stop-color="rgb(93.598938%, 42.590332%, 45.396423%)" offset="0.671875"/><stop stop-opacity="1" stop-color="rgb(93.722534%, 43.273926%, 44.519043%)" offset="0.675781"/><stop stop-opacity="1" stop-color="rgb(93.84613%, 43.95752%, 43.641663%)" offset="0.679688"/><stop stop-opacity="1" stop-color="rgb(93.969727%, 44.641113%, 42.764282%)" offset="0.683594"/><stop stop-opacity="1" stop-color="rgb(94.093323%, 45.326233%, 41.886902%)" offset="0.6875"/><stop stop-opacity="1" stop-color="rgb(94.216919%, 46.009827%, 41.009521%)" offset="0.691406"/><stop stop-opacity="1" stop-color="rgb(94.340515%, 46.694946%, 40.133667%)" offset="0.695313"/><stop stop-opacity="1" stop-color="rgb(94.464111%, 47.37854%, 39.256287%)" offset="0.699219"/><stop stop-opacity="1" stop-color="rgb(94.587708%, 48.062134%, 38.378906%)" offset="0.703125"/><stop stop-opacity="1" stop-color="rgb(94.711304%, 48.745728%, 37.501526%)" offset="0.707031"/><stop stop-opacity="1" stop-color="rgb(94.8349%, 49.430847%, 36.625671%)" offset="0.710938"/><stop stop-opacity="1" stop-color="rgb(94.958496%, 50.114441%, 35.748291%)" offset="0.714844"/><stop stop-opacity="1" stop-color="rgb(95.082092%, 50.799561%, 34.870911%)" offset="0.71875"/><stop stop-opacity="1" stop-color="rgb(95.205688%, 51.483154%, 33.99353%)" offset="0.722656"/><stop stop-opacity="1" stop-color="rgb(95.329285%, 52.168274%, 33.11615%)" offset="0.726563"/><stop stop-opacity="1" stop-color="rgb(95.452881%, 52.851868%, 32.23877%)" offset="0.730469"/><stop stop-opacity="1" stop-color="rgb(95.576477%, 53.535461%, 31.362915%)" offset="0.734375"/><stop stop-opacity="1" stop-color="rgb(95.700073%, 54.219055%, 30.485535%)" offset="0.738281"/><stop stop-opacity="1" stop-color="rgb(95.823669%, 54.904175%, 29.608154%)" offset="0.742188"/><stop stop-opacity="1" stop-color="rgb(95.947266%, 55.587769%, 28.730774%)" offset="0.746094"/><stop stop-opacity="1" stop-color="rgb(96.072388%, 56.272888%, 27.854919%)" offset="0.75"/><stop stop-opacity="1" stop-color="rgb(96.195984%, 56.956482%, 26.977539%)" offset="0.753906"/><stop stop-opacity="1" stop-color="rgb(96.31958%, 57.640076%, 26.100159%)" offset="0.757813"/><stop stop-opacity="1" stop-color="rgb(96.443176%, 58.323669%, 25.222778%)" offset="0.761719"/><stop stop-opacity="1" stop-color="rgb(96.566772%, 59.008789%, 24.345398%)" offset="0.765625"/><stop stop-opacity="1" stop-color="rgb(96.690369%, 59.692383%, 23.468018%)" offset="0.769531"/><stop stop-opacity="1" stop-color="rgb(96.813965%, 60.377502%, 22.592163%)" offset="0.773438"/><stop stop-opacity="1" stop-color="rgb(96.937561%, 61.061096%, 21.714783%)" offset="0.777344"/><stop stop-opacity="1" stop-color="rgb(97.061157%, 61.74469%, 20.837402%)" offset="0.78125"/><stop stop-opacity="1" stop-color="rgb(97.184753%, 62.428284%, 19.960022%)" offset="0.785156"/><stop stop-opacity="1" stop-color="rgb(97.30835%, 63.113403%, 19.084167%)" offset="0.789063"/><stop stop-opacity="1" stop-color="rgb(97.431946%, 63.796997%, 18.206787%)" offset="0.792969"/><stop stop-opacity="1" stop-color="rgb(97.555542%, 64.482117%, 17.329407%)" offset="0.796875"/><stop stop-opacity="1" stop-color="rgb(97.679138%, 65.16571%, 16.452026%)" offset="0.800781"/><stop stop-opacity="1" stop-color="rgb(97.802734%, 65.849304%, 15.574646%)" offset="0.804688"/><stop stop-opacity="1" stop-color="rgb(97.926331%, 66.532898%, 14.697266%)" offset="0.808594"/><stop stop-opacity="1" stop-color="rgb(98.049927%, 67.218018%, 13.821411%)" offset="0.8125"/><stop stop-opacity="1" stop-color="rgb(98.173523%, 67.901611%, 12.944031%)" offset="0.816406"/><stop stop-opacity="1" stop-color="rgb(98.297119%, 68.586731%, 12.06665%)" offset="0.820313"/><stop stop-opacity="1" stop-color="rgb(98.420715%, 69.270325%, 11.18927%)" offset="0.824219"/><stop stop-opacity="1" stop-color="rgb(98.544312%, 69.955444%, 10.313416%)" offset="0.828125"/><stop stop-opacity="1" stop-color="rgb(98.667908%, 70.639038%, 9.436035%)" offset="0.832031"/><stop stop-opacity="1" stop-color="rgb(98.79303%, 71.322632%, 8.558655%)" offset="0.835938"/><stop stop-opacity="1" stop-color="rgb(98.916626%, 72.006226%, 7.681274%)" offset="0.839844"/><stop stop-opacity="1" stop-color="rgb(99.040222%, 72.691345%, 6.803894%)" offset="0.84375"/><stop stop-opacity="1" stop-color="rgb(99.163818%, 73.374939%, 5.926514%)" offset="0.847656"/><stop stop-opacity="1" stop-color="rgb(99.287415%, 74.060059%, 5.050659%)" offset="0.851563"/><stop stop-opacity="1" stop-color="rgb(99.411011%, 74.743652%, 4.173279%)" offset="0.855469"/><stop stop-opacity="1" stop-color="rgb(99.534607%, 75.427246%, 3.295898%)" offset="0.859375"/><stop stop-opacity="1" stop-color="rgb(99.658203%, 76.11084%, 2.418518%)" offset="0.863281"/><stop stop-opacity="1" stop-color="rgb(99.781799%, 76.795959%, 1.542664%)" offset="0.867188"/><stop stop-opacity="1" stop-color="rgb(99.890137%, 77.497864%, 1.225281%)" offset="0.871094"/><stop stop-opacity="1" stop-color="rgb(100%, 78.199768%, 0.909424%)" offset="0.875"/><stop stop-opacity="1" stop-color="rgb(100%, 79.029846%, 4.685974%)" offset="0.878906"/><stop stop-opacity="1" stop-color="rgb(100%, 79.86145%, 8.46405%)" offset="0.882813"/><stop stop-opacity="1" stop-color="rgb(100%, 80.691528%, 12.240601%)" offset="0.886719"/><stop stop-opacity="1" stop-color="rgb(100%, 81.523132%, 16.018677%)" offset="0.890625"/><stop stop-opacity="1" stop-color="rgb(100%, 82.35321%, 19.795227%)" offset="0.894531"/><stop stop-opacity="1" stop-color="rgb(100%, 83.184814%, 23.571777%)" offset="0.898438"/><stop stop-opacity="1" stop-color="rgb(100%, 84.014893%, 27.348328%)" offset="0.902344"/><stop stop-opacity="1" stop-color="rgb(100%, 84.846497%, 31.126404%)" offset="0.90625"/><stop stop-opacity="1" stop-color="rgb(100%, 85.678101%, 34.902954%)" offset="0.910156"/><stop stop-opacity="1" stop-color="rgb(100%, 86.509705%, 38.68103%)" offset="0.914063"/><stop stop-opacity="1" stop-color="rgb(100%, 87.339783%, 42.457581%)" offset="0.917969"/><stop stop-opacity="1" stop-color="rgb(100%, 88.171387%, 46.234131%)" offset="0.921875"/><stop stop-opacity="1" stop-color="rgb(100%, 89.001465%, 50.010681%)" offset="0.925781"/><stop stop-opacity="1" stop-color="rgb(100%, 89.833069%, 53.788757%)" offset="0.929688"/><stop stop-opacity="1" stop-color="rgb(100%, 90.663147%, 57.565308%)" offset="0.933594"/><stop stop-opacity="1" stop-color="rgb(100%, 91.494751%, 61.343384%)" offset="0.9375"/><stop stop-opacity="1" stop-color="rgb(100%, 92.324829%, 65.119934%)" offset="0.941406"/><stop stop-opacity="1" stop-color="rgb(100%, 93.156433%, 68.89801%)" offset="0.945313"/><stop stop-opacity="1" stop-color="rgb(100%, 93.986511%, 72.674561%)" offset="0.949219"/><stop stop-opacity="1" stop-color="rgb(100%, 94.818115%, 76.451111%)" offset="0.953125"/><stop stop-opacity="1" stop-color="rgb(100%, 95.649719%, 80.227661%)" offset="0.957031"/><stop stop-opacity="1" stop-color="rgb(100%, 96.481323%, 84.005737%)" offset="0.960938"/><stop stop-opacity="1" stop-color="rgb(100%, 97.311401%, 87.782288%)" offset="0.964844"/><stop stop-opacity="1" stop-color="rgb(100%, 98.143005%, 91.560364%)" offset="0.96875"/><stop stop-opacity="1" stop-color="rgb(100%, 98.973083%, 95.336914%)" offset="0.972656"/><stop stop-opacity="1" stop-color="rgb(100%, 99.804688%, 99.113464%)" offset="0.976563"/><stop stop-opacity="1" stop-color="rgb(100%, 99.902344%, 99.555969%)" offset="0.980469"/><stop stop-opacity="1" stop-color="rgb(100%, 100%, 100%)" offset="0.984375"/><stop stop-opacity="1" stop-color="rgb(100%, 100%, 100%)" offset="1"/></linearGradient></defs><g clip-path="url(#a8345c5561)"><g clip-path="url(#9e5747fad2)"><path fill="url(#36e8e9f5e1)" d="M 0 0 L 0 397 L 397 397 L 397 0 Z M 0 0 " fill-rule="nonzero"/></g></g><path fill="#ffffff" d="M 198.5 93.410156 C 140.460938 93.410156 93.410156 140.460938 93.410156 198.5 C 93.410156 226.363281 104.253906 251.691406 121.953125 270.5 C 129.714844 255.476562 145.394531 245.207031 163.472656 245.207031 L 233.53125 245.207031 C 251.605469 245.207031 267.285156 255.476562 275.050781 270.5 C 292.746094 251.691406 303.589844 226.363281 303.589844 198.5 C 303.589844 140.460938 256.539062 93.410156 198.5 93.410156 Z M 256.210938 286.335938 C 253.714844 276.132812 244.503906 268.558594 233.53125 268.558594 L 163.472656 268.558594 C 152.496094 268.558594 143.285156 276.132812 140.789062 286.335938 C 157.351562 297.242188 177.183594 303.589844 198.5 303.589844 C 219.816406 303.589844 239.648438 297.242188 256.210938 286.335938 Z M 70.058594 198.5 C 70.058594 127.566406 127.566406 70.058594 198.5 70.058594 C 269.4375 70.058594 326.941406 127.566406 326.941406 198.5 C 326.941406 269.4375 269.4375 326.941406 198.5 326.941406 C 127.566406 326.941406 70.058594 269.4375 70.058594 198.5 Z M 198.5 140.117188 C 179.152344 140.117188 163.472656 155.800781 163.472656 175.148438 C 163.472656 194.492188 179.152344 210.175781 198.5 210.175781 C 217.847656 210.175781 233.53125 194.492188 233.53125 175.148438 C 233.53125 155.800781 217.847656 140.117188 198.5 140.117188 Z M 140.117188 175.148438 C 140.117188 142.902344 166.257812 116.765625 198.5 116.765625 C 230.742188 116.765625 256.882812 142.902344 256.882812 175.148438 C 256.882812 207.390625 230.742188 233.53125 198.5 233.53125 C 166.257812 233.53125 140.117188 207.390625 140.117188 175.148438 Z M 140.117188 175.148438 " fill-opacity="1" fill-rule="evenodd"/></svg>