<svg xmlns="http://www.w3.org/2000/svg" xmlns:xlink="http://www.w3.org/1999/xlink" width="200" zoomAndPan="magnify" viewBox="0 0 150 74.999997" height="100" preserveAspectRatio="xMidYMid meet" version="1.0"><defs><g/></defs><g fill="#ffffff" fill-opacity="1"><g transform="translate(14.849789, 48.374995)"><g><path d="M 27.828125 1.484375 C 28.035156 1.253906 28.222656 1.054688 28.390625 0.890625 C 28.566406 0.734375 28.703125 0.945312 28.796875 1.53125 C 28.816406 1.789062 28.796875 2.015625 28.734375 2.203125 C 28.679688 2.390625 28.582031 2.601562 28.4375 2.84375 C 27.820312 3.800781 27.070312 4.757812 26.1875 5.71875 C 25.300781 6.6875 24.242188 7.285156 23.015625 7.515625 C 22.554688 7.597656 22.109375 7.585938 21.671875 7.484375 C 21.234375 7.390625 20.8125 7.238281 20.40625 7.03125 C 20.34375 6.976562 20.109375 6.796875 19.703125 6.484375 C 19.296875 6.179688 18.894531 5.875 18.5 5.5625 C 18.101562 5.257812 17.90625 5.082031 17.90625 5.03125 C 17.96875 5.03125 18.03125 5.039062 18.09375 5.0625 C 18 4.976562 17.925781 4.9375 17.875 4.9375 C 17.925781 5 17.863281 4.976562 17.6875 4.875 C 17.519531 4.769531 17.40625 4.703125 17.34375 4.671875 C 17.164062 4.523438 17.007812 4.378906 16.875 4.234375 C 16.75 4.085938 16.628906 3.941406 16.515625 3.796875 C 16.285156 3.503906 16.046875 3.234375 15.796875 2.984375 C 15.546875 2.742188 15.289062 2.503906 15.03125 2.265625 C 14.96875 2.210938 14.816406 2.050781 14.578125 1.78125 C 14.347656 1.519531 14.101562 1.210938 13.84375 0.859375 C 13.582031 0.515625 13.363281 0.207031 13.1875 -0.0625 C 13.019531 -0.34375 12.976562 -0.523438 13.0625 -0.609375 C 13.09375 -0.640625 13.132812 -0.617188 13.1875 -0.546875 C 13.25 -0.472656 13.296875 -0.453125 13.328125 -0.484375 L 12.75 -1.171875 L 12.75 -1.09375 C 12.726562 -1.0625 12.578125 -1.242188 12.296875 -1.640625 C 12.023438 -2.035156 11.710938 -2.515625 11.359375 -3.078125 C 11.003906 -3.648438 10.675781 -4.164062 10.375 -4.625 C 10.070312 -5.09375 9.890625 -5.375 9.828125 -5.46875 C 9.628906 -5.8125 9.394531 -6.179688 9.125 -6.578125 C 8.863281 -6.972656 8.675781 -7.375 8.5625 -7.78125 C 8.5 -7.925781 8.539062 -8.023438 8.6875 -8.078125 C 8.664062 -8.253906 8.550781 -8.382812 8.34375 -8.46875 L 7.5625 -10 C 7.351562 -9.363281 7.210938 -8.734375 7.140625 -8.109375 C 7.066406 -7.484375 6.914062 -6.847656 6.6875 -6.203125 C 6.394531 -5.273438 6.140625 -4.347656 5.921875 -3.421875 C 5.703125 -2.503906 5.476562 -1.582031 5.25 -0.65625 L 4.71875 1.609375 C 4.65625 1.898438 4.609375 2.242188 4.578125 2.640625 C 4.554688 3.035156 4.472656 3.363281 4.328125 3.625 C 4.117188 4 3.847656 4.117188 3.515625 3.984375 C 3.179688 3.859375 2.859375 3.617188 2.546875 3.265625 C 2.242188 2.921875 2.019531 2.648438 1.875 2.453125 C 1.4375 1.867188 1.203125 1.253906 1.171875 0.609375 C 1.148438 -0.0234375 1.222656 -0.671875 1.390625 -1.328125 C 1.566406 -1.984375 1.726562 -2.617188 1.875 -3.234375 C 2.257812 -4.835938 2.738281 -6.46875 3.3125 -8.125 C 3.550781 -8.769531 3.734375 -9.410156 3.859375 -10.046875 C 3.992188 -10.691406 4.132812 -11.332031 4.28125 -11.96875 C 4.78125 -13.625 5.3125 -15.273438 5.875 -16.921875 C 6.445312 -18.566406 6.992188 -20.222656 7.515625 -21.890625 C 8.003906 -23.347656 8.503906 -24.816406 9.015625 -26.296875 C 9.523438 -27.785156 10.085938 -29.257812 10.703125 -30.71875 C 10.878906 -31.238281 11.128906 -31.832031 11.453125 -32.5 L 11.75 -33.25 C 11.695312 -33.300781 11.671875 -33.359375 11.671875 -33.421875 C 11.867188 -33.765625 12.148438 -33.957031 12.515625 -34 C 12.878906 -34.050781 13.265625 -34.007812 13.671875 -33.875 C 14.078125 -33.75 14.398438 -33.582031 14.640625 -33.375 C 15.160156 -33.03125 15.40625 -32.6875 15.375 -32.34375 C 15.34375 -32.007812 15.203125 -31.660156 14.953125 -31.296875 C 14.710938 -30.929688 14.503906 -30.546875 14.328125 -30.140625 C 14.242188 -29.941406 14.203125 -29.742188 14.203125 -29.546875 C 14.203125 -29.359375 14.171875 -29.132812 14.109375 -28.875 C 13.992188 -28.40625 13.828125 -27.945312 13.609375 -27.5 C 13.390625 -27.050781 13.207031 -26.609375 13.0625 -26.171875 C 12.832031 -25.554688 12.609375 -24.941406 12.390625 -24.328125 C 12.171875 -23.722656 11.941406 -23.097656 11.703125 -22.453125 L 10.921875 -20.484375 C 10.773438 -20.140625 10.664062 -19.804688 10.59375 -19.484375 C 10.519531 -19.160156 10.453125 -18.8125 10.390625 -18.4375 C 10.273438 -17.769531 10.054688 -17.109375 9.734375 -16.453125 C 9.421875 -15.796875 9.175781 -15.128906 9 -14.453125 C 10.070312 -15.304688 11.101562 -16.15625 12.09375 -17 C 13.09375 -17.84375 14.054688 -18.742188 14.984375 -19.703125 C 15.921875 -20.722656 16.882812 -21.707031 17.875 -22.65625 C 18.863281 -23.601562 19.804688 -24.613281 20.703125 -25.6875 C 21.546875 -26.738281 22.425781 -27.867188 23.34375 -29.078125 C 24.269531 -30.285156 24.921875 -31.53125 25.296875 -32.8125 C 25.347656 -33.039062 25.390625 -33.25 25.421875 -33.4375 C 25.453125 -33.632812 25.628906 -33.703125 25.953125 -33.640625 C 26.273438 -33.578125 26.554688 -33.367188 26.796875 -33.015625 C 27.046875 -32.671875 27.257812 -32.296875 27.4375 -31.890625 C 27.613281 -31.484375 27.726562 -31.132812 27.78125 -30.84375 L 27.78125 -30.75 C 27.925781 -29.820312 27.800781 -28.984375 27.40625 -28.234375 C 27.019531 -27.492188 26.519531 -26.757812 25.90625 -26.03125 C 25.46875 -25.539062 25.046875 -25.039062 24.640625 -24.53125 C 24.234375 -24.019531 23.78125 -23.515625 23.28125 -23.015625 C 23.050781 -22.785156 22.867188 -22.546875 22.734375 -22.296875 C 22.609375 -22.054688 22.441406 -21.800781 22.234375 -21.53125 C 22.035156 -21.269531 21.796875 -21.023438 21.515625 -20.796875 C 21.234375 -20.566406 20.976562 -20.332031 20.75 -20.09375 C 20.257812 -19.65625 19.769531 -19.195312 19.28125 -18.71875 C 18.800781 -18.238281 18.316406 -17.78125 17.828125 -17.34375 C 17.472656 -17.050781 17.15625 -16.742188 16.875 -16.421875 C 16.601562 -16.109375 16.304688 -15.789062 15.984375 -15.46875 C 15.054688 -14.625 14.035156 -13.820312 12.921875 -13.0625 C 11.816406 -12.300781 10.6875 -11.628906 9.53125 -11.046875 C 10.019531 -10.265625 10.507812 -9.492188 11 -8.734375 C 11.5 -7.984375 12.039062 -7.242188 12.625 -6.515625 C 12.445312 -6.773438 12.210938 -7.113281 11.921875 -7.53125 C 11.628906 -7.957031 11.367188 -8.359375 11.140625 -8.734375 C 11.492188 -8.265625 11.921875 -7.71875 12.421875 -7.09375 C 12.929688 -6.46875 13.445312 -5.832031 13.96875 -5.1875 C 14.5 -4.550781 14.953125 -4.007812 15.328125 -3.5625 C 15.710938 -3.113281 15.945312 -2.828125 16.03125 -2.703125 C 16.613281 -2.179688 17.179688 -1.664062 17.734375 -1.15625 C 18.285156 -0.644531 18.835938 -0.113281 19.390625 0.4375 C 19.773438 0.8125 20.1875 1.21875 20.625 1.65625 C 21.0625 2.09375 21.46875 2.441406 21.84375 2.703125 L 21.625 2.453125 C 21.625 2.421875 21.757812 2.460938 22.03125 2.578125 C 22.3125 2.691406 22.597656 2.8125 22.890625 2.9375 C 23.179688 3.070312 23.359375 3.15625 23.421875 3.1875 C 23.648438 3.25 23.875 3.304688 24.09375 3.359375 C 24.3125 3.421875 24.523438 3.4375 24.734375 3.40625 C 25.304688 3.34375 25.882812 3.109375 26.46875 2.703125 C 27.050781 2.296875 27.503906 1.890625 27.828125 1.484375 Z M 5.890625 -12.9375 L 6.109375 -13.890625 C 5.617188 -12.117188 5.101562 -10.34375 4.5625 -8.5625 C 4.019531 -6.78125 3.546875 -5.003906 3.140625 -3.234375 C 3.347656 -3.898438 3.582031 -4.578125 3.84375 -5.265625 C 4.101562 -5.953125 4.335938 -6.644531 4.546875 -7.34375 C 4.804688 -8.269531 5.035156 -9.1875 5.234375 -10.09375 C 5.441406 -11 5.648438 -11.898438 5.859375 -12.796875 C 5.859375 -12.859375 5.867188 -12.90625 5.890625 -12.9375 Z M 14.0625 -4.765625 L 13.765625 -5.0625 C 13.910156 -4.863281 14.078125 -4.660156 14.265625 -4.453125 C 14.453125 -4.253906 14.632812 -4.050781 14.8125 -3.84375 Z M 10.65625 -9.3125 C 10.507812 -9.539062 10.4375 -9.671875 10.4375 -9.703125 Z M 10.875 -9 L 10.703125 -9.21875 Z M 10.875 -9 "/></g></g></g><g fill="#ffffff" fill-opacity="1"><g transform="translate(39.876047, 48.374995)"><g><path d="M 11.453125 -10.75 C 11.535156 -10.34375 11.4375 -9.921875 11.15625 -9.484375 C 10.882812 -9.046875 10.628906 -8.679688 10.390625 -8.390625 C 10.015625 -7.835938 9.644531 -7.296875 9.28125 -6.765625 C 8.914062 -6.242188 8.53125 -5.722656 8.125 -5.203125 C 7.6875 -4.617188 7.179688 -3.945312 6.609375 -3.1875 C 6.046875 -2.425781 5.382812 -1.960938 4.625 -1.796875 C 4.507812 -1.796875 4.289062 -1.832031 3.96875 -1.90625 C 3.65625 -1.976562 3.359375 -2.0625 3.078125 -2.15625 C 2.804688 -2.257812 2.671875 -2.359375 2.671875 -2.453125 L 2.75 -2.453125 C 2.570312 -2.535156 2.503906 -2.53125 2.546875 -2.4375 C 2.597656 -2.351562 2.492188 -2.414062 2.234375 -2.625 C 2.023438 -2.769531 1.851562 -2.925781 1.71875 -3.09375 C 1.59375 -3.269531 1.457031 -3.460938 1.3125 -3.671875 C 1.082031 -3.992188 0.832031 -4.3125 0.5625 -4.625 C 0.300781 -4.945312 0.128906 -5.296875 0.046875 -5.671875 C 0.046875 -5.765625 0.0351562 -5.957031 0.015625 -6.25 C 0.00390625 -6.539062 0.015625 -6.816406 0.046875 -7.078125 C 0.078125 -7.335938 0.148438 -7.46875 0.265625 -7.46875 C 0.316406 -7.46875 0.328125 -7.429688 0.296875 -7.359375 C 0.273438 -7.285156 0.28125 -7.25 0.3125 -7.25 L 0.4375 -8.03125 C 0.375 -7.945312 0.332031 -7.890625 0.3125 -7.859375 C 0.28125 -7.859375 0.289062 -8.019531 0.34375 -8.34375 C 0.40625 -8.664062 0.488281 -9.046875 0.59375 -9.484375 C 0.695312 -9.921875 0.789062 -10.3125 0.875 -10.65625 C 0.957031 -11.007812 1.015625 -11.210938 1.046875 -11.265625 C 1.222656 -11.734375 1.390625 -12.203125 1.546875 -12.671875 C 1.710938 -13.140625 2.015625 -13.503906 2.453125 -13.765625 C 2.765625 -13.992188 3.125 -14.09375 3.53125 -14.0625 C 3.945312 -14.039062 4.359375 -13.941406 4.765625 -13.765625 C 4.941406 -13.703125 5.207031 -13.578125 5.5625 -13.390625 C 5.925781 -13.203125 6.109375 -12.988281 6.109375 -12.75 C 6.109375 -12.632812 6.066406 -12.546875 5.984375 -12.484375 C 5.898438 -12.429688 5.828125 -12.375 5.765625 -12.3125 C 5.796875 -12.34375 5.851562 -12.359375 5.9375 -12.359375 C 6 -12.328125 5.925781 -12.148438 5.71875 -11.828125 C 5.519531 -11.515625 5.390625 -11.375 5.328125 -11.40625 C 5.296875 -11.40625 5.296875 -11.445312 5.328125 -11.53125 C 5.359375 -11.625 5.390625 -11.695312 5.421875 -11.75 C 4.597656 -10.414062 3.910156 -8.945312 3.359375 -7.34375 C 3.453125 -7.539062 3.597656 -7.878906 3.796875 -8.359375 C 4.003906 -8.847656 4.21875 -9.300781 4.4375 -9.71875 C 4.65625 -10.144531 4.78125 -10.34375 4.8125 -10.3125 C 4.832031 -10.3125 4.753906 -10.128906 4.578125 -9.765625 C 4.410156 -9.398438 4.203125 -8.941406 3.953125 -8.390625 C 3.703125 -7.835938 3.484375 -7.273438 3.296875 -6.703125 C 3.109375 -6.140625 3.003906 -5.628906 2.984375 -5.171875 C 2.972656 -4.722656 3.113281 -4.425781 3.40625 -4.28125 C 3.632812 -4.164062 3.898438 -4.179688 4.203125 -4.328125 C 4.515625 -4.472656 4.816406 -4.660156 5.109375 -4.890625 C 5.398438 -5.128906 5.617188 -5.304688 5.765625 -5.421875 C 6.171875 -5.734375 6.628906 -6.085938 7.140625 -6.484375 C 7.648438 -6.878906 8.050781 -7.265625 8.34375 -7.640625 C 8.28125 -7.585938 8.175781 -7.5625 8.03125 -7.5625 C 8.007812 -7.613281 8.09375 -7.800781 8.28125 -8.125 C 8.46875 -8.445312 8.710938 -8.8125 9.015625 -9.21875 C 9.328125 -9.625 9.617188 -9.992188 9.890625 -10.328125 C 10.171875 -10.660156 10.351562 -10.859375 10.4375 -10.921875 C 10.582031 -11.035156 10.78125 -11.109375 11.03125 -11.140625 C 11.28125 -11.171875 11.421875 -11.039062 11.453125 -10.75 Z M 3.796875 -16.25 C 3.796875 -16.25 3.75 -16.3125 3.65625 -16.4375 C 3.570312 -16.570312 3.53125 -16.65625 3.53125 -16.6875 C 3.53125 -16.75 3.523438 -16.894531 3.515625 -17.125 C 3.503906 -17.351562 3.519531 -17.570312 3.5625 -17.78125 C 3.601562 -17.988281 3.695312 -18.046875 3.84375 -17.953125 C 3.84375 -18.015625 3.921875 -18.140625 4.078125 -18.328125 C 4.242188 -18.515625 4.253906 -18.460938 4.109375 -18.171875 C 4.484375 -18.671875 4.832031 -19.269531 5.15625 -19.96875 L 4.625 -19.171875 C 4.832031 -19.585938 5.050781 -20.109375 5.28125 -20.734375 C 5.519531 -21.359375 5.648438 -21.742188 5.671875 -21.890625 C 5.671875 -21.921875 5.664062 -22.007812 5.65625 -22.15625 C 5.644531 -22.300781 5.648438 -22.382812 5.671875 -22.40625 C 5.210938 -22.582031 5.066406 -22.785156 5.234375 -23.015625 C 5.410156 -23.253906 5.601562 -23.445312 5.8125 -23.59375 C 5.71875 -23.59375 5.660156 -23.617188 5.640625 -23.671875 C 5.546875 -23.765625 5.585938 -23.835938 5.765625 -23.890625 C 5.941406 -23.953125 6.054688 -24 6.109375 -24.03125 C 6.429688 -24.175781 6.765625 -24.21875 7.109375 -24.15625 C 7.460938 -24.101562 7.785156 -24.003906 8.078125 -23.859375 C 8.316406 -23.710938 8.535156 -23.492188 8.734375 -23.203125 C 8.941406 -22.910156 9.085938 -22.632812 9.171875 -22.375 C 9.265625 -22.082031 9.226562 -21.789062 9.0625 -21.5 C 8.90625 -21.207031 8.722656 -20.972656 8.515625 -20.796875 C 8.429688 -20.710938 8.320312 -20.632812 8.1875 -20.5625 C 8.0625 -20.488281 7.9375 -20.40625 7.8125 -20.3125 C 7.695312 -20.164062 7.625 -20 7.59375 -19.8125 C 7.570312 -19.625 7.503906 -19.457031 7.390625 -19.3125 C 7.328125 -19.195312 7.238281 -19.109375 7.125 -19.046875 C 7.007812 -18.984375 6.921875 -18.894531 6.859375 -18.78125 C 6.679688 -18.664062 6.664062 -18.535156 6.8125 -18.390625 C 6.632812 -18.304688 6.488281 -18.207031 6.375 -18.09375 C 6.175781 -17.738281 5.988281 -17.453125 5.8125 -17.234375 C 5.632812 -17.015625 5.414062 -16.800781 5.15625 -16.59375 C 5.382812 -16.738281 5.59375 -16.890625 5.78125 -17.046875 C 5.976562 -17.210938 6.175781 -17.441406 6.375 -17.734375 C 6.726562 -18.171875 7.148438 -18.492188 7.640625 -18.703125 C 7.441406 -18.460938 7.28125 -18.210938 7.15625 -17.953125 C 7.039062 -17.691406 6.851562 -17.472656 6.59375 -17.296875 C 6.414062 -17.210938 6.320312 -17.191406 6.3125 -17.234375 C 6.300781 -17.273438 6.296875 -17.300781 6.296875 -17.3125 C 6.296875 -17.332031 6.191406 -17.253906 5.984375 -17.078125 C 5.984375 -17.078125 6.019531 -17.082031 6.09375 -17.09375 C 6.164062 -17.113281 6.171875 -17.09375 6.109375 -17.03125 C 5.910156 -16.863281 5.707031 -16.660156 5.5 -16.421875 C 5.300781 -16.191406 5.070312 -16.019531 4.8125 -15.90625 C 4.6875 -15.875 4.566406 -15.828125 4.453125 -15.765625 C 4.335938 -15.710938 4.207031 -15.710938 4.0625 -15.765625 C 3.914062 -15.859375 3.847656 -15.945312 3.859375 -16.03125 C 3.878906 -16.125 3.859375 -16.195312 3.796875 -16.25 Z M 2.96875 -5.859375 C 3 -5.910156 3 -5.921875 2.96875 -5.890625 L 2.890625 -5.546875 L 2.96875 -5.8125 Z M 4.40625 -18.828125 L 4.59375 -19.09375 C 4.5625 -19 4.519531 -18.929688 4.46875 -18.890625 C 4.425781 -18.847656 4.40625 -18.828125 4.40625 -18.828125 Z M 3.96875 -18 C 3.945312 -17.96875 3.921875 -17.953125 3.890625 -17.953125 C 3.921875 -17.953125 3.9375 -17.941406 3.9375 -17.921875 C 3.9375 -17.910156 3.9375 -17.90625 3.9375 -17.90625 C 3.957031 -17.9375 3.96875 -17.96875 3.96875 -18 Z M 3.96875 -18 "/></g></g></g><g fill="#ffffff" fill-opacity="1"><g transform="translate(48.130784, 48.374995)"><g><path d="M 17.734375 -22.71875 L 17.734375 -22.671875 C 17.765625 -22.378906 17.632812 -22.113281 17.34375 -21.875 C 17.050781 -21.644531 16.773438 -21.503906 16.515625 -21.453125 C 16.222656 -21.359375 15.921875 -21.363281 15.609375 -21.46875 C 15.304688 -21.570312 15.023438 -21.59375 14.765625 -21.53125 C 14.617188 -21.507812 14.535156 -21.46875 14.515625 -21.40625 C 14.503906 -21.34375 14.425781 -21.285156 14.28125 -21.234375 C 14.082031 -21.171875 13.875 -21.140625 13.65625 -21.140625 C 13.4375 -21.140625 13.222656 -21.140625 13.015625 -21.140625 C 12.722656 -21.140625 12.328125 -21.175781 11.828125 -21.25 C 11.335938 -21.320312 10.976562 -21.285156 10.75 -21.140625 C 10.65625 -21.109375 10.566406 -21.019531 10.484375 -20.875 L 10.609375 -21.140625 C 10.492188 -21.109375 10.332031 -20.867188 10.125 -20.421875 C 9.925781 -19.972656 9.753906 -19.546875 9.609375 -19.140625 L 10.09375 -20.09375 L 9.484375 -18.4375 C 9.273438 -17.96875 9.066406 -17.5 8.859375 -17.03125 C 8.660156 -16.570312 8.457031 -16.109375 8.25 -15.640625 C 7.875 -14.734375 7.503906 -13.820312 7.140625 -12.90625 C 6.773438 -11.988281 6.421875 -11.066406 6.078125 -10.140625 C 5.492188 -8.453125 4.921875 -6.71875 4.359375 -4.9375 C 3.804688 -3.15625 3.328125 -1.378906 2.921875 0.390625 C 2.898438 0.597656 2.820312 0.957031 2.6875 1.46875 C 2.550781 1.976562 2.484375 2.476562 2.484375 2.96875 C 2.484375 3.46875 2.617188 3.773438 2.890625 3.890625 C 2.941406 3.921875 3.128906 3.851562 3.453125 3.6875 C 3.773438 3.53125 3.921875 3.46875 3.890625 3.5 C 4.003906 3.375 4.117188 3.253906 4.234375 3.140625 C 4.347656 3.023438 4.46875 2.910156 4.59375 2.796875 C 4.5 2.859375 4.363281 2.953125 4.1875 3.078125 C 4.019531 3.210938 3.9375 3.265625 3.9375 3.234375 C 3.9375 3.148438 4.019531 3.007812 4.1875 2.8125 C 4.363281 2.625 4.550781 2.4375 4.75 2.25 C 4.957031 2.0625 5.09375 1.9375 5.15625 1.875 C 5.382812 1.644531 5.59375 1.410156 5.78125 1.171875 C 5.976562 0.941406 6.175781 0.726562 6.375 0.53125 L 8.90625 -2.578125 C 9.695312 -3.566406 10.46875 -4.554688 11.21875 -5.546875 C 11.976562 -6.535156 12.753906 -7.523438 13.546875 -8.515625 C 13.660156 -8.660156 13.8125 -8.894531 14 -9.21875 C 14.1875 -9.539062 14.394531 -9.847656 14.625 -10.140625 C 14.863281 -10.429688 15.070312 -10.585938 15.25 -10.609375 C 15.59375 -10.671875 15.804688 -10.570312 15.890625 -10.3125 C 15.984375 -10.050781 15.972656 -9.773438 15.859375 -9.484375 C 15.648438 -8.898438 15.3125 -8.351562 14.84375 -7.84375 C 14.382812 -7.332031 13.992188 -6.816406 13.671875 -6.296875 C 13.117188 -5.390625 12.53125 -4.5 11.90625 -3.625 C 11.28125 -2.75 10.644531 -1.875 10 -1 C 9.300781 -0.0703125 8.59375 0.851562 7.875 1.78125 C 7.164062 2.71875 6.429688 3.640625 5.671875 4.546875 C 5.328125 4.984375 4.925781 5.460938 4.46875 5.984375 C 4.019531 6.503906 3.519531 6.898438 2.96875 7.171875 C 2.5625 7.367188 2.109375 7.378906 1.609375 7.203125 C 1.117188 7.035156 0.695312 6.816406 0.34375 6.546875 C -0.03125 6.285156 -0.332031 5.96875 -0.5625 5.59375 C -0.800781 5.21875 -0.960938 4.8125 -1.046875 4.375 C -1.078125 4.226562 -1.117188 3.898438 -1.171875 3.390625 C -1.234375 2.878906 -1.207031 2.550781 -1.09375 2.40625 L -1.09375 3.0625 L -1 2.1875 C -1.03125 2.269531 -1.050781 2.21875 -1.0625 2.03125 C -1.082031 1.84375 -1.09375 1.734375 -1.09375 1.703125 C -1.09375 1.523438 -1.070312 1.34375 -1.03125 1.15625 C -0.988281 0.96875 -0.953125 0.785156 -0.921875 0.609375 C -0.859375 0.265625 -0.789062 -0.0703125 -0.71875 -0.40625 C -0.644531 -0.75 -0.566406 -1.09375 -0.484375 -1.4375 C -0.335938 -2.113281 -0.175781 -2.789062 0 -3.46875 C 0.175781 -4.15625 0.320312 -4.847656 0.4375 -5.546875 C 0.550781 -6.242188 0.71875 -6.925781 0.9375 -7.59375 C 1.15625 -8.269531 1.367188 -8.925781 1.578125 -9.5625 C 1.597656 -9.65625 1.6875 -9.929688 1.84375 -10.390625 C 2.007812 -10.859375 2.1875 -11.316406 2.375 -11.765625 C 2.570312 -12.222656 2.695312 -12.453125 2.75 -12.453125 C 2.78125 -12.453125 2.773438 -12.363281 2.734375 -12.1875 C 2.691406 -12.007812 2.671875 -11.910156 2.671875 -11.890625 C 2.753906 -12.203125 2.851562 -12.523438 2.96875 -12.859375 C 3.082031 -13.203125 3.195312 -13.53125 3.3125 -13.84375 C 3.289062 -13.726562 3.25 -13.632812 3.1875 -13.5625 C 3.132812 -13.488281 3.109375 -13.46875 3.109375 -13.5 C 3.109375 -13.757812 3.207031 -14.085938 3.40625 -14.484375 C 3.613281 -14.878906 3.757812 -15.191406 3.84375 -15.421875 L 4.375 -16.953125 C 4.601562 -17.648438 4.847656 -18.347656 5.109375 -19.046875 C 5.367188 -19.742188 5.644531 -20.414062 5.9375 -21.0625 C 5.332031 -21.03125 4.738281 -21.015625 4.15625 -21.015625 C 3.570312 -21.015625 2.988281 -20.957031 2.40625 -20.84375 C 1.582031 -20.695312 0.6875 -20.644531 -0.28125 -20.6875 C -1.257812 -20.726562 -2.171875 -20.804688 -3.015625 -20.921875 C -3.128906 -20.953125 -3.351562 -20.992188 -3.6875 -21.046875 C -4.019531 -21.109375 -4.128906 -21.257812 -4.015625 -21.5 C -3.960938 -21.550781 -3.765625 -21.617188 -3.421875 -21.703125 C -3.085938 -21.796875 -2.878906 -21.859375 -2.796875 -21.890625 C -2.390625 -22.035156 -1.96875 -22.117188 -1.53125 -22.140625 C -1.09375 -22.171875 -0.65625 -22.203125 -0.21875 -22.234375 C 0.625 -22.328125 1.46875 -22.375 2.3125 -22.375 C 3.15625 -22.375 4 -22.429688 4.84375 -22.546875 C 5.082031 -22.578125 5.351562 -22.578125 5.65625 -22.546875 C 5.957031 -22.515625 6.210938 -22.539062 6.421875 -22.625 C 6.628906 -22.6875 6.753906 -22.789062 6.796875 -22.9375 C 6.835938 -23.082031 6.898438 -23.253906 6.984375 -23.453125 C 7.128906 -23.867188 7.289062 -24.265625 7.46875 -24.640625 C 7.644531 -25.015625 7.820312 -25.394531 8 -25.78125 C 8.195312 -26.1875 8.390625 -26.597656 8.578125 -27.015625 C 8.773438 -27.441406 9.003906 -27.84375 9.265625 -28.21875 C 9.441406 -28.457031 9.613281 -28.640625 9.78125 -28.765625 C 9.957031 -28.898438 10.101562 -29.097656 10.21875 -29.359375 C 10.476562 -29.941406 10.769531 -30.523438 11.09375 -31.109375 C 11.414062 -31.691406 11.78125 -32.226562 12.1875 -32.71875 C 12.625 -33.300781 13.191406 -33.65625 13.890625 -33.78125 C 14.585938 -33.914062 15.273438 -33.910156 15.953125 -33.765625 C 16.265625 -33.710938 16.585938 -33.578125 16.921875 -33.359375 C 17.265625 -33.140625 17.363281 -32.8125 17.21875 -32.375 C 17.15625 -32.195312 17.035156 -32.050781 16.859375 -31.9375 C 16.679688 -31.820312 16.523438 -31.691406 16.390625 -31.546875 C 16.390625 -31.515625 16.453125 -31.5625 16.578125 -31.6875 C 16.710938 -31.820312 16.78125 -31.847656 16.78125 -31.765625 C 16.78125 -31.671875 16.632812 -31.410156 16.34375 -30.984375 C 16.050781 -30.566406 15.765625 -30.175781 15.484375 -29.8125 C 15.210938 -29.445312 15.046875 -29.265625 14.984375 -29.265625 C 14.984375 -29.265625 15.035156 -29.359375 15.140625 -29.546875 C 15.242188 -29.742188 15.351562 -29.9375 15.46875 -30.125 C 15.582031 -30.3125 15.640625 -30.421875 15.640625 -30.453125 C 14.828125 -29.222656 14.0625 -27.953125 13.34375 -26.640625 C 12.632812 -25.335938 11.941406 -24.015625 11.265625 -22.671875 C 11.390625 -22.671875 11.535156 -22.832031 11.703125 -23.15625 C 11.554688 -22.863281 11.484375 -22.703125 11.484375 -22.671875 C 12.328125 -22.734375 13.1875 -22.769531 14.0625 -22.78125 C 14.9375 -22.800781 15.8125 -22.820312 16.6875 -22.84375 C 16.863281 -22.84375 17.070312 -22.898438 17.3125 -23.015625 C 17.5625 -23.140625 17.703125 -23.039062 17.734375 -22.71875 Z M 9.4375 -20.1875 C 10.3125 -22.050781 11.1875 -23.914062 12.0625 -25.78125 C 12.9375 -27.644531 13.953125 -29.421875 15.109375 -31.109375 C 13.367188 -28.628906 11.882812 -25.984375 10.65625 -23.171875 C 9.4375 -20.359375 8.210938 -17.585938 6.984375 -14.859375 C 5.535156 -11.617188 4.328125 -8.328125 3.359375 -4.984375 C 3.160156 -4.222656 2.960938 -3.457031 2.765625 -2.6875 C 2.578125 -1.914062 2.410156 -1.132812 2.265625 -0.34375 L 2.484375 -1.171875 C 2.722656 -2.191406 3.007812 -3.210938 3.34375 -4.234375 C 3.675781 -5.253906 4.03125 -6.257812 4.40625 -7.25 C 5.195312 -9.40625 5.984375 -11.582031 6.765625 -13.78125 C 7.554688 -15.976562 8.445312 -18.113281 9.4375 -20.1875 Z M 12.3125 -24.515625 C 12.550781 -25.003906 12.753906 -25.453125 12.921875 -25.859375 C 13.097656 -26.265625 13.25 -26.484375 13.375 -26.515625 Z M 7.8125 -14.984375 C 7.8125 -15.046875 7.828125 -15.101562 7.859375 -15.15625 C 7.660156 -14.71875 7.476562 -14.28125 7.3125 -13.84375 C 7.15625 -13.40625 6.988281 -12.984375 6.8125 -12.578125 C 6.988281 -12.984375 7.164062 -13.382812 7.34375 -13.78125 C 7.519531 -14.175781 7.675781 -14.578125 7.8125 -14.984375 Z M 11.75 -23.234375 C 11.8125 -23.378906 11.882812 -23.53125 11.96875 -23.6875 C 12.050781 -23.851562 12.125 -24.023438 12.1875 -24.203125 Z M 2.234375 4.28125 L 2.09375 4.1875 C 2.15625 4.25 2.203125 4.28125 2.234375 4.28125 Z M 2.234375 4.28125 "/></g></g></g><g fill="#ffffff" fill-opacity="1"><g transform="translate(61.539264, 48.374995)"><g><path d="M 15.8125 -8.078125 C 15.4375 -7.617188 15.066406 -7.144531 14.703125 -6.65625 C 14.335938 -6.175781 13.992188 -5.691406 13.671875 -5.203125 C 12.859375 -4.035156 11.941406 -2.894531 10.921875 -1.78125 C 9.898438 -0.675781 8.835938 0.335938 7.734375 1.265625 C 7.085938 1.785156 6.363281 2.25 5.5625 2.65625 C 4.769531 3.070312 3.9375 3.222656 3.0625 3.109375 C 2.800781 3.046875 2.546875 2.96875 2.296875 2.875 C 2.046875 2.789062 1.832031 2.648438 1.65625 2.453125 C 1.570312 2.359375 1.410156 2.144531 1.171875 1.8125 C 0.941406 1.476562 0.742188 1.148438 0.578125 0.828125 C 0.421875 0.503906 0.375 0.300781 0.4375 0.21875 C 0.4375 0.21875 0.460938 0.289062 0.515625 0.4375 C 0.578125 0.582031 0.625 0.671875 0.65625 0.703125 L 0.4375 -0.046875 C 0.4375 0.0664062 0.378906 -0.0195312 0.265625 -0.3125 C 0.148438 -0.601562 0.09375 -0.789062 0.09375 -0.875 C 0.0625 -1.164062 0.0351562 -1.457031 0.015625 -1.75 C 0.00390625 -2.039062 0 -2.332031 0 -2.625 C 0.03125 -3.175781 0.0703125 -3.710938 0.125 -4.234375 C 0.1875 -4.765625 0.234375 -5.289062 0.265625 -5.8125 C 0.296875 -6.300781 0.359375 -6.769531 0.453125 -7.21875 C 0.554688 -7.675781 0.679688 -8.140625 0.828125 -8.609375 C 0.859375 -8.691406 0.9375 -8.941406 1.0625 -9.359375 C 1.195312 -9.785156 1.351562 -10.203125 1.53125 -10.609375 C 1.707031 -11.023438 1.835938 -11.21875 1.921875 -11.1875 C 1.953125 -11.1875 1.941406 -11.117188 1.890625 -10.984375 C 1.847656 -10.859375 1.84375 -10.796875 1.875 -10.796875 C 1.96875 -11.023438 2.050781 -11.253906 2.125 -11.484375 C 2.195312 -11.722656 2.289062 -11.957031 2.40625 -12.1875 L 2.234375 -11.96875 C 2.234375 -11.96875 2.304688 -12.132812 2.453125 -12.46875 C 2.597656 -12.800781 2.773438 -13.1875 2.984375 -13.625 C 3.203125 -14.0625 3.40625 -14.460938 3.59375 -14.828125 C 3.789062 -15.191406 3.90625 -15.421875 3.9375 -15.515625 C 4.28125 -16.097656 4.660156 -16.632812 5.078125 -17.125 C 5.503906 -17.625 5.992188 -18.0625 6.546875 -18.4375 C 6.929688 -18.726562 7.34375 -18.953125 7.78125 -19.109375 C 8.21875 -19.273438 8.664062 -19.328125 9.125 -19.265625 C 9.707031 -19.179688 10.132812 -19 10.40625 -18.71875 C 10.6875 -18.445312 10.929688 -18.078125 11.140625 -17.609375 C 11.347656 -17.171875 11.515625 -16.757812 11.640625 -16.375 C 11.773438 -16 11.8125 -15.519531 11.75 -14.9375 C 11.71875 -14.613281 11.671875 -14.25 11.609375 -13.84375 C 11.554688 -13.4375 11.457031 -13.070312 11.3125 -12.75 C 11.164062 -12.457031 10.820312 -12.164062 10.28125 -11.875 C 9.75 -11.59375 9.304688 -11.566406 8.953125 -11.796875 C 8.660156 -11.992188 8.570312 -12.164062 8.6875 -12.3125 C 8.8125 -12.457031 8.929688 -12.617188 9.046875 -12.796875 L 8.828125 -12.625 C 8.828125 -12.625 8.875 -12.8125 8.96875 -13.1875 C 9.070312 -13.570312 9.179688 -13.945312 9.296875 -14.3125 C 9.421875 -14.675781 9.5 -14.859375 9.53125 -14.859375 C 9.550781 -14.859375 9.53125 -14.695312 9.46875 -14.375 C 9.414062 -14.050781 9.390625 -13.875 9.390625 -13.84375 C 9.453125 -13.988281 9.507812 -14.285156 9.5625 -14.734375 C 9.625 -15.191406 9.65625 -15.660156 9.65625 -16.140625 C 9.65625 -16.617188 9.582031 -16.972656 9.4375 -17.203125 C 9.289062 -17.441406 9.03125 -17.414062 8.65625 -17.125 C 8.363281 -16.914062 8.117188 -16.613281 7.921875 -16.21875 C 7.734375 -15.832031 7.566406 -15.492188 7.421875 -15.203125 C 7.160156 -14.648438 6.921875 -14.101562 6.703125 -13.5625 C 6.484375 -13.019531 6.273438 -12.472656 6.078125 -11.921875 C 6.335938 -12.617188 6.625 -13.3125 6.9375 -14 C 7.257812 -14.6875 7.613281 -15.347656 8 -15.984375 C 8.144531 -16.222656 8.296875 -16.460938 8.453125 -16.703125 C 8.609375 -16.953125 8.804688 -17.132812 9.046875 -17.25 C 9.078125 -17.28125 9.148438 -17.273438 9.265625 -17.234375 C 9.378906 -17.191406 9.40625 -17.15625 9.34375 -17.125 C 9.320312 -17.09375 9.28125 -17.101562 9.21875 -17.15625 C 9.15625 -17.21875 9.097656 -17.222656 9.046875 -17.171875 C 8.546875 -16.703125 8.132812 -16.160156 7.8125 -15.546875 C 7.5 -14.941406 7.195312 -14.316406 6.90625 -13.671875 C 6.320312 -12.304688 5.796875 -10.898438 5.328125 -9.453125 C 4.859375 -8.015625 4.507812 -6.566406 4.28125 -5.109375 C 4.164062 -4.410156 4.078125 -3.675781 4.015625 -2.90625 C 3.960938 -2.132812 4.007812 -1.414062 4.15625 -0.75 C 4.207031 -0.601562 4.257812 -0.429688 4.3125 -0.234375 C 4.375 -0.046875 4.476562 0.0859375 4.625 0.171875 C 5.007812 0.429688 5.457031 0.398438 5.96875 0.078125 C 6.476562 -0.234375 6.878906 -0.492188 7.171875 -0.703125 C 7.628906 -1.046875 8.09375 -1.398438 8.5625 -1.765625 C 9.03125 -2.128906 9.453125 -2.503906 9.828125 -2.890625 C 9.648438 -2.765625 9.519531 -2.691406 9.4375 -2.671875 C 9.40625 -2.671875 9.453125 -2.753906 9.578125 -2.921875 C 9.710938 -3.097656 9.851562 -3.28125 10 -3.46875 C 10.144531 -3.65625 10.234375 -3.765625 10.265625 -3.796875 C 10.492188 -4.035156 10.703125 -4.269531 10.890625 -4.5 C 11.085938 -4.726562 11.285156 -4.960938 11.484375 -5.203125 C 11.835938 -5.640625 12.195312 -6.078125 12.5625 -6.515625 C 12.925781 -6.953125 13.28125 -7.398438 13.625 -7.859375 C 13.71875 -7.972656 13.910156 -8.234375 14.203125 -8.640625 C 14.492188 -9.054688 14.820312 -9.488281 15.1875 -9.9375 C 15.550781 -10.382812 15.910156 -10.738281 16.265625 -11 C 16.628906 -11.269531 16.914062 -11.285156 17.125 -11.046875 C 17.351562 -10.816406 17.375 -10.5 17.1875 -10.09375 C 17 -9.6875 16.757812 -9.300781 16.46875 -8.9375 C 16.175781 -8.570312 15.957031 -8.285156 15.8125 -8.078125 Z M 3.015625 -11.265625 C 3.015625 -11.296875 3.019531 -11.332031 3.03125 -11.375 C 3.050781 -11.425781 3.0625 -11.460938 3.0625 -11.484375 C 2.882812 -11.078125 2.6875 -10.6875 2.46875 -10.3125 C 2.25 -9.9375 2.109375 -9.554688 2.046875 -9.171875 C 2.078125 -9.285156 2.164062 -9.410156 2.3125 -9.546875 C 2.457031 -9.679688 2.5625 -9.816406 2.625 -9.953125 C 2.707031 -10.160156 2.785156 -10.378906 2.859375 -10.609375 C 2.929688 -10.847656 2.984375 -11.066406 3.015625 -11.265625 Z M 1.390625 -6.15625 C 1.453125 -6.21875 1.460938 -6.273438 1.421875 -6.328125 C 1.378906 -6.390625 1.359375 -6.421875 1.359375 -6.421875 C 1.265625 -6.160156 1.207031 -5.890625 1.1875 -5.609375 C 1.175781 -5.335938 1.1875 -5.070312 1.21875 -4.8125 C 1.21875 -5.039062 1.222656 -5.285156 1.234375 -5.546875 C 1.253906 -5.804688 1.304688 -6.007812 1.390625 -6.15625 Z M 4.546875 -7.203125 L 5.15625 -9.3125 C 5.039062 -8.957031 4.929688 -8.601562 4.828125 -8.25 C 4.722656 -7.90625 4.628906 -7.554688 4.546875 -7.203125 Z M 1.484375 -6.984375 L 1.578125 -7.125 C 1.453125 -7.09375 1.382812 -7.023438 1.375 -6.921875 C 1.363281 -6.816406 1.359375 -6.707031 1.359375 -6.59375 C 1.359375 -6.65625 1.367188 -6.722656 1.390625 -6.796875 C 1.421875 -6.867188 1.453125 -6.929688 1.484375 -6.984375 Z M 5.328125 -9.828125 L 5.328125 -10 C 5.296875 -9.945312 5.28125 -9.863281 5.28125 -9.75 C 5.28125 -9.769531 5.296875 -9.796875 5.328125 -9.828125 Z M 5.328125 -9.828125 "/></g></g></g><g fill="#ffffff" fill-opacity="1"><g transform="translate(75.602884, 48.374995)"><g><path d="M 21.671875 -10.75 C 21.722656 -10.75 21.820312 -10.710938 21.96875 -10.640625 C 22.113281 -10.566406 22.113281 -10.515625 21.96875 -10.484375 C 22.03125 -10.515625 21.972656 -10.328125 21.796875 -9.921875 C 21.617188 -9.515625 21.421875 -9.09375 21.203125 -8.65625 C 20.984375 -8.21875 20.847656 -7.953125 20.796875 -7.859375 C 20.472656 -7.335938 20.132812 -6.8125 19.78125 -6.28125 C 19.4375 -5.757812 19.085938 -5.253906 18.734375 -4.765625 C 18.097656 -3.796875 17.46875 -2.796875 16.84375 -1.765625 C 16.21875 -0.734375 15.484375 0.1875 14.640625 1 C 14.347656 1.289062 14.0625 1.507812 13.78125 1.65625 C 13.507812 1.800781 13.164062 1.859375 12.75 1.828125 C 12.257812 1.804688 11.832031 1.691406 11.46875 1.484375 C 11.101562 1.273438 10.757812 1.015625 10.4375 0.703125 C 10.40625 0.640625 10.28125 0.515625 10.0625 0.328125 C 9.851562 0.140625 9.660156 -0.0625 9.484375 -0.28125 C 9.304688 -0.5 9.234375 -0.65625 9.265625 -0.75 L 9.53125 -0.34375 C 9.40625 -0.519531 9.300781 -0.753906 9.21875 -1.046875 L 9.21875 -0.875 C 9.1875 -0.84375 9.125 -0.953125 9.03125 -1.203125 C 8.945312 -1.453125 8.875 -1.710938 8.8125 -1.984375 C 8.757812 -2.265625 8.734375 -2.429688 8.734375 -2.484375 C 8.703125 -2.804688 8.71875 -3.132812 8.78125 -3.46875 C 8.84375 -3.800781 8.898438 -4.128906 8.953125 -4.453125 C 9.097656 -4.984375 9.25 -5.507812 9.40625 -6.03125 C 9.570312 -6.550781 9.710938 -7.078125 9.828125 -7.609375 C 9.972656 -8.160156 10.175781 -8.695312 10.4375 -9.21875 C 10.695312 -9.738281 10.960938 -10.265625 11.234375 -10.796875 C 11.253906 -10.847656 11.34375 -11.023438 11.5 -11.328125 C 11.664062 -11.640625 11.828125 -11.941406 11.984375 -12.234375 C 12.148438 -12.523438 12.257812 -12.671875 12.3125 -12.671875 C 12.3125 -12.640625 12.28125 -12.554688 12.21875 -12.421875 C 12.164062 -12.296875 12.15625 -12.21875 12.1875 -12.1875 L 12.84375 -13.671875 L 12.71875 -13.546875 L 13.984375 -16.59375 C 13.160156 -15.957031 12.421875 -15.21875 11.765625 -14.375 C 11.117188 -13.53125 10.472656 -12.710938 9.828125 -11.921875 C 9.535156 -11.546875 9.234375 -11.15625 8.921875 -10.75 C 8.617188 -10.34375 8.28125 -9.976562 7.90625 -9.65625 C 7.789062 -9.539062 7.695312 -9.488281 7.625 -9.5 C 7.550781 -9.519531 7.457031 -9.457031 7.34375 -9.3125 C 7.25 -9.1875 7.164062 -9.054688 7.09375 -8.921875 C 7.019531 -8.796875 6.957031 -8.660156 6.90625 -8.515625 C 6.40625 -7.703125 5.859375 -6.910156 5.265625 -6.140625 C 4.671875 -5.367188 4.109375 -4.570312 3.578125 -3.75 L 2.796875 -2.359375 C 2.765625 -2.242188 2.734375 -2.148438 2.703125 -2.078125 C 2.679688 -2.003906 2.625 -1.910156 2.53125 -1.796875 C 2.238281 -1.503906 1.878906 -1.394531 1.453125 -1.46875 C 1.035156 -1.539062 0.710938 -1.722656 0.484375 -2.015625 C 0.273438 -2.242188 0.148438 -2.492188 0.109375 -2.765625 C 0.0664062 -3.046875 0.046875 -3.316406 0.046875 -3.578125 C -0.046875 -4.546875 -0.015625 -5.53125 0.140625 -6.53125 C 0.304688 -7.53125 0.476562 -8.5 0.65625 -9.4375 C 1.03125 -11.5 1.472656 -13.550781 1.984375 -15.59375 C 2.492188 -17.632812 3.082031 -19.644531 3.75 -21.625 C 4.332031 -23.40625 5.046875 -25.109375 5.890625 -26.734375 C 6.742188 -28.367188 7.59375 -30.015625 8.4375 -31.671875 C 8.4375 -31.703125 8.476562 -31.875 8.5625 -32.1875 C 8.644531 -32.507812 8.75 -32.703125 8.875 -32.765625 C 8.84375 -32.734375 8.78125 -32.585938 8.6875 -32.328125 C 8.601562 -32.066406 8.5625 -31.9375 8.5625 -31.9375 L 9.09375 -32.9375 C 9.09375 -32.9375 9.082031 -32.9375 9.0625 -32.9375 C 9.050781 -32.9375 9.03125 -32.953125 9 -32.984375 C 9 -33.390625 9.179688 -33.847656 9.546875 -34.359375 C 9.910156 -34.867188 10.191406 -35.285156 10.390625 -35.609375 C 10.710938 -36.097656 11.035156 -36.585938 11.359375 -37.078125 C 11.679688 -37.578125 12.015625 -38.0625 12.359375 -38.53125 C 12.972656 -39.375 13.597656 -40.234375 14.234375 -41.109375 C 14.878906 -41.984375 15.609375 -42.738281 16.421875 -43.375 C 16.859375 -43.695312 17.335938 -43.988281 17.859375 -44.25 C 18.390625 -44.519531 18.929688 -44.625 19.484375 -44.5625 C 20.097656 -44.5625 20.609375 -44.359375 21.015625 -43.953125 C 21.066406 -43.890625 21.164062 -43.734375 21.3125 -43.484375 C 21.457031 -43.242188 21.582031 -42.988281 21.6875 -42.71875 C 21.789062 -42.457031 21.800781 -42.300781 21.71875 -42.25 C 21.71875 -42.25 21.679688 -42.359375 21.609375 -42.578125 C 21.535156 -42.796875 21.484375 -42.90625 21.453125 -42.90625 C 21.597656 -42.550781 21.679688 -42.179688 21.703125 -41.796875 C 21.734375 -41.421875 21.738281 -41.0625 21.71875 -40.71875 C 21.769531 -40.800781 21.796875 -40.84375 21.796875 -40.84375 C 21.859375 -40.84375 21.851562 -40.640625 21.78125 -40.234375 C 21.707031 -39.828125 21.609375 -39.347656 21.484375 -38.796875 C 21.367188 -38.242188 21.257812 -37.738281 21.15625 -37.28125 C 21.0625 -36.832031 21 -36.566406 20.96875 -36.484375 C 20.769531 -35.722656 20.515625 -34.96875 20.203125 -34.21875 C 19.898438 -33.476562 19.585938 -32.742188 19.265625 -32.015625 C 18.535156 -30.503906 17.710938 -28.960938 16.796875 -27.390625 C 15.878906 -25.816406 14.867188 -24.375 13.765625 -23.0625 C 13.554688 -22.832031 13.320312 -22.625 13.0625 -22.4375 C 12.800781 -22.25 12.566406 -22.050781 12.359375 -21.84375 C 12.160156 -21.613281 11.972656 -21.351562 11.796875 -21.0625 C 11.617188 -20.769531 11.414062 -20.492188 11.1875 -20.234375 C 10.632812 -19.585938 10.050781 -18.957031 9.4375 -18.34375 C 8.820312 -17.738281 8.195312 -17.144531 7.5625 -16.5625 C 7.175781 -16.207031 6.894531 -15.898438 6.71875 -15.640625 C 6.550781 -15.378906 6.378906 -15 6.203125 -14.5 C 6.054688 -14.039062 5.910156 -13.582031 5.765625 -13.125 C 5.617188 -12.675781 5.472656 -12.234375 5.328125 -11.796875 C 5.035156 -10.921875 4.757812 -10.046875 4.5 -9.171875 C 4.238281 -8.296875 3.988281 -7.410156 3.75 -6.515625 C 4.132812 -7.097656 4.519531 -7.65625 4.90625 -8.1875 C 5.300781 -8.726562 5.703125 -9.273438 6.109375 -9.828125 C 5.816406 -9.503906 5.582031 -9.234375 5.40625 -9.015625 C 5.238281 -8.796875 5.15625 -8.6875 5.15625 -8.6875 C 5.125 -8.6875 5.289062 -8.921875 5.65625 -9.390625 C 6.019531 -9.859375 6.484375 -10.429688 7.046875 -11.109375 C 7.617188 -11.796875 8.195312 -12.492188 8.78125 -13.203125 C 9.363281 -13.921875 9.875 -14.550781 10.3125 -15.09375 C 10.75 -15.632812 11.023438 -15.960938 11.140625 -16.078125 C 11.460938 -16.421875 11.847656 -16.828125 12.296875 -17.296875 C 12.742188 -17.765625 13.222656 -18.164062 13.734375 -18.5 C 14.242188 -18.832031 14.757812 -19 15.28125 -19 C 15.8125 -19 16.3125 -18.707031 16.78125 -18.125 C 17.332031 -17.457031 17.484375 -16.742188 17.234375 -15.984375 C 16.984375 -15.234375 16.703125 -14.519531 16.390625 -13.84375 C 15.828125 -12.65625 15.234375 -11.390625 14.609375 -10.046875 C 13.984375 -8.703125 13.5 -7.421875 13.15625 -6.203125 C 13.175781 -6.234375 13.226562 -6.359375 13.3125 -6.578125 C 13.40625 -6.796875 13.484375 -6.875 13.546875 -6.8125 C 13.628906 -6.726562 13.617188 -6.488281 13.515625 -6.09375 C 13.421875 -5.695312 13.304688 -5.300781 13.171875 -4.90625 C 13.035156 -4.519531 12.957031 -4.253906 12.9375 -4.109375 C 12.9375 -4.015625 12.90625 -3.820312 12.84375 -3.53125 C 12.78125 -3.25 12.75 -2.972656 12.75 -2.703125 C 12.75 -2.441406 12.8125 -2.269531 12.9375 -2.1875 C 13.132812 -2.070312 13.359375 -2.085938 13.609375 -2.234375 C 13.859375 -2.378906 14.101562 -2.566406 14.34375 -2.796875 C 14.59375 -3.023438 14.773438 -3.195312 14.890625 -3.3125 C 15.679688 -4.070312 16.441406 -4.875 17.171875 -5.71875 C 17.898438 -6.5625 18.628906 -7.394531 19.359375 -8.21875 C 19.617188 -8.53125 19.882812 -8.863281 20.15625 -9.21875 C 20.4375 -9.570312 20.722656 -9.890625 21.015625 -10.171875 C 21.066406 -10.234375 21.160156 -10.34375 21.296875 -10.5 C 21.429688 -10.664062 21.554688 -10.75 21.671875 -10.75 Z M 17.875 -40.15625 C 17.875 -40.125 17.863281 -40.109375 17.84375 -40.109375 C 17.832031 -40.109375 17.828125 -40.109375 17.828125 -40.109375 C 17.035156 -38.859375 16.289062 -37.566406 15.59375 -36.234375 C 14.894531 -34.910156 14.210938 -33.59375 13.546875 -32.28125 C 12.929688 -31.09375 12.300781 -29.878906 11.65625 -28.640625 C 11.019531 -27.398438 10.441406 -26.179688 9.921875 -24.984375 C 9.972656 -25.097656 10.035156 -25.195312 10.109375 -25.28125 C 10.179688 -25.375 10.234375 -25.4375 10.265625 -25.46875 C 10.265625 -25.46875 10.179688 -25.25 10.015625 -24.8125 C 9.859375 -24.375 9.703125 -23.921875 9.546875 -23.453125 C 9.390625 -22.992188 9.28125 -22.71875 9.21875 -22.625 L 7.90625 -19.171875 C 9.476562 -20.835938 10.941406 -22.59375 12.296875 -24.4375 C 13.648438 -26.289062 14.878906 -28.191406 15.984375 -30.140625 C 15.546875 -29.410156 15.101562 -28.695312 14.65625 -28 C 14.207031 -27.300781 13.734375 -26.617188 13.234375 -25.953125 L 11.484375 -23.5 L 10.703125 -22.71875 L 11.046875 -23.109375 C 11.285156 -23.367188 11.5 -23.628906 11.6875 -23.890625 C 11.875 -24.160156 12.070312 -24.425781 12.28125 -24.6875 C 12.65625 -25.207031 13.023438 -25.738281 13.390625 -26.28125 C 13.753906 -26.820312 14.109375 -27.367188 14.453125 -27.921875 C 15.179688 -29.054688 15.863281 -30.203125 16.5 -31.359375 C 17.144531 -32.523438 17.734375 -33.722656 18.265625 -34.953125 C 18.523438 -35.585938 18.773438 -36.234375 19.015625 -36.890625 C 19.265625 -37.546875 19.476562 -38.207031 19.65625 -38.875 C 19.71875 -39.113281 19.796875 -39.4375 19.890625 -39.84375 C 19.992188 -40.25 20.050781 -40.648438 20.0625 -41.046875 C 20.082031 -41.441406 19.992188 -41.722656 19.796875 -41.890625 C 19.585938 -42.066406 19.363281 -42.050781 19.125 -41.84375 C 18.894531 -41.644531 18.671875 -41.382812 18.453125 -41.0625 C 18.234375 -40.738281 18.066406 -40.492188 17.953125 -40.328125 C 17.984375 -40.359375 17.96875 -40.3125 17.90625 -40.1875 L 17.90625 -40.234375 C 17.90625 -40.203125 17.898438 -40.1875 17.890625 -40.1875 C 17.878906 -40.1875 17.875 -40.1875 17.875 -40.1875 Z M 6.90625 -18.734375 L 6.859375 -18.609375 C 6.828125 -18.492188 6.789062 -18.3125 6.75 -18.0625 C 6.707031 -17.8125 6.703125 -17.6875 6.734375 -17.6875 C 6.703125 -17.6875 6.765625 -17.925781 6.921875 -18.40625 C 7.085938 -18.894531 7.285156 -19.453125 7.515625 -20.078125 C 7.742188 -20.703125 7.957031 -21.273438 8.15625 -21.796875 C 8.363281 -22.328125 8.484375 -22.648438 8.515625 -22.765625 C 8.691406 -23.222656 8.894531 -23.664062 9.125 -24.09375 C 9.363281 -24.519531 9.554688 -24.960938 9.703125 -25.421875 C 9.867188 -25.921875 10.0625 -26.394531 10.28125 -26.84375 C 10.5 -27.289062 10.726562 -27.75 10.96875 -28.21875 C 11.082031 -28.457031 11.359375 -29.003906 11.796875 -29.859375 C 12.234375 -30.722656 12.726562 -31.707031 13.28125 -32.8125 C 13.832031 -33.914062 14.367188 -35.003906 14.890625 -36.078125 C 15.421875 -37.160156 15.84375 -38.066406 16.15625 -38.796875 C 16.476562 -39.523438 16.613281 -39.90625 16.5625 -39.9375 C 16.53125 -39.9375 16.367188 -39.664062 16.078125 -39.125 C 15.785156 -38.582031 15.421875 -37.90625 14.984375 -37.09375 C 14.546875 -36.28125 14.109375 -35.445312 13.671875 -34.59375 C 13.234375 -33.75 12.847656 -33 12.515625 -32.34375 C 12.179688 -31.695312 11.972656 -31.285156 11.890625 -31.109375 C 11.453125 -30.203125 10.976562 -29.296875 10.46875 -28.390625 C 9.957031 -27.492188 9.523438 -26.5625 9.171875 -25.59375 C 8.796875 -24.457031 8.375 -23.328125 7.90625 -22.203125 C 7.4375 -21.085938 7.101562 -19.929688 6.90625 -18.734375 Z M 9.921875 -21.796875 C 10.035156 -21.972656 10.132812 -22.101562 10.21875 -22.1875 C 10.164062 -22.132812 10.113281 -22.070312 10.0625 -22 C 10.019531 -21.925781 9.972656 -21.859375 9.921875 -21.796875 Z M 17.875 -40.15625 L 17.90625 -40.1875 L 17.875 -40.1875 Z M 6.90625 -18.703125 C 6.90625 -18.671875 6.894531 -18.65625 6.875 -18.65625 C 6.863281 -18.65625 6.859375 -18.640625 6.859375 -18.609375 C 6.859375 -18.609375 6.863281 -18.613281 6.875 -18.625 C 6.894531 -18.644531 6.90625 -18.671875 6.90625 -18.703125 Z M 6.90625 -18.703125 "/></g></g></g><g fill="#ffffff" fill-opacity="1"><g transform="translate(94.427167, 48.374995)"><g><path d="M 16.734375 -10.796875 C 16.816406 -10.617188 16.835938 -10.46875 16.796875 -10.34375 C 16.753906 -10.226562 16.675781 -10.097656 16.5625 -9.953125 L 15.203125 -8.171875 L 12.84375 -5.109375 C 12.550781 -4.734375 12.226562 -4.351562 11.875 -3.96875 C 11.53125 -3.59375 11.195312 -3.203125 10.875 -2.796875 C 10.550781 -2.359375 10.238281 -1.910156 9.9375 -1.453125 C 9.632812 -1.003906 9.289062 -0.578125 8.90625 -0.171875 C 8.53125 0.234375 8.109375 0.640625 7.640625 1.046875 C 7.179688 1.453125 6.6875 1.800781 6.15625 2.09375 C 5.457031 2.476562 4.71875 2.550781 3.9375 2.3125 C 3.382812 2.164062 2.859375 1.925781 2.359375 1.59375 C 1.859375 1.257812 1.421875 0.875 1.046875 0.4375 C 0.929688 0.289062 0.828125 0.160156 0.734375 0.046875 C 0.648438 -0.0664062 0.59375 -0.210938 0.5625 -0.390625 C 0.539062 -0.535156 0.519531 -0.679688 0.5 -0.828125 C 0.488281 -0.972656 0.484375 -1.117188 0.484375 -1.265625 C 0.453125 -1.523438 0.472656 -1.765625 0.546875 -1.984375 C 0.617188 -2.203125 0.671875 -2.441406 0.703125 -2.703125 C 0.753906 -2.992188 0.832031 -3.269531 0.9375 -3.53125 C 1.039062 -3.800781 1.109375 -4.082031 1.140625 -4.375 C 1.191406 -4.6875 1.253906 -4.976562 1.328125 -5.25 C 1.398438 -5.53125 1.453125 -5.816406 1.484375 -6.109375 C 1.515625 -6.378906 1.519531 -6.648438 1.5 -6.921875 C 1.488281 -7.203125 1.515625 -7.472656 1.578125 -7.734375 C 1.628906 -7.910156 1.707031 -8.082031 1.8125 -8.25 C 1.914062 -8.425781 1.992188 -8.617188 2.046875 -8.828125 C 1.992188 -8.710938 1.921875 -8.585938 1.828125 -8.453125 C 1.742188 -8.316406 1.6875 -8.191406 1.65625 -8.078125 C 1.601562 -7.898438 1.546875 -7.722656 1.484375 -7.546875 C 1.421875 -7.378906 1.363281 -7.222656 1.3125 -7.078125 C 1.25 -6.898438 1.195312 -6.726562 1.15625 -6.5625 C 1.113281 -6.40625 1.0625 -6.242188 1 -6.078125 C 0.914062 -5.867188 0.835938 -5.675781 0.765625 -5.5 C 0.691406 -5.332031 0.640625 -5.128906 0.609375 -4.890625 C 0.578125 -4.691406 0.566406 -4.492188 0.578125 -4.296875 C 0.597656 -4.109375 0.59375 -3.914062 0.5625 -3.71875 C 0.539062 -3.507812 0.503906 -3.320312 0.453125 -3.15625 C 0.410156 -3 0.390625 -2.820312 0.390625 -2.625 C 0.390625 -2.5625 0.40625 -2.476562 0.4375 -2.375 C 0.46875 -2.28125 0.484375 -2.203125 0.484375 -2.140625 C 0.484375 -2.054688 0.46875 -1.960938 0.4375 -1.859375 C 0.40625 -1.753906 0.390625 -1.644531 0.390625 -1.53125 C 0.390625 -1.320312 0.40625 -1.125 0.4375 -0.9375 C 0.46875 -0.75 0.5 -0.539062 0.53125 -0.3125 C 0.175781 -0.914062 0 -1.53125 0 -2.15625 C 0 -2.789062 0.0546875 -3.425781 0.171875 -4.0625 C 0.285156 -4.726562 0.394531 -5.375 0.5 -6 C 0.601562 -6.632812 0.726562 -7.269531 0.875 -7.90625 C 1.164062 -9.1875 1.601562 -10.445312 2.1875 -11.6875 C 2.769531 -12.925781 3.46875 -14.054688 4.28125 -15.078125 C 4.945312 -15.972656 5.738281 -16.703125 6.65625 -17.265625 C 7.570312 -17.835938 8.613281 -18.007812 9.78125 -17.78125 C 10.21875 -17.695312 10.65625 -17.550781 11.09375 -17.34375 C 11.53125 -17.132812 11.894531 -16.84375 12.1875 -16.46875 C 12.507812 -16.0625 12.671875 -15.609375 12.671875 -15.109375 C 12.671875 -14.617188 12.597656 -14.125 12.453125 -13.625 C 12.160156 -12.78125 11.691406 -12.015625 11.046875 -11.328125 C 10.410156 -10.648438 9.757812 -10.019531 9.09375 -9.4375 C 8.800781 -9.207031 8.5 -8.972656 8.1875 -8.734375 C 7.882812 -8.503906 7.570312 -8.285156 7.25 -8.078125 C 7.050781 -7.960938 6.828125 -7.851562 6.578125 -7.75 C 6.328125 -7.65625 6.085938 -7.5625 5.859375 -7.46875 L 5.109375 -7.203125 C 4.960938 -7.179688 4.859375 -7.160156 4.796875 -7.140625 C 4.742188 -7.128906 4.6875 -7.050781 4.625 -6.90625 C 4.507812 -6.695312 4.46875 -6.484375 4.5 -6.265625 C 4.53125 -6.046875 4.515625 -5.820312 4.453125 -5.59375 C 4.421875 -5.300781 4.367188 -5.023438 4.296875 -4.765625 C 4.222656 -4.503906 4.160156 -4.226562 4.109375 -3.9375 C 3.992188 -3.40625 3.882812 -2.828125 3.78125 -2.203125 C 3.675781 -1.578125 3.679688 -0.988281 3.796875 -0.4375 C 3.910156 0.113281 4.191406 0.367188 4.640625 0.328125 C 5.097656 0.285156 5.597656 0.0820312 6.140625 -0.28125 C 6.679688 -0.644531 7.179688 -1.03125 7.640625 -1.4375 C 8.109375 -1.84375 8.429688 -2.117188 8.609375 -2.265625 C 8.835938 -2.472656 9.046875 -2.675781 9.234375 -2.875 C 9.429688 -3.082031 9.628906 -3.289062 9.828125 -3.5 C 9.941406 -3.644531 10.054688 -3.773438 10.171875 -3.890625 C 10.296875 -4.003906 10.398438 -4.117188 10.484375 -4.234375 C 10.484375 -4.234375 10.5 -4.273438 10.53125 -4.359375 C 10.5625 -4.453125 10.578125 -4.515625 10.578125 -4.546875 C 10.835938 -4.953125 11.132812 -5.359375 11.46875 -5.765625 C 11.800781 -6.171875 12.128906 -6.566406 12.453125 -6.953125 C 12.859375 -7.410156 13.234375 -7.878906 13.578125 -8.359375 C 13.929688 -8.847656 14.296875 -9.335938 14.671875 -9.828125 C 14.816406 -10.035156 15 -10.289062 15.21875 -10.59375 C 15.4375 -10.894531 15.675781 -11.113281 15.9375 -11.25 C 16.207031 -11.382812 16.457031 -11.242188 16.6875 -10.828125 L 16.6875 -10.796875 C 16.71875 -10.765625 16.734375 -10.765625 16.734375 -10.796875 Z M 5.890625 -10.3125 C 5.773438 -10.101562 5.679688 -9.875 5.609375 -9.625 C 5.535156 -9.382812 5.441406 -9.144531 5.328125 -8.90625 C 6.753906 -9.664062 7.976562 -10.644531 9 -11.84375 L 9.75 -12.796875 C 9.800781 -12.910156 9.878906 -13.007812 9.984375 -13.09375 C 10.085938 -13.1875 10.148438 -13.289062 10.171875 -13.40625 C 10.203125 -13.53125 10.203125 -13.640625 10.171875 -13.734375 C 10.148438 -13.835938 10.148438 -13.945312 10.171875 -14.0625 L 10.359375 -14.984375 C 10.378906 -15.210938 10.332031 -15.523438 10.21875 -15.921875 C 10.101562 -16.316406 9.882812 -16.484375 9.5625 -16.421875 C 9.414062 -16.398438 9.269531 -16.304688 9.125 -16.140625 C 8.976562 -15.984375 8.863281 -15.847656 8.78125 -15.734375 L 8 -14.671875 C 7.53125 -14.003906 7.148438 -13.304688 6.859375 -12.578125 C 6.566406 -11.847656 6.257812 -11.132812 5.9375 -10.4375 C 5.9375 -10.4375 5.9375 -10.425781 5.9375 -10.40625 C 5.9375 -10.394531 5.921875 -10.363281 5.890625 -10.3125 Z M 5.890625 -10.3125 "/></g></g></g><g fill="#ffffff" fill-opacity="1"><g transform="translate(108.010352, 48.374995)"><g><path d="M 18.09375 -10.390625 C 18.144531 -10.046875 18.039062 -9.671875 17.78125 -9.265625 C 17.519531 -8.859375 17.210938 -8.460938 16.859375 -8.078125 C 16.515625 -7.703125 16.253906 -7.398438 16.078125 -7.171875 C 15.609375 -6.554688 15.140625 -5.9375 14.671875 -5.3125 C 14.210938 -4.6875 13.71875 -4.082031 13.1875 -3.5 C 12.925781 -3.238281 12.613281 -2.929688 12.25 -2.578125 C 11.882812 -2.222656 11.5 -1.953125 11.09375 -1.765625 C 10.6875 -1.578125 10.28125 -1.539062 9.875 -1.65625 C 9.789062 -1.6875 9.59375 -1.78125 9.28125 -1.9375 C 8.976562 -2.101562 8.691406 -2.28125 8.421875 -2.46875 C 8.160156 -2.65625 8.03125 -2.78125 8.03125 -2.84375 L 8.171875 -2.75 L 7.90625 -3.015625 C 8.019531 -2.835938 8.003906 -2.804688 7.859375 -2.921875 C 7.710938 -3.046875 7.628906 -3.109375 7.609375 -3.109375 C 7.484375 -3.222656 7.378906 -3.359375 7.296875 -3.515625 C 7.210938 -3.671875 7.140625 -3.8125 7.078125 -3.9375 C 6.960938 -4.164062 6.890625 -4.40625 6.859375 -4.65625 C 6.828125 -4.90625 6.8125 -5.144531 6.8125 -5.375 C 6.8125 -5.601562 6.828125 -5.84375 6.859375 -6.09375 C 6.890625 -6.34375 6.921875 -6.582031 6.953125 -6.8125 C 7.003906 -7.3125 7.050781 -7.789062 7.09375 -8.25 C 7.144531 -8.71875 7.242188 -9.1875 7.390625 -9.65625 C 7.410156 -9.738281 7.507812 -9.988281 7.6875 -10.40625 C 7.863281 -10.832031 8.050781 -11.25 8.25 -11.65625 C 8.457031 -12.070312 8.601562 -12.265625 8.6875 -12.234375 C 8.75 -12.234375 8.742188 -12.179688 8.671875 -12.078125 C 8.597656 -11.972656 8.578125 -11.910156 8.609375 -11.890625 L 9.21875 -13.109375 C 9.1875 -13.078125 9.15625 -13.039062 9.125 -13 C 9.101562 -12.957031 9.0625 -12.921875 9 -12.890625 C 8.96875 -12.921875 9.050781 -13.109375 9.25 -13.453125 C 9.457031 -13.804688 9.59375 -14.039062 9.65625 -14.15625 C 9.21875 -13.65625 8.816406 -13.144531 8.453125 -12.625 C 8.085938 -12.101562 7.703125 -11.578125 7.296875 -11.046875 C 7.003906 -10.671875 6.703125 -10.34375 6.390625 -10.0625 C 6.085938 -9.789062 5.835938 -9.476562 5.640625 -9.125 C 5.171875 -8.34375 4.679688 -7.578125 4.171875 -6.828125 C 3.660156 -6.085938 3.21875 -5.3125 2.84375 -4.5 L 2.671875 -4.84375 C 2.398438 -4.53125 2.101562 -4.410156 1.78125 -4.484375 C 1.46875 -4.554688 1.171875 -4.726562 0.890625 -5 C 0.617188 -5.28125 0.410156 -5.535156 0.265625 -5.765625 C 0.0546875 -6.117188 -0.03125 -6.445312 0 -6.75 C 0.03125 -7.050781 0.0625 -7.394531 0.09375 -7.78125 C 0.144531 -8.125 0.171875 -8.46875 0.171875 -8.8125 C 0.171875 -9.164062 0.226562 -9.535156 0.34375 -9.921875 C 0.488281 -10.378906 0.640625 -10.828125 0.796875 -11.265625 C 0.960938 -11.703125 1.132812 -12.15625 1.3125 -12.625 C 1.457031 -13.09375 1.609375 -13.550781 1.765625 -14 C 1.929688 -14.445312 2.097656 -14.90625 2.265625 -15.375 C 2.390625 -15.664062 2.535156 -15.976562 2.703125 -16.3125 C 2.878906 -16.644531 3 -16.957031 3.0625 -17.25 C 3.113281 -17.488281 3.144531 -17.691406 3.15625 -17.859375 C 3.175781 -18.035156 3.332031 -18.210938 3.625 -18.390625 C 3.882812 -18.535156 4.148438 -18.613281 4.421875 -18.625 C 4.703125 -18.644531 4.988281 -18.625 5.28125 -18.5625 C 5.519531 -18.539062 5.785156 -18.441406 6.078125 -18.265625 C 6.367188 -18.085938 6.578125 -17.859375 6.703125 -17.578125 C 6.835938 -17.304688 6.773438 -16.976562 6.515625 -16.59375 C 6.367188 -16.394531 6.175781 -16.191406 5.9375 -15.984375 C 5.707031 -15.785156 5.503906 -15.566406 5.328125 -15.328125 C 5.128906 -15.097656 5.015625 -14.898438 4.984375 -14.734375 C 4.953125 -14.578125 4.894531 -14.351562 4.8125 -14.0625 C 4.78125 -13.894531 4.691406 -13.726562 4.546875 -13.5625 C 4.398438 -13.40625 4.28125 -13.238281 4.1875 -13.0625 C 4.070312 -12.832031 3.960938 -12.570312 3.859375 -12.28125 C 3.765625 -11.988281 3.671875 -11.695312 3.578125 -11.40625 C 3.546875 -11.226562 3.53125 -11.066406 3.53125 -10.921875 C 3.53125 -10.773438 3.519531 -10.613281 3.5 -10.4375 C 3.46875 -9.976562 3.394531 -9.519531 3.28125 -9.0625 C 3.164062 -8.613281 3.078125 -8.15625 3.015625 -7.6875 C 3.046875 -7.769531 3.109375 -7.867188 3.203125 -7.984375 C 3.304688 -8.109375 3.375 -8.15625 3.40625 -8.125 C 3.4375 -8.09375 3.367188 -7.953125 3.203125 -7.703125 C 3.046875 -7.460938 2.984375 -7.34375 3.015625 -7.34375 L 5.59375 -11.09375 C 5.300781 -10.71875 5.0625 -10.410156 4.875 -10.171875 C 4.6875 -9.941406 4.59375 -9.828125 4.59375 -9.828125 C 4.5625 -9.859375 4.710938 -10.097656 5.046875 -10.546875 C 5.378906 -11.003906 5.804688 -11.570312 6.328125 -12.25 C 6.859375 -12.9375 7.40625 -13.628906 7.96875 -14.328125 C 8.539062 -15.023438 9.035156 -15.632812 9.453125 -16.15625 C 9.878906 -16.6875 10.148438 -17.007812 10.265625 -17.125 C 10.910156 -17.707031 11.582031 -17.953125 12.28125 -17.859375 C 12.976562 -17.773438 13.472656 -17.222656 13.765625 -16.203125 C 13.992188 -15.472656 13.953125 -14.816406 13.640625 -14.234375 C 13.335938 -13.660156 12.929688 -13.109375 12.421875 -12.578125 C 11.921875 -12.054688 11.492188 -11.535156 11.140625 -11.015625 C 10.847656 -10.578125 10.582031 -10.109375 10.34375 -9.609375 C 10.113281 -9.117188 9.882812 -8.640625 9.65625 -8.171875 C 9.507812 -7.878906 9.3125 -7.460938 9.0625 -6.921875 C 8.8125 -6.378906 8.660156 -5.863281 8.609375 -5.375 C 8.660156 -5.695312 8.773438 -6.039062 8.953125 -6.40625 C 9.128906 -6.769531 9.257812 -7.050781 9.34375 -7.25 C 9.695312 -8.15625 10.207031 -8.925781 10.875 -9.5625 C 10.726562 -9.269531 10.570312 -8.992188 10.40625 -8.734375 C 10.25 -8.472656 10.097656 -8.210938 9.953125 -7.953125 L 10.171875 -8.21875 C 10.203125 -8.21875 10.179688 -8.09375 10.109375 -7.84375 C 10.035156 -7.59375 9.960938 -7.335938 9.890625 -7.078125 C 9.816406 -6.816406 9.769531 -6.671875 9.75 -6.640625 C 9.65625 -6.378906 9.570312 -6.109375 9.5 -5.828125 C 9.425781 -5.554688 9.375 -5.273438 9.34375 -4.984375 C 9.320312 -4.953125 9.316406 -4.816406 9.328125 -4.578125 C 9.335938 -4.347656 9.34375 -4.234375 9.34375 -4.234375 L 9.390625 -4.1875 C 9.390625 -4.21875 9.445312 -4.238281 9.5625 -4.25 C 9.6875 -4.269531 9.757812 -4.296875 9.78125 -4.328125 C 10.101562 -4.441406 10.425781 -4.628906 10.75 -4.890625 C 11.070312 -5.148438 11.363281 -5.382812 11.625 -5.59375 C 12.144531 -6 12.660156 -6.425781 13.171875 -6.875 C 13.679688 -7.332031 14.179688 -7.78125 14.671875 -8.21875 C 15.054688 -8.5625 15.46875 -8.90625 15.90625 -9.25 C 16.34375 -9.601562 16.707031 -9.972656 17 -10.359375 C 17.144531 -10.554688 17.332031 -10.742188 17.5625 -10.921875 C 17.789062 -11.097656 17.96875 -10.921875 18.09375 -10.390625 Z M 18.09375 -10.390625 "/></g></g></g><g fill="#ffffff" fill-opacity="1"><g transform="translate(122.908374, 48.374995)"><g/></g></g></svg>