<svg xmlns="http://www.w3.org/2000/svg" xmlns:xlink="http://www.w3.org/1999/xlink" width="530" zoomAndPan="magnify" viewBox="0 0 397.5 397.500002" height="530" preserveAspectRatio="xMidYMid meet" version="1.0"><path fill="#ff0044" d="M 198.5 0 C 89.027344 0 0 89.027344 0 198.5 C 0 307.972656 89.027344 397 198.5 397 C 307.972656 397 397 307.972656 397 198.5 C 397 89.027344 307.972656 0 198.5 0 Z M 198.5 383.074219 C 96.582031 383.074219 13.925781 300.417969 13.925781 198.5 C 13.925781 96.582031 96.582031 13.925781 198.5 13.925781 C 300.417969 13.925781 383.074219 96.582031 383.074219 198.5 C 383.074219 300.417969 300.417969 383.074219 198.5 383.074219 Z M 198.5 383.074219 " fill-opacity="1" fill-rule="nonzero"/><path fill="#ff0044" d="M 282.640625 270.097656 C 294.984375 255.285156 285.898438 246.644531 277.703125 240.421875 C 269.507812 234.199219 250.199219 226.25 244.273438 233.363281 C 238.347656 240.472656 228.867188 249.359375 221.558594 247.433594 C 209.214844 244.175781 193.464844 227.535156 181.464844 215.535156 C 169.464844 203.535156 152.824219 187.785156 149.566406 175.441406 C 147.640625 168.132812 155.886719 159.195312 163.640625 152.726562 C 171.390625 146.257812 163.246094 128.1875 156.578125 119.296875 C 149.914062 110.410156 141.714844 102.015625 126.902344 114.359375 C 112.089844 126.703125 93.375 159.539062 127.890625 209.609375 C 136.726562 222.449219 144.332031 229.855469 155.738281 241.261719 C 167.144531 252.667969 174.550781 260.273438 187.390625 269.109375 C 237.460938 303.625 270.296875 284.914062 282.640625 270.097656 Z M 282.640625 270.097656 " fill-opacity="1" fill-rule="nonzero"/><path fill="#ff0044" d="M 241.164062 206.253906 C 240.734375 206.253906 240.304688 206.214844 239.882812 206.136719 C 239.460938 206.058594 239.046875 205.945312 238.648438 205.789062 C 238.246094 205.632812 237.863281 205.441406 237.496094 205.214844 C 237.132812 204.992188 236.789062 204.730469 236.472656 204.441406 C 236.15625 204.152344 235.867188 203.835938 235.609375 203.492188 C 235.351562 203.148438 235.128906 202.78125 234.9375 202.394531 C 234.746094 202.011719 234.59375 201.609375 234.480469 201.195312 C 234.363281 200.78125 234.285156 200.359375 234.25 199.933594 C 234.152344 198.855469 234.007812 197.785156 233.820312 196.722656 C 233.628906 195.660156 233.390625 194.605469 233.109375 193.5625 C 232.828125 192.519531 232.5 191.488281 232.128906 190.472656 C 231.757812 189.460938 231.34375 188.460938 230.886719 187.484375 C 230.429688 186.503906 229.929688 185.546875 229.386719 184.613281 C 228.84375 183.675781 228.265625 182.765625 227.644531 181.882812 C 227.023438 180.996094 226.367188 180.140625 225.671875 179.3125 C 224.976562 178.484375 224.246094 177.691406 223.480469 176.925781 C 222.71875 176.160156 221.921875 175.433594 221.09375 174.738281 C 220.265625 174.042969 219.410156 173.382812 218.527344 172.761719 C 217.640625 172.144531 216.730469 171.5625 215.796875 171.019531 C 214.859375 170.480469 213.902344 169.980469 212.925781 169.523438 C 211.945312 169.0625 210.949219 168.648438 209.933594 168.277344 C 208.917969 167.90625 207.890625 167.578125 206.847656 167.296875 C 205.804688 167.015625 204.75 166.777344 203.6875 166.589844 C 202.621094 166.398438 201.550781 166.253906 200.476562 166.15625 C 200.019531 166.117188 199.574219 166.03125 199.132812 165.902344 C 198.695312 165.773438 198.273438 165.605469 197.867188 165.394531 C 197.460938 165.179688 197.082031 164.933594 196.726562 164.644531 C 196.367188 164.359375 196.042969 164.039062 195.75 163.6875 C 195.457031 163.339844 195.199219 162.960938 194.980469 162.5625 C 194.761719 162.160156 194.582031 161.742188 194.445312 161.304688 C 194.308594 160.867188 194.21875 160.421875 194.167969 159.96875 C 194.117188 159.511719 194.113281 159.058594 194.15625 158.601562 C 194.195312 158.148438 194.28125 157.699219 194.410156 157.261719 C 194.539062 156.824219 194.707031 156.398438 194.917969 155.996094 C 195.132812 155.589844 195.378906 155.207031 195.667969 154.851562 C 195.953125 154.496094 196.273438 154.171875 196.625 153.878906 C 196.972656 153.585938 197.351562 153.328125 197.75 153.109375 C 198.152344 152.890625 198.570312 152.710938 199.007812 152.574219 C 199.445312 152.4375 199.890625 152.34375 200.34375 152.296875 C 200.800781 152.246094 201.253906 152.242188 201.710938 152.28125 C 203.1875 152.417969 204.65625 152.617188 206.117188 152.878906 C 207.578125 153.140625 209.023438 153.464844 210.457031 153.855469 C 211.886719 154.242188 213.300781 154.691406 214.695312 155.203125 C 216.085938 155.714844 217.457031 156.285156 218.800781 156.914062 C 220.144531 157.542969 221.457031 158.226562 222.742188 158.972656 C 224.027344 159.714844 225.273438 160.511719 226.492188 161.363281 C 227.707031 162.214844 228.882812 163.117188 230.019531 164.074219 C 231.15625 165.027344 232.246094 166.027344 233.296875 167.078125 C 234.347656 168.125 235.351562 169.21875 236.304688 170.351562 C 237.261719 171.488281 238.164062 172.664062 239.015625 173.878906 C 239.871094 175.089844 240.667969 176.339844 241.414062 177.625 C 242.160156 178.90625 242.847656 180.21875 243.476562 181.5625 C 244.109375 182.90625 244.679688 184.273438 245.191406 185.667969 C 245.703125 187.058594 246.152344 188.472656 246.542969 189.902344 C 246.933594 191.335938 247.261719 192.78125 247.523438 194.242188 C 247.789062 195.703125 247.988281 197.171875 248.125 198.648438 C 248.167969 199.105469 248.164062 199.5625 248.113281 200.019531 C 248.066406 200.472656 247.972656 200.921875 247.835938 201.359375 C 247.699219 201.796875 247.519531 202.21875 247.300781 202.621094 C 247.082031 203.023438 246.828125 203.402344 246.535156 203.753906 C 246.242188 204.105469 245.914062 204.429688 245.558594 204.71875 C 245.203125 205.007812 244.824219 205.257812 244.417969 205.472656 C 244.011719 205.6875 243.589844 205.859375 243.148438 205.992188 C 242.710938 206.121094 242.261719 206.210938 241.804688 206.253906 Z M 241.164062 206.253906 " fill-opacity="1" fill-rule="nonzero"/><path fill="#ff0044" d="M 273.554688 206.648438 C 273.109375 206.648438 272.667969 206.605469 272.230469 206.523438 C 271.796875 206.4375 271.371094 206.3125 270.957031 206.148438 C 270.542969 205.980469 270.152344 205.777344 269.777344 205.539062 C 269.402344 205.296875 269.054688 205.023438 268.734375 204.714844 C 268.414062 204.40625 268.125 204.070312 267.867188 203.707031 C 267.609375 203.34375 267.390625 202.960938 267.207031 202.554688 C 267.023438 202.148438 266.878906 201.730469 266.777344 201.296875 C 266.671875 200.863281 266.613281 200.425781 266.59375 199.980469 C 266.492188 197.84375 266.289062 195.714844 265.992188 193.597656 C 265.691406 191.480469 265.296875 189.378906 264.804688 187.296875 C 264.3125 185.214844 263.726562 183.160156 263.042969 181.132812 C 262.359375 179.101562 261.585938 177.109375 260.722656 175.15625 C 259.855469 173.199219 258.902344 171.285156 257.859375 169.417969 C 256.816406 167.546875 255.691406 165.730469 254.480469 163.964844 C 253.269531 162.203125 251.980469 160.496094 250.613281 158.851562 C 249.246094 157.207031 247.808594 155.625 246.292969 154.113281 C 244.78125 152.601562 243.203125 151.160156 241.554688 149.792969 C 239.910156 148.425781 238.207031 147.136719 236.441406 145.925781 C 234.675781 144.71875 232.859375 143.589844 230.992188 142.546875 C 229.121094 141.507812 227.210938 140.550781 225.253906 139.6875 C 223.296875 138.820312 221.304688 138.046875 219.277344 137.363281 C 217.25 136.683594 215.191406 136.09375 213.109375 135.601562 C 211.027344 135.109375 208.929688 134.714844 206.808594 134.417969 C 204.691406 134.117188 202.5625 133.917969 200.425781 133.816406 C 199.96875 133.792969 199.519531 133.726562 199.074219 133.617188 C 198.628906 133.507812 198.199219 133.355469 197.785156 133.160156 C 197.371094 132.96875 196.980469 132.734375 196.613281 132.464844 C 196.242188 132.191406 195.90625 131.886719 195.597656 131.546875 C 195.289062 131.210938 195.015625 130.84375 194.78125 130.453125 C 194.542969 130.0625 194.347656 129.652344 194.191406 129.21875 C 194.035156 128.789062 193.925781 128.347656 193.855469 127.894531 C 193.789062 127.445312 193.761719 126.988281 193.785156 126.53125 C 193.804688 126.074219 193.871094 125.625 193.980469 125.179688 C 194.089844 124.734375 194.242188 124.304688 194.4375 123.890625 C 194.632812 123.476562 194.863281 123.085938 195.136719 122.71875 C 195.40625 122.347656 195.710938 122.011719 196.050781 121.703125 C 196.390625 121.394531 196.753906 121.121094 197.144531 120.886719 C 197.539062 120.648438 197.949219 120.453125 198.378906 120.296875 C 198.808594 120.140625 199.25 120.03125 199.703125 119.960938 C 200.15625 119.894531 200.609375 119.871094 201.066406 119.890625 C 203.632812 120.015625 206.1875 120.257812 208.730469 120.617188 C 211.273438 120.976562 213.796875 121.453125 216.296875 122.046875 C 218.796875 122.636719 221.261719 123.34375 223.695312 124.164062 C 226.132812 124.984375 228.523438 125.914062 230.871094 126.953125 C 233.21875 127.992188 235.515625 129.140625 237.757812 130.390625 C 240.003906 131.644531 242.183594 132.996094 244.300781 134.449219 C 246.417969 135.902344 248.464844 137.449219 250.441406 139.089844 C 252.417969 140.730469 254.3125 142.460938 256.128906 144.277344 C 257.945312 146.09375 259.675781 147.988281 261.316406 149.964844 C 262.960938 151.941406 264.507812 153.988281 265.960938 156.105469 C 267.410156 158.226562 268.765625 160.40625 270.015625 162.648438 C 271.269531 164.890625 272.414062 167.1875 273.453125 169.535156 C 274.496094 171.886719 275.425781 174.277344 276.246094 176.710938 C 277.0625 179.144531 277.769531 181.613281 278.363281 184.113281 C 278.953125 186.609375 279.429688 189.132812 279.789062 191.675781 C 280.152344 194.21875 280.394531 196.773438 280.515625 199.339844 C 280.539062 199.796875 280.511719 200.25 280.441406 200.703125 C 280.371094 201.15625 280.257812 201.597656 280.101562 202.027344 C 279.945312 202.457031 279.75 202.867188 279.511719 203.257812 C 279.273438 203.648438 279 204.015625 278.691406 204.351562 C 278.378906 204.6875 278.039062 204.992188 277.671875 205.261719 C 277.300781 205.53125 276.910156 205.765625 276.496094 205.957031 C 276.078125 206.148438 275.648438 206.300781 275.203125 206.40625 C 274.757812 206.515625 274.308594 206.578125 273.851562 206.597656 Z M 273.554688 206.648438 " fill-opacity="1" fill-rule="nonzero"/></svg>