<svg xmlns="http://www.w3.org/2000/svg" xmlns:xlink="http://www.w3.org/1999/xlink" width="530" zoomAndPan="magnify" viewBox="0 0 397.5 397.500002" height="530" preserveAspectRatio="xMidYMid meet" version="1.0"><defs><clipPath id="617c831eab"><path d="M 0 0 L 397 0 L 397 397 L 0 397 Z M 0 0 " clip-rule="nonzero"/></clipPath></defs><g clip-path="url(#617c831eab)"><path fill="#5d7dbe" d="M 198.511719 397.015625 C 307.84375 397.015625 397.015625 307.84375 397.015625 198.511719 C 397.015625 89.171875 307.84375 0 198.511719 0 C 89.171875 0 0 89.171875 0 198.511719 C 0 307.84375 89.171875 397.015625 198.511719 397.015625 " fill-opacity="1" fill-rule="evenodd"/></g><path fill="#ffffff" d="M 307.066406 173.746094 L 89.949219 120.835938 L 161.855469 276.179688 L 208.667969 243.28125 L 227.65625 271.09375 L 222.910156 222.589844 L 103.855469 131.347656 L 235.460938 204.953125 L 227.65625 271.09375 L 251.742188 200.542969 L 307.066406 173.746094 " fill-opacity="1" fill-rule="evenodd"/></svg>