<svg xmlns="http://www.w3.org/2000/svg" xmlns:xlink="http://www.w3.org/1999/xlink" width="530" zoomAndPan="magnify" viewBox="0 0 397.5 397.500002" height="530" preserveAspectRatio="xMidYMid meet" version="1.0"><path fill="#8c52ff" d="M 397 198.5 C 397 201.75 396.921875 204.996094 396.761719 208.242188 C 396.601562 211.484375 396.363281 214.722656 396.042969 217.957031 C 395.726562 221.191406 395.328125 224.414062 394.851562 227.625 C 394.375 230.839844 393.820312 234.039062 393.1875 237.226562 C 392.550781 240.410156 391.839844 243.582031 391.050781 246.730469 C 390.261719 249.882812 389.394531 253.011719 388.453125 256.121094 C 387.511719 259.230469 386.492188 262.3125 385.398438 265.371094 C 384.300781 268.433594 383.132812 271.460938 381.890625 274.464844 C 380.648438 277.464844 379.332031 280.433594 377.941406 283.371094 C 376.554688 286.308594 375.09375 289.207031 373.5625 292.074219 C 372.03125 294.9375 370.429688 297.761719 368.757812 300.550781 C 367.089844 303.335938 365.351562 306.078125 363.546875 308.78125 C 361.742188 311.480469 359.871094 314.136719 357.9375 316.746094 C 356.003906 319.355469 354.003906 321.917969 351.941406 324.425781 C 349.882812 326.9375 347.761719 329.398438 345.578125 331.804688 C 343.398438 334.210938 341.160156 336.5625 338.859375 338.859375 C 336.5625 341.160156 334.210938 343.398438 331.804688 345.578125 C 329.398438 347.761719 326.9375 349.882812 324.425781 351.941406 C 321.917969 354.003906 319.355469 356.003906 316.746094 357.9375 C 314.136719 359.871094 311.480469 361.742188 308.78125 363.546875 C 306.078125 365.351562 303.335938 367.089844 300.550781 368.757812 C 297.761719 370.429688 294.9375 372.03125 292.074219 373.5625 C 289.207031 375.09375 286.308594 376.554688 283.371094 377.941406 C 280.433594 379.332031 277.464844 380.648438 274.464844 381.890625 C 271.460938 383.132812 268.433594 384.300781 265.371094 385.398438 C 262.3125 386.492188 259.230469 387.511719 256.121094 388.453125 C 253.011719 389.394531 249.882812 390.261719 246.730469 391.050781 C 243.582031 391.839844 240.410156 392.550781 237.226562 393.1875 C 234.039062 393.820312 230.839844 394.375 227.625 394.851562 C 224.414062 395.328125 221.191406 395.726562 217.957031 396.042969 C 214.722656 396.363281 211.484375 396.601562 208.242188 396.761719 C 204.996094 396.921875 201.75 397 198.5 397 C 195.25 397 192.003906 396.921875 188.761719 396.761719 C 185.515625 396.601562 182.277344 396.363281 179.042969 396.042969 C 175.8125 395.726562 172.585938 395.328125 169.375 394.851562 C 166.160156 394.375 162.960938 393.820312 159.773438 393.1875 C 156.589844 392.550781 153.421875 391.839844 150.269531 391.050781 C 147.117188 390.261719 143.988281 389.394531 140.878906 388.453125 C 137.769531 387.511719 134.6875 386.492188 131.628906 385.398438 C 128.570312 384.300781 125.539062 383.132812 122.539062 381.890625 C 119.535156 380.648438 116.566406 379.332031 113.628906 377.941406 C 110.695312 376.554688 107.792969 375.09375 104.929688 373.5625 C 102.0625 372.03125 99.238281 370.429688 96.449219 368.757812 C 93.664062 367.089844 90.921875 365.351562 88.21875 363.546875 C 85.519531 361.742188 82.863281 359.871094 80.253906 357.9375 C 77.644531 356.003906 75.085938 354.003906 72.574219 351.941406 C 70.0625 349.882812 67.601562 347.761719 65.195312 345.578125 C 62.789062 343.398438 60.4375 341.160156 58.140625 338.859375 C 55.84375 336.5625 53.601562 334.210938 51.421875 331.804688 C 49.238281 329.398438 47.117188 326.9375 45.058594 324.425781 C 42.996094 321.917969 41 319.355469 39.0625 316.746094 C 37.128906 314.136719 35.257812 311.480469 33.453125 308.78125 C 31.648438 306.078125 29.910156 303.335938 28.242188 300.550781 C 26.570312 297.761719 24.96875 294.9375 23.4375 292.074219 C 21.90625 289.207031 20.445312 286.308594 19.058594 283.371094 C 17.667969 280.433594 16.351562 277.464844 15.109375 274.464844 C 13.867188 271.460938 12.699219 268.433594 11.605469 265.371094 C 10.507812 262.3125 9.492188 259.230469 8.546875 256.121094 C 7.605469 253.011719 6.738281 249.882812 5.949219 246.730469 C 5.160156 243.582031 4.449219 240.410156 3.8125 237.226562 C 3.179688 234.039062 2.625 230.839844 2.148438 227.625 C 1.671875 224.414062 1.273438 221.191406 0.957031 217.957031 C 0.636719 214.722656 0.398438 211.484375 0.238281 208.242188 C 0.078125 204.996094 0 201.75 0 198.5 C 0 195.25 0.078125 192.003906 0.238281 188.761719 C 0.398438 185.515625 0.636719 182.277344 0.957031 179.042969 C 1.273438 175.8125 1.671875 172.585938 2.148438 169.375 C 2.625 166.160156 3.179688 162.960938 3.8125 159.773438 C 4.449219 156.589844 5.160156 153.421875 5.949219 150.269531 C 6.738281 147.117188 7.605469 143.988281 8.546875 140.878906 C 9.492188 137.769531 10.507812 134.6875 11.605469 131.628906 C 12.699219 128.570312 13.867188 125.539062 15.109375 122.539062 C 16.351562 119.535156 17.667969 116.566406 19.058594 113.628906 C 20.445312 110.695312 21.90625 107.792969 23.4375 104.929688 C 24.96875 102.0625 26.570312 99.238281 28.242188 96.449219 C 29.910156 93.664062 31.648438 90.921875 33.453125 88.21875 C 35.257812 85.519531 37.128906 82.863281 39.0625 80.253906 C 41 77.644531 42.996094 75.085938 45.058594 72.574219 C 47.117188 70.0625 49.238281 67.601562 51.421875 65.195312 C 53.601562 62.789062 55.84375 60.4375 58.140625 58.140625 C 60.4375 55.84375 62.789062 53.601562 65.195312 51.421875 C 67.601562 49.238281 70.0625 47.117188 72.574219 45.058594 C 75.085938 42.996094 77.644531 41 80.253906 39.0625 C 82.863281 37.128906 85.519531 35.257812 88.21875 33.453125 C 90.921875 31.648438 93.664062 29.910156 96.449219 28.242188 C 99.238281 26.570312 102.0625 24.96875 104.929688 23.4375 C 107.792969 21.90625 110.695312 20.445312 113.628906 19.058594 C 116.566406 17.667969 119.535156 16.351562 122.539062 15.109375 C 125.539062 13.867188 128.570312 12.699219 131.628906 11.605469 C 134.6875 10.507812 137.769531 9.492188 140.878906 8.546875 C 143.988281 7.605469 147.117188 6.738281 150.269531 5.949219 C 153.417969 5.160156 156.589844 4.449219 159.773438 3.8125 C 162.960938 3.179688 166.160156 2.625 169.375 2.148438 C 172.585938 1.671875 175.8125 1.273438 179.042969 0.957031 C 182.277344 0.636719 185.515625 0.398438 188.761719 0.238281 C 192.003906 0.078125 195.25 0 198.5 0 C 201.75 0 204.996094 0.078125 208.242188 0.238281 C 211.484375 0.398438 214.722656 0.636719 217.957031 0.957031 C 221.191406 1.273438 224.414062 1.671875 227.625 2.148438 C 230.839844 2.625 234.039062 3.179688 237.226562 3.8125 C 240.410156 4.449219 243.582031 5.160156 246.730469 5.949219 C 249.882812 6.738281 253.011719 7.605469 256.121094 8.546875 C 259.230469 9.492188 262.3125 10.507812 265.371094 11.605469 C 268.433594 12.699219 271.460938 13.867188 274.464844 15.109375 C 277.464844 16.351562 280.433594 17.667969 283.371094 19.058594 C 286.308594 20.445312 289.207031 21.90625 292.074219 23.4375 C 294.9375 24.96875 297.761719 26.570312 300.550781 28.242188 C 303.335938 29.910156 306.078125 31.648438 308.78125 33.453125 C 311.480469 35.257812 314.136719 37.128906 316.746094 39.0625 C 319.355469 41 321.917969 42.996094 324.425781 45.058594 C 326.9375 47.117188 329.398438 49.238281 331.804688 51.421875 C 334.210938 53.601562 336.5625 55.84375 338.859375 58.140625 C 341.160156 60.4375 343.398438 62.789062 345.578125 65.195312 C 347.761719 67.601562 349.882812 70.0625 351.941406 72.574219 C 354.003906 75.085938 356.003906 77.644531 357.9375 80.253906 C 359.871094 82.863281 361.742188 85.519531 363.546875 88.21875 C 365.351562 90.921875 367.089844 93.664062 368.757812 96.449219 C 370.429688 99.238281 372.03125 102.0625 373.5625 104.929688 C 375.09375 107.792969 376.554688 110.695312 377.941406 113.628906 C 379.332031 116.566406 380.648438 119.535156 381.890625 122.539062 C 383.132812 125.539062 384.300781 128.570312 385.398438 131.628906 C 386.492188 134.6875 387.511719 137.769531 388.453125 140.878906 C 389.394531 143.988281 390.261719 147.117188 391.050781 150.269531 C 391.839844 153.421875 392.550781 156.589844 393.1875 159.773438 C 393.820312 162.960938 394.375 166.160156 394.851562 169.375 C 395.328125 172.585938 395.726562 175.8125 396.042969 179.042969 C 396.363281 182.277344 396.601562 185.515625 396.761719 188.761719 C 396.921875 192.003906 397 195.25 397 198.5 Z M 397 198.5 " fill-opacity="1" fill-rule="nonzero"/><path fill="#ffffff" d="M 309.8125 282.742188 L 313.980469 278.574219 C 316.472656 276.085938 317.839844 272.792969 317.839844 269.28125 C 317.839844 265.773438 316.472656 262.476562 313.980469 259.996094 L 295.230469 241.234375 C 290.101562 236.109375 281.765625 236.109375 276.652344 241.234375 L 272.484375 245.402344 Z M 309.8125 282.742188 " fill-opacity="1" fill-rule="evenodd"/><path fill="#ffffff" d="M 114.214844 87.136719 L 151.578125 124.496094 L 155.695312 120.339844 C 158.183594 117.847656 159.554688 114.542969 159.554688 111.046875 C 159.554688 107.535156 158.183594 104.242188 155.703125 101.75 L 136.929688 82.988281 C 134.367188 80.425781 131.011719 79.148438 127.648438 79.148438 C 124.28125 79.148438 120.914062 80.425781 118.351562 82.988281 Z M 114.214844 87.136719 " fill-opacity="1" fill-rule="evenodd"/><path fill="#ffffff" d="M 147.53125 128.554688 L 110.160156 91.179688 L 86.003906 115.335938 C 76.347656 125 76.925781 144.824219 87.566406 169.722656 C 98.714844 195.8125 119.402344 224.726562 145.8125 251.136719 C 172.246094 277.558594 201.15625 298.253906 227.238281 309.402344 C 252.132812 320.042969 271.957031 320.609375 281.621094 310.945312 L 305.757812 286.769531 L 268.40625 249.417969 L 255.707031 262.117188 C 250.796875 267.097656 243.210938 268.53125 236.871094 265.660156 C 217.972656 257.199219 196.957031 241.699219 176.09375 220.835938 C 155.242188 199.972656 139.742188 178.953125 131.269531 160.046875 C 128.46875 153.695312 129.902344 146.132812 134.820312 141.222656 Z M 147.53125 128.554688 " fill-opacity="1" fill-rule="evenodd"/><path fill="#ffffff" d="M 293.953125 196.472656 C 291.246094 196.472656 289.042969 194.28125 289.042969 191.5625 C 289.042969 145.484375 251.558594 108 205.488281 108 C 202.773438 108 200.578125 105.804688 200.578125 103.089844 C 200.578125 100.382812 202.773438 98.191406 205.488281 98.191406 C 256.980469 98.191406 298.863281 140.082031 298.863281 191.5625 C 298.851562 194.261719 296.660156 196.472656 293.953125 196.472656 Z M 267.914062 196.402344 C 270.621094 196.402344 272.820312 194.207031 272.820312 191.492188 C 272.820312 154.355469 242.613281 124.15625 205.488281 124.15625 C 202.78125 124.15625 200.589844 126.351562 200.578125 129.058594 C 200.578125 131.765625 202.773438 133.964844 205.488281 133.964844 C 237.199219 133.964844 263.011719 159.769531 263.011719 191.480469 C 263.003906 194.207031 265.207031 196.402344 267.914062 196.402344 Z M 241.871094 196.402344 C 244.578125 196.402344 246.78125 194.207031 246.78125 191.492188 C 246.78125 168.722656 228.253906 150.199219 205.488281 150.199219 C 202.78125 150.199219 200.589844 152.390625 200.578125 155.097656 C 200.578125 157.804688 202.773438 160.007812 205.488281 160.007812 C 222.84375 160.007812 236.972656 174.128906 236.972656 191.492188 C 236.964844 194.207031 239.15625 196.402344 241.871094 196.402344 Z M 241.871094 196.402344 " fill-opacity="1" fill-rule="evenodd"/></svg>