<svg xmlns="http://www.w3.org/2000/svg" xmlns:xlink="http://www.w3.org/1999/xlink" width="530" zoomAndPan="magnify" viewBox="0 0 397.5 397.500002" height="530" preserveAspectRatio="xMidYMid meet" version="1.0"><path fill="#ff3131" d="M 198.5 0 C 88.851562 0 0 88.851562 0 198.5 C 0 308.148438 88.851562 397 198.5 397 C 308.148438 397 397 308.148438 397 198.5 C 396.828125 88.851562 307.976562 0 198.5 0 Z M 312.789062 254.011719 C 310.554688 268.621094 297.835938 279.273438 283.054688 279.273438 L 113.773438 279.273438 C 98.992188 279.273438 86.273438 268.621094 84.039062 254.011719 C 81.976562 240.433594 79.914062 221.53125 79.742188 198.328125 C 79.914062 175.128906 81.804688 156.394531 84.039062 142.644531 C 86.273438 128.035156 98.992188 117.382812 113.773438 117.382812 L 283.054688 117.382812 C 297.835938 117.382812 310.554688 128.035156 312.789062 142.644531 C 314.851562 156.222656 316.914062 175.128906 317.085938 198.328125 C 316.914062 221.53125 314.851562 240.433594 312.789062 254.011719 Z M 312.789062 254.011719 " fill-opacity="1" fill-rule="nonzero"/><path fill="#ff3131" d="M 173.410156 166.191406 L 173.410156 230.636719 L 233.386719 198.5 Z M 173.410156 166.191406 " fill-opacity="1" fill-rule="nonzero"/></svg>